<svg width="367" height="245" fill="none" xmlns="http://www.w3.org/2000/svg"><path d="M58.908 10.537a1.17 1.17 0 01-1.028.975 39.83 39.83 0 01-4.993.104c.364 11.055-1.508 17.57-3.589 31.539 0 .507-.61.884-1.443.715-2.808-.572-4.343-.923-7.19-1.522-.78-.156-1.3-.715-1.132-1.157 4.98-12.238 8.283-16.18 6.749-29.913-2.042-.117-3.069-.182-5.071-.182-.507 0-.975-.624-1.067-1.3-.507-3.03-1-5.047-1.209-7.518a.833.833 0 01.858-.962c6.775.559 11.625 5.098 18.127 3.368.533-.13 1.3.078 1.3.533-.104 2.107-.195 3.2-.312 5.32zM90.687.432c.39 0 .612.559.352 1.183-6.697 16.205-6.502 20.978-6.502 37.534a.897.897 0 01-.845.858h-4.694a.91.91 0 01-.885-.858V25.792h-9.66c0 5.346-.573 9.312-.82 15.178a1.6 1.6 0 01-1.066 1.3c-2.185.78-3.29 1.21-5.41 1.821a.69.69 0 01-.949-.728c1.43-11.926.65-27.494 4.187-39.134a2.171 2.171 0 011.6-1.3 127.279 127.279 0 017.19-1.678c.754-.156 1.197.234.937.858-2.822 7.062-5.67 11.536-5.67 16.647h9.662c0-5.11 4.07-10.34 7.463-17.687.3-.65.754-1.106 1.197-1.067 1.65.065 2.353.182 3.913.43zM97.605 11.915c-1.3 3.616-.351 4.383-.351 7.154h10.597a.817.817 0 01.793.526c.04.106.058.219.053.332v5.32a.854.854 0 01-.243.605.852.852 0 01-.603.253H97.254a41.493 41.493 0 000 6.84c5.5.105 8.998.378 14.03.352a3.903 3.903 0 012.094 1.21c3.38 3.173 7.06 5.358 8.478 7.933.273.48 0 .95-.729.923-8.725-.43-22.105-3.355-29.386-3.355a.87.87 0 01-.846-.859c0-15.607 0-21.563 5.618-36.858.22-.598.585-1.027 1.053-1.001 6.866.351 9.908 1.379 17.086 1.6a.705.705 0 01.741.626.697.697 0 01-.052.35c-.832 2.6-2.392 4.356-3.641 7.1a1.733 1.733 0 01-1.3 1.054c-5.162.026-7.672-.066-12.795-.104zM265.213 49.034a2.721 2.721 0 01-.975 2.302c-2.419 1.99-2.601 1.522-4.629 1.522a1.223 1.223 0 01-.91-.703 250.312 250.312 0 00-15.214-30.134c0 8.961-.091 13.123.52 24.204a.699.699 0 01-.671.777.702.702 0 01-.369-.088 17.943 17.943 0 00-5.435-1.483.987.987 0 01-.936-1.001V8.144a.862.862 0 01.256-.689.881.881 0 01.693-.247c2.171 0 3.472 0 6.228-.078a1.87 1.87 0 011.092.26c7.659 8.324 6.398 14.085 11.703 23.41 0-9.104 3.381-15.243 7.334-24.71a2.273 2.273 0 011.534-1.197 26.823 26.823 0 005.669-1.925c.547-.26.872.091.651.728-9.389 16.01-10.364 26.87-6.541 45.338zM278.112 14.647c-1.795 3.901-.546 4.929-.234 8.037 4.785 0 6.982-.273 11.794.104a1.299 1.299 0 011.144 1.119c.381 1.923.443 3.896.182 5.84a.976.976 0 01-1.118.767c-4.811-.469-7.035-.079-11.872-.144-.273 2.9-1.3 4.331-.377 7.205 5.617.13 7.932-1.092 14.082.625a2.173 2.173 0 011.3 1.3c.82 2.38 2.159 3.902 3.251 6.36.208.468 0 .898-.663.858a144.98 144.98 0 00-20.467.39 1.508 1.508 0 01-1.456-.962c-6.229-16.907-2.601-26.492 3.966-42.593.195-.663.494-1.106.936-.989 6.332 1.73 5.383 4.214 23.288 1.483 1.301-.195 1.834.182 1.366.82-2.198 3.004-4.382 5.202-7.321 8.7a3.664 3.664 0 01-2.497 1.3c-7.697-.455-9.856.092-15.304-.22zM330.267 50.334c-.208.937-.871 1.782-1.066 1.236-1.951-7.088-1.509-7.804-6.229-26.233-2.444 15.087-5.968 23.619-8.14 30.694-.26.676-1.521.09-1.963-.898-12.847-13.98-12.496-34.855-5.734-50.227a3.65 3.65 0 012.6-1.821 19.148 19.148 0 014.863 0c.247 0 .299.403.065.871-4.031 9.585-3.445 25.088-.884 33.698 2.718-7.361 4.824-22.604 7.802-32.644a.96.96 0 011.001-.716c2.009-.021 4 .386 5.839 1.197a1.17 1.17 0 01.676 1.053c.533 9.65 1.144 25.595 2.6 32.787 2.107-8.037 6.008-20.184 6.502-27.52 0-.325.325-.428.611-.285a10.598 10.598 0 004.655 1.3c.741 0 1.027.65 1.118 1.457 2.297 9.823-.117 17.566-7.242 23.228a15.042 15.042 0 00-7.074 12.823zM109.333 62.586l4.746-.105a.835.835 0 01.806.65c1.158 3.733 7.165 22.357 14.083 28.535 0 0 .442-19.769 4.694-26.883a1.731 1.731 0 011.495-.845h9.232a1.16 1.16 0 011.009 1.025 1.16 1.16 0 01-.06.51 86.971 86.971 0 00-2.6 32.839c2.34 18.208-2.822 50.371-2.822 50.371s-3.16 9.897-3.199 64.949a7.547 7.547 0 01-.143 1.522c-.741 3.759-4.265 19.443-7.177-.806-3.277-22.799-.846-75.836-.846-75.836s-1.417-24.645-10.259-35.648c0 0-4.408 52.36-5.604 66.419-.949 11.198-.195 47.978 0 60.463 0 1.21-2.003-.728-2.406-1.846-2.6-7.427-7.047-27.208-11.013-61.452a24.904 24.904 0 01-.117-4.175c.48-7.881 2.353-35.713 5.825-48.406 4.2-14.866-1.95-51.84 4.356-51.282zM260.297 115.31a1.07 1.07 0 001.122.512 1.066 1.066 0 00.855-.889c1.118-4.032 3.225-11.172 4.005-10.613 1.04.754 10.272 26.193 13.25 76.811.159 3.21.95 6.357 2.327 9.26 1.301 2.77 3.433 7.686 6.58 16.335 6.67 18.312.858-75.315-4.304-82.546-5.162-7.231-7.269-32.202-5.591-51.333l.845-7.479a1.744 1.744 0 00-.007-.708 1.74 1.74 0 00-1.488-1.346h-1.977a2.332 2.332 0 00-1.976 1.17c-3.264 5.32-16.579 26.844-17.333 26.167-.755-.676-9.102-17.908-10.403-24.268a1.768 1.768 0 00-1.664-1.522h-2.965a2.276 2.276 0 00-2.106 1.782c-1.691 5.904-6.502 25.413-1.6 44.388a159.088 159.088 0 014.733 42.814s-6.501 33.282-3.445 42.048c3.055 8.765 10.766-7.102 10.961-9.286.637-6.854 7.802-49.006 4.733-55.716l-6.41-25.309c-.091-.364.221-.69.507-.508 2.171 1.483 8.335 5.827 11.351 10.236zM325.651 66.24a2.78 2.78 0 012.366-2.9 8.747 8.747 0 014.33.468c1.691 1.014 4.018 5.826 5.501 18.207 1.482 12.382 3.536 36.767 6.332 38.289 1.951 1.079 7.23 1.001 10.103.871a2.968 2.968 0 012.783 1.977c1.638 3.902 5.357 12.433 8.608 17.102a2.285 2.285 0 01.38 1.981 2.284 2.284 0 01-1.342 1.505c-4.876 1.17-12.834 5.514-15.266 21.121-3.367 21.641-24.25-79.191-23.795-98.621zM55.995 117.43c-1.015-2.757-.286-20.81-8.114-38.588a14.526 14.526 0 01-.82-2.367c-1.04-4.24-3.796-17.44.638-22.447l-5.384.104s-2.223-.742-5.2 1.99c-4.643 4.2-11.326 16.738-15.318 53.244-.037.289-.09.576-.156.859-.741 2.809-5.097 19.066-8.582 26.011-2.536 4.968-7.087 13.591-9.753 20.406-1.3 3.212 1.028 6.828 3.901 6.281l4.903-.91a2.06 2.06 0 001.443-1.157l11.611-23.163c2.055-4.097 6.216-6.1 9.987-4.552a21.921 21.921 0 016.124 3.901 4.64 4.64 0 011.404 4.162c-1.3 8.025-5.357 33.177-6.605 37.43-1.014 3.499 8.738 6.737 14.966 8.441 2.601.689 4.994-1.587 5.033-4.734.247-16.621.78-62.609-.078-64.911zm-21.676-9.715l2.522-12.148 4.044 12.486-6.566-.338zM343.855 184.59a39.13 39.13 0 00-1.755-7.803c-16.007-47.783-16.748-48.901-16.748-48.901-15.968-36.13-18.776-58.525-19.244-63.727a1.303 1.303 0 00-1.158-1.223h-2.6a1.468 1.468 0 00-1.275 1.288 201.574 201.574 0 01-4.98 21.524c-4.499 16.634-1.43 42.593.13 55.755 1.561 13.162-1.3 71.101-1.3 71.101-5.097 27.728 6.502 25.062 6.502 25.062-6.008-8.935 1.378-24.528 1.937-25.517.78-1.404 2.366-11.913 2.366-11.913l1.184-48.394 12.21 17.766a18.317 18.317 0 013.094 10.261c0 11.198 0 35.246-.676 41.618a11.86 11.86 0 004.694 10.405 3.706 3.706 0 005.656-1.028 102.703 102.703 0 0010.663-20.34c2.874-7.921 2.054-19.691 1.3-25.934zm-40.699-64.767l2.601-12.148 4.03 12.486-6.631-.338zM167.015 64.731c-17.242 5.007-21.273 20.328-22.105 29.77-.32 4.05.193 8.122 1.508 11.965a128.338 128.338 0 016.736 32.202l.637 44.219c3.342 34.868 14.147.949 14.147.949s16.774-59.084 18.204-62.882c1.496-3.537 6.463-63.649-19.127-56.223zm-1.092 44.531s-11.014-1.521-9.532-13.707c1.483-12.187 8.27-12.408 8.27-12.408s8.257-1.3 9.948 12.186c1.69 13.487-8.686 13.929-8.686 13.929zM96.928 94.384a2.03 2.03 0 01-.468-1.717c.923-4.838 4.343-25.452-3.185-31.434-8.53-6.79-22.587-2.601-22.587-2.601s-3.979-.26-5.409 14.306c-1.3 13.37 1.755 38.587.182 45.597-.299 1.301-2.12 30.03-2.12 30.03a.535.535 0 010 .143c-.181 1.457-3.77 30.42.287 44.7 3.692 13.006 11.95 23.749 13.744 26.012a1.304 1.304 0 001.04.546c1.846 0 6.736-1.704 6.957-21.537.273-24.464.923-47.575 7.918-57.693 6.749-9.78 9.753-38.9 3.641-46.352zm-19.504-19.82c5.331.207 7.06-.625 7.23 5.202.169 5.826-7.4 3.511-7.4 3.511l.17-8.714zm9.778 39.966c-2.236 10.066-10.064 9.39-10.064 9.39l.832-16.439 5.318-1.678s6.15-1.34 3.914 8.727z" fill="#01AC93"/><path d="M226.737 113.06a10.651 10.651 0 01-1.911-7.803c1.417-10.262 3.666-34.452-5.397-40.409a18.198 18.198 0 00-13.744-3.004c-5.201 1.001-9.206 5.735-10.61 11.705-1.626 7.01-2.718 18.845.078 37.391 4.681 31.214 11.468 69.034 9.44 95.734a27.178 27.178 0 005.461 18.976c7.802 9.689 18.36 19.079 14.082-8.246-6.501-41.618-8.79-29.588-8.036-56.015.651-23.176-5.721-38.952-7.307-42.489a.51.51 0 01.377-.755c3.563 0 6.787 2.471 8.296 6.347 2.6 6.62 6.033 17.18 5.916 25.686-.182 13.448 1.118 43.023 3.368 52.022 2.249 9 8.907-27.545 8.4-30.251-.507-2.705 8.79-36.207-8.413-58.889zm-21.221-16.543l.286-14.527s10.637-4.253 9.453 6.724c0 0 2.666 10.274-9.739 7.803z" fill="#01AC93"/><path d="M55.998 17.723a1.183 1.183 0 01-1.04.975c-1.662.13-3.33.157-4.994.078.377 11.042-1.508 17.57-3.576 31.539-.078.507-.61.884-1.443.715-2.809-.572-4.343-.923-7.19-1.522-.78-.156-1.3-.715-1.132-1.157 4.98-12.238 8.27-16.192 6.749-29.913-2.055-.13-3.056-.22-5.072-.22-.507 0-.975-.625-1.079-1.236-.494-3.03-.988-5.047-1.196-7.518a.82.82 0 01.845-.962c6.775.611 11.638 5.06 18.1 3.368.533-.13 1.3.078 1.3.534-.064 2.107-.168 3.212-.273 5.319zM87.777 7.618c.377 0 .61.56.35 1.184-6.709 16.205-6.5 20.965-6.5 37.534a.91.91 0 01-.846.858h-4.694a.91.91 0 01-.884-.858V32.979h-9.661c0 5.345-.586 9.312-.82 15.178a1.627 1.627 0 01-1 1.274c-2.185.768-3.304 1.21-5.41 1.821a.69.69 0 01-.95-.728c1.418-11.926.65-27.494 4.188-39.134a2.147 2.147 0 011.586-1.3c2.978-.768 4.447-1.12 7.204-1.678.754-.157 1.183.234.936.858-2.835 7.062-5.67 11.536-5.67 16.647h9.662c0-5.111 4.07-10.404 7.463-17.688.3-.663.742-1.105 1.197-1.066 1.586.078 2.327.208 3.849.455zM94.694 19.102c-1.3 3.615-.35 4.383-.35 7.153h10.584a.818.818 0 01.845.858v5.306a.853.853 0 01-.238.615.843.843 0 01-.607.257H94.343a39.98 39.98 0 000 6.828c5.5.117 8.998.39 14.031.364a3.9 3.9 0 012.093 1.21c3.381 3.173 7.048 5.358 8.478 7.933.26.481-.078.95-.728.923-8.725-.429-22.105-3.355-29.387-3.355a.872.872 0 01-.845-.858c0-15.607 0-21.564 5.617-36.858.221-.599.585-1.028 1.053-1.002 6.853.351 9.909 1.379 17.073 1.587a.717.717 0 01.74.637.714.714 0 01-.051.351c-.819 2.601-2.379 4.357-3.627 7.101a1.77 1.77 0 01-1.301 1.054c-5.175.026-7.671-.078-12.795-.104zM262.303 56.22a2.755 2.755 0 01-.936 2.315c-2.419 1.99-2.601 1.522-4.629 1.522a1.296 1.296 0 01-.923-.703 247.58 247.58 0 00-15.253-30.147c0 8.961-.091 13.123.52 24.204a.7.7 0 01-.671.777.703.703 0 01-.369-.088 18.044 18.044 0 00-5.435-1.483.988.988 0 01-.936-1.001V15.33a.85.85 0 01.573-.894.855.855 0 01.376-.042c2.158 0 3.459 0 6.215-.078a1.88 1.88 0 011.105.26c7.646 8.324 6.385 14.085 11.703 23.41 0-9.104 3.368-15.242 7.334-24.71a2.218 2.218 0 011.521-1.197 26.1 26.1 0 005.67-1.938c.546-.247.871.104.65.741-9.376 16.01-10.338 26.844-6.515 45.338zM275.189 21.833c-1.795 3.902-.546 4.93-.221 8.038 4.785 0 6.969-.273 11.793.104a1.3 1.3 0 011.132 1.118c.392 1.922.458 3.896.195 5.84a.99.99 0 01-1.118.767c-4.825-.468-7.048-.078-11.872-.143-.286 2.9-1.3 4.33-.377 7.205 5.617.13 7.932-1.093 14.082.624a2.134 2.134 0 011.365 1.3c.819 2.38 2.159 3.903 3.251 6.36.195.469-.065.898-.676.859a145.025 145.025 0 00-20.467.39 1.491 1.491 0 01-1.443-.962c-6.229-16.908-2.601-26.493 3.901-42.594.208-.663.507-1.105.936-.988 6.397 1.69 5.448 4.175 23.405 1.444 1.301-.196 1.821.182 1.301.819-2.198 3.004-4.382 5.202-7.321 8.7a3.673 3.673 0 01-2.51 1.301c-7.749-.416-9.895.104-15.356-.182zM327.357 57.52c-.208.937-.884 1.782-1.066 1.301-1.951-7.088-1.509-7.803-6.242-26.232-2.431 15.086-5.955 23.618-8.127 30.693-.273.676-1.521.091-1.963-.897-12.86-13.981-12.496-34.855-5.747-50.241a3.713 3.713 0 012.6-1.808 18.507 18.507 0 014.863 0c.26 0 .299.403.078.871-4.03 9.586-3.445 25.088-.884 33.698 2.705-7.361 4.811-22.604 7.802-32.644a.977.977 0 011.014-.715c2.009-.02 3.999.388 5.839 1.196a1.192 1.192 0 01.676 1.054c.533 9.65 1.144 25.595 2.6 32.787 2.107-8.038 6.008-20.185 6.502-27.533 0-.312.312-.416.611-.273a10.584 10.584 0 004.642 1.3c.754 0 1.04.65 1.131 1.457 2.306 9.815-.108 17.558-7.242 23.228a15.022 15.022 0 00-7.087 12.758zM106.423 69.772l4.746-.105a.846.846 0 01.806.65c1.158 3.733 7.165 22.357 14.083 28.535 0 0 .429-19.782 4.681-26.883a1.762 1.762 0 011.508-.845h9.232a1.139 1.139 0 01.84.54 1.14 1.14 0 01.096.995 87.258 87.258 0 00-2.6 32.839c2.353 18.208-2.809 50.371-2.809 50.371s-3.173 9.897-3.199 64.95c.004.51-.044 1.02-.143 1.521-.754 3.759-4.265 19.509-7.177-.806-3.238-22.799-.806-75.862-.806-75.862s-1.418-24.71-10.247-35.648c0 0-4.421 52.36-5.604 66.406-.949 11.211-.208 47.991.065 60.476 0 1.21-2.016-.728-2.406-1.846-2.6-7.427-7.047-27.208-11.013-61.452a24.893 24.893 0 01-.117-4.175c.48-7.881 2.34-35.713 5.825-48.406 4.083-14.853-2.054-51.815 4.239-51.255zM257.375 122.496a1.068 1.068 0 001.121.512 1.065 1.065 0 00.855-.889c1.131-4.032 3.238-11.172 4.018-10.612 1.027.741 10.272 26.193 13.237 76.811a24.721 24.721 0 002.341 9.26c1.3 2.77 3.419 7.686 6.501 16.335 6.671 18.312.871-75.316-4.291-82.547-5.162-7.231-7.282-32.202-5.604-51.333l.845-7.478a1.707 1.707 0 00-.821-1.834 1.711 1.711 0 00-.674-.221h-1.977a2.3 2.3 0 00-1.963 1.17c-3.277 5.32-16.592 26.844-17.346 26.168-.754-.676-9.102-17.909-10.403-24.269a1.796 1.796 0 00-1.677-1.521h-2.952a2.262 2.262 0 00-2.106 1.781c-1.704 5.905-6.502 25.413-1.613 44.389a158.48 158.48 0 014.734 42.814s-6.502 33.281-3.446 42.047c3.055 8.766 10.779-7.101 10.974-9.286.624-6.854 7.802-49.005 4.733-55.716l-6.306-25.309c-.091-.364.221-.689.494-.507 2.159 1.457 8.322 5.826 11.326 10.235zM322.741 73.465a2.782 2.782 0 012.34-2.9 8.774 8.774 0 014.33.468c1.691 1.015 4.018 5.827 5.487 18.208 1.47 12.381 3.589 36.702 6.333 38.223 1.963 1.08 7.23 1.002 10.103.872a2.937 2.937 0 012.783 1.977c1.651 3.901 5.357 12.433 8.621 17.102a2.279 2.279 0 01-.962 3.486c-4.877 1.17-12.834 5.514-15.266 21.121-3.342 21.667-24.237-79.165-23.769-98.557zM53.085 124.616c-1.027-2.757-.3-20.809-8.127-38.588a15.842 15.842 0 01-.741-2.367c-1.04-4.24-3.81-17.44.637-22.447l-5.396.104s-2.224-.741-5.201 1.99c-4.655 4.2-11.339 16.738-15.33 53.245-.025.29-.078.578-.157.858-.741 2.809-5.097 19.066-8.569 26.011-2.587 4.968-7.139 13.591-9.83 20.458-1.3 3.212 1.014 6.828 3.9 6.282l4.89-.911a2.023 2.023 0 001.443-1.157l11.625-23.163c2.054-4.097 6.215-6.1 9.986-4.552a21.692 21.692 0 016.112 3.902 4.596 4.596 0 011.404 4.161c-1.3 8.025-5.357 33.178-6.593 37.431-1.027 3.485 8.738 6.736 14.967 8.44 2.6.689 4.98-1.587 5.032-4.734.26-16.673.793-62.674-.052-64.963zm-21.689-9.715l2.536-12.147 4.03 12.485-6.566-.338zM340.945 191.725a38.24 38.24 0 00-1.769-7.804c-15.993-47.782-16.748-48.901-16.748-48.901-15.967-36.13-18.776-58.525-19.231-63.727a1.304 1.304 0 00-1.157-1.236h-2.601a1.481 1.481 0 00-1.378 1.379 202.634 202.634 0 01-4.915 21.576c-4.499 16.634-1.444 42.594.13 55.755 1.573 13.162-1.301 71.102-1.301 71.102-5.084 27.728 6.502 25.062 6.502 25.062-6.007-8.935 1.378-24.529 1.937-25.517.794-1.405 2.38-11.914 2.38-11.914l1.17-48.393 12.275 17.778a18.407 18.407 0 013.082 10.262c0 11.198 0 35.232-.676 41.618a11.907 11.907 0 004.694 10.404 3.723 3.723 0 003.078.832 3.72 3.72 0 002.591-1.859 103.157 103.157 0 0010.662-20.354c2.848-7.999 2.016-19.769 1.275-26.063zm-40.7-64.768l2.536-12.147 4.031 12.485-6.567-.338zM164.105 71.918c-17.242 5.007-21.273 20.328-22.106 29.77a29.275 29.275 0 001.509 11.965 128.328 128.328 0 016.735 32.202l.638 44.219c3.341 34.868 14.134.949 14.134.949s16.813-59.097 18.334-62.895c1.378-3.525 6.332-63.636-19.244-56.21zm-1.093 44.531s-11.013-1.522-9.57-13.695c1.443-12.173 8.257-12.433 8.257-12.433s8.257-1.3 9.96 12.186c1.704 13.487-8.647 13.942-8.647 13.942zM93.992 101.57a2.116 2.116 0 01-.468-1.717c.923-4.838 4.343-25.451-3.173-31.434-8.543-6.789-22.586-2.601-22.586-2.601s-3.992-.26-5.41 14.306c-1.3 13.37 1.743 38.588.183 45.598-.3 1.3-2.12 30.029-2.12 30.029a.542.542 0 010 .144c-.182 1.443-3.784 30.42.273 44.7 3.706 13.005 11.963 23.748 13.757 26.011a1.304 1.304 0 001.04.546c1.847 0 6.736-1.704 6.957-21.537.26-24.464.91-47.575 7.92-57.693 6.748-9.78 9.764-38.9 3.627-46.352zM74.487 81.75c5.332.208 7.048-.625 7.23 5.202.182 5.826-7.412 3.511-7.412 3.511l.182-8.713zm9.779 39.966c-2.237 10.066-10.078 9.39-10.078 9.39l.846-16.439 5.318-1.678s6.176-1.34 3.94 8.727h-.026z" fill="#fff"/><path d="M223.827 120.194a10.598 10.598 0 01-1.911-7.803c1.404-10.262 3.666-34.452-5.397-40.409a18.199 18.199 0 00-13.744-3.043c-5.201 1.001-9.206 5.736-10.61 11.77-1.626 7.01-2.731 18.845.065 37.391 4.694 31.214 11.481 69.034 9.453 95.734a27.164 27.164 0 005.422 18.976c7.802 9.689 18.373 19.079 14.082-8.246-6.501-41.683-8.777-29.588-8.035-56.015.663-23.176-5.722-38.952-7.308-42.489-.143-.352 0-.755.377-.755 3.576 0 6.801 2.471 8.309 6.347 2.601 6.62 6.033 17.18 5.916 25.686-.195 13.448 1.119 43.023 3.355 52.022 2.237 9 8.907-27.545 8.413-30.251-.494-2.705 8.803-36.181-8.387-58.915zm-21.234-16.491l.26-14.527s10.637-4.253 9.453 6.724c.039 0 2.705 10.274-9.713 7.803z" fill="#fff"/></svg>