<svg width="367" height="245" viewBox="0 0 367 245" fill="none" xmlns="http://www.w3.org/2000/svg">
<path d="M58.9077 10.5367C58.8666 10.7892 58.7439 11.0213 58.5584 11.1975C58.3729 11.3737 58.1348 11.4842 57.8805 11.5121C56.2199 11.6512 54.5523 11.686 52.8874 11.6162C53.2514 22.6709 51.379 29.1867 49.2985 43.1547C49.2985 43.662 48.6874 44.0391 47.8552 43.87C45.0466 43.2978 43.5122 42.9466 40.6645 42.3484C39.8844 42.1923 39.3643 41.6331 39.5333 41.1909C44.5134 28.9526 47.8162 25.0119 46.2818 11.278C44.2404 11.161 43.2131 11.0959 41.2107 11.0959C40.7036 11.0959 40.2355 10.4717 40.1444 9.79538C39.6373 6.76508 39.1432 4.74921 38.9352 2.27815C38.9158 2.15624 38.9237 2.03155 38.9584 1.91309C38.9932 1.79464 39.0538 1.68539 39.1359 1.59327C39.2181 1.50115 39.3197 1.42845 39.4334 1.38045C39.5471 1.33245 39.6701 1.31034 39.7933 1.31574C46.5679 1.87498 51.418 6.41393 57.9195 4.68419C58.4526 4.55413 59.2198 4.76222 59.2198 5.21741C59.1158 7.32432 59.0248 8.41679 58.9077 10.5367Z" fill="#01AC93"/>
<path d="M90.6874 0.431514C91.0775 0.431514 91.2985 0.990754 91.0385 1.61502C84.3419 17.82 84.537 22.5931 84.537 39.1492C84.5277 39.3716 84.436 39.5827 84.2798 39.7413C84.1236 39.8999 83.914 39.9948 83.6918 40.0075H78.9977C78.7696 40.0014 78.5521 39.9097 78.3883 39.7508C78.2245 39.5918 78.1265 39.3771 78.1135 39.1492V25.7924H68.4523C68.4523 31.1377 67.8802 35.1044 67.6331 40.97C67.5936 41.2644 67.473 41.542 67.2847 41.7717C67.0963 42.0014 66.8478 42.1741 66.5669 42.2705C64.3824 43.0508 63.2771 43.48 61.1576 44.0913C61.0456 44.1382 60.9232 44.1547 60.8028 44.1391C60.6824 44.1235 60.5682 44.0764 60.4718 44.0025C60.3755 43.9285 60.3004 43.8305 60.2541 43.7182C60.2079 43.6059 60.1921 43.4833 60.2084 43.363C61.6387 31.4369 60.8585 15.8692 64.3954 4.22915C64.5334 3.89681 64.7517 3.60398 65.0309 3.37696C65.3101 3.14995 65.6413 2.99588 65.9947 2.92859C68.9594 2.16126 70.4287 1.82311 73.1854 1.25087C73.9395 1.0948 74.3816 1.48497 74.1216 2.10924C71.2999 9.17127 68.4523 13.6452 68.4523 18.7564H78.1135C78.1135 13.6452 82.1834 8.41695 85.5772 1.06879C85.8763 0.418508 86.3314 -0.0366878 86.7735 0.00232894C88.4249 0.0673569 89.127 0.184407 90.6874 0.431514Z" fill="#01AC93"/>
<path d="M97.605 11.9155C96.3047 15.5311 97.254 16.2984 97.254 19.0686H107.851C107.965 19.0649 108.077 19.0846 108.182 19.1266C108.287 19.1686 108.383 19.2319 108.462 19.3126C108.541 19.3932 108.603 19.4894 108.644 19.5952C108.684 19.7009 108.702 19.8139 108.697 19.927V25.2462C108.698 25.3584 108.678 25.4697 108.636 25.5738C108.594 25.6778 108.532 25.7726 108.454 25.8524C108.375 25.9323 108.281 25.9958 108.178 26.039C108.074 26.0823 107.964 26.1046 107.851 26.1046H97.254C97.0657 28.381 97.0657 30.6691 97.254 32.9456C102.754 33.0496 106.252 33.3227 111.284 33.2967C112.092 33.468 112.826 33.8915 113.378 34.5062C116.758 37.6796 120.438 39.8645 121.856 42.4396C122.129 42.9209 121.856 43.3891 121.127 43.363C112.402 42.9339 99.0224 40.0076 91.7407 40.0076C91.5164 40.0009 91.3034 39.908 91.1459 39.748C90.9885 39.5881 90.8988 39.3736 90.8955 39.1492C90.8955 23.5425 90.8955 17.586 96.5128 2.29137C96.7339 1.69311 97.0979 1.26393 97.566 1.28994C104.432 1.64109 107.474 2.66853 114.652 2.88963C114.771 2.88233 114.891 2.90566 114.999 2.95741C115.106 3.00916 115.199 3.08761 115.268 3.18532C115.337 3.28302 115.38 3.39675 115.393 3.51571C115.406 3.63467 115.388 3.75492 115.341 3.86505C114.509 6.46617 112.949 8.22192 111.7 10.9661C111.59 11.2374 111.413 11.4764 111.186 11.6606C110.959 11.8448 110.688 11.9684 110.4 12.0196C105.238 12.0456 102.728 11.9545 97.605 11.9155Z" fill="#01AC93"/>
<path d="M265.213 49.0339C265.247 49.4676 265.175 49.9031 265.006 50.3037C264.836 50.7042 264.573 51.0582 264.238 51.3359C261.819 53.3257 261.637 52.8575 259.609 52.8575C259.411 52.8241 259.225 52.7425 259.066 52.6201C258.907 52.4976 258.781 52.3379 258.699 52.1552C254.311 41.7795 249.229 31.7119 243.485 22.0212C243.485 30.9821 243.394 35.1439 244.005 46.2247C244.019 46.3528 243.998 46.4823 243.943 46.5989C243.888 46.7156 243.802 46.815 243.695 46.8862C243.588 46.9573 243.463 46.9976 243.334 47.0025C243.205 47.0074 243.078 46.9768 242.965 46.9139C241.243 46.1366 239.408 45.6362 237.53 45.4313C237.275 45.4179 237.034 45.3061 236.86 45.1193C236.685 44.9326 236.59 44.6855 236.594 44.4299V8.14427C236.584 8.01762 236.601 7.89031 236.646 7.77127C236.69 7.65222 236.76 7.54431 236.85 7.4551C236.941 7.36589 237.05 7.29753 237.169 7.25483C237.289 7.21212 237.416 7.19609 237.543 7.20786C239.714 7.20786 241.015 7.20786 243.771 7.12983C244.153 7.10274 244.535 7.19353 244.863 7.38994C252.522 15.7135 251.261 21.475 256.566 30.8C256.566 21.6961 259.947 15.5575 263.9 6.08938C264.051 5.7889 264.267 5.52573 264.533 5.31884C264.798 5.11194 265.106 4.96646 265.434 4.89287C267.39 4.46475 269.291 3.81913 271.103 2.96804C271.65 2.70793 271.975 3.05908 271.754 3.69635C262.365 19.7062 261.39 30.5659 265.213 49.0339Z" fill="#01AC93"/>
<path d="M278.112 14.6466C276.317 18.5483 277.566 19.5758 277.878 22.6841C282.663 22.6841 284.86 22.411 289.672 22.7881C289.96 22.8203 290.229 22.9479 290.436 23.1505C290.643 23.3532 290.777 23.6193 290.816 23.9066C291.197 25.8299 291.259 27.8029 290.998 29.7461C290.947 29.9942 290.803 30.2129 290.594 30.356C290.385 30.4992 290.129 30.5557 289.88 30.5135C285.069 30.0453 282.845 30.4354 278.008 30.3704C277.735 33.2707 276.708 34.7013 277.631 37.5755C283.248 37.7056 285.563 36.483 291.713 38.1998C292.012 38.3082 292.283 38.4809 292.508 38.7056C292.732 38.9303 292.905 39.2016 293.013 39.5003C293.833 41.8804 295.172 43.402 296.264 45.8601C296.472 46.3283 296.264 46.7575 295.601 46.7184C288.778 46.3661 281.939 46.4964 275.134 47.1086C274.822 47.119 274.514 47.0319 274.253 46.8595C273.992 46.6871 273.791 46.4378 273.678 46.1462C267.449 29.2389 271.077 19.6538 277.644 3.55286C277.839 2.88958 278.138 2.44739 278.58 2.56444C284.912 4.29418 283.963 6.77825 301.868 4.04707C303.169 3.85199 303.702 4.22915 303.234 4.86643C301.036 7.87072 298.852 10.0687 295.913 13.5672C295.603 13.9377 295.223 14.2434 294.794 14.4666C294.366 14.6898 293.898 14.8261 293.416 14.8677C285.719 14.4125 283.56 14.9588 278.112 14.6466Z" fill="#01AC93"/>
<path d="M330.267 50.3343C330.059 51.2707 329.396 52.116 329.201 51.5698C327.25 44.4817 327.692 43.7664 322.972 25.3375C320.528 40.424 317.004 48.9557 314.832 56.0307C314.572 56.707 313.311 56.1218 312.869 55.1333C300.022 41.1523 300.373 20.2783 307.135 4.90572C307.403 4.42613 307.777 4.01334 308.227 3.69809C308.677 3.38284 309.193 3.17325 309.735 3.08494C311.35 2.87826 312.984 2.87826 314.598 3.08494C314.845 3.08494 314.897 3.48811 314.663 3.95631C310.632 13.5414 311.218 29.0441 313.779 37.6538C316.497 30.2926 318.603 15.0501 321.581 5.00976C321.638 4.79235 321.769 4.60178 321.952 4.47113C322.135 4.34047 322.358 4.27797 322.582 4.29446C324.591 4.27253 326.582 4.68048 328.421 5.49097C328.621 5.58453 328.792 5.7332 328.911 5.91969C329.031 6.10618 329.095 6.32282 329.097 6.54442C329.63 16.1946 330.241 32.1394 331.697 39.3315C333.804 31.2941 337.705 19.1468 338.199 11.8117C338.199 11.4865 338.524 11.3825 338.81 11.5256C340.241 12.3119 341.834 12.757 343.465 12.8261C344.206 12.8261 344.492 13.4764 344.583 14.2828C346.88 24.1063 344.466 31.849 337.341 37.5107C335.167 38.8687 333.377 40.7594 332.139 43.0037C330.901 45.2479 330.256 47.7712 330.267 50.3343Z" fill="#01AC93"/>
<path d="M109.333 62.5855L114.079 62.4814C114.267 62.4828 114.449 62.5478 114.596 62.6659C114.742 62.784 114.844 62.9482 114.885 63.1317C116.043 66.8643 122.05 85.4883 128.968 91.666C128.968 91.666 129.41 71.8975 133.662 64.7834C133.816 64.5245 134.035 64.3102 134.297 64.1619C134.559 64.0137 134.856 63.9365 135.157 63.9381H144.389C144.561 63.9593 144.726 64.0188 144.872 64.1122C145.017 64.2057 145.14 64.3306 145.231 64.4779C145.323 64.6251 145.379 64.791 145.398 64.9632C145.416 65.1353 145.396 65.3095 145.338 65.4727C142.387 76.1534 141.505 87.2997 142.738 98.3119C145.078 116.52 139.916 148.683 139.916 148.683C139.916 148.683 136.756 158.58 136.717 213.632C136.721 214.143 136.673 214.653 136.574 215.154C135.833 218.913 132.309 234.597 129.397 214.348C126.12 191.549 128.551 138.512 128.551 138.512C128.551 138.512 127.134 113.867 118.292 102.864C118.292 102.864 113.884 155.224 112.688 169.283C111.739 180.481 112.493 217.261 112.688 229.746C112.688 230.956 110.685 229.018 110.282 227.9C107.682 220.473 103.235 200.692 99.2688 166.448C99.1129 165.062 99.0738 163.666 99.1517 162.273C99.6329 154.392 101.505 126.56 104.977 113.867C109.177 99.0012 103.027 62.0262 109.333 62.5855Z" fill="#01AC93"/>
<path d="M260.297 115.31C260.408 115.501 260.576 115.653 260.777 115.745C260.978 115.836 261.202 115.863 261.419 115.822C261.636 115.78 261.835 115.673 261.988 115.513C262.141 115.354 262.241 115.151 262.274 114.933C263.392 110.901 265.499 103.761 266.279 104.32C267.319 105.074 276.551 130.513 279.529 181.131C279.688 184.341 280.479 187.488 281.856 190.391C283.157 193.161 285.289 198.077 288.436 206.726C295.106 225.038 289.294 131.411 284.132 124.18C278.97 116.949 276.863 91.9778 278.541 72.8466L279.386 65.3684C279.432 65.1342 279.43 64.8929 279.379 64.6598C279.327 64.4266 279.228 64.2066 279.088 64.0136C278.947 63.8206 278.768 63.6587 278.562 63.5382C278.356 63.4177 278.128 63.3412 277.891 63.3135H275.914C275.512 63.321 275.118 63.4327 274.771 63.6379C274.425 63.843 274.138 64.1346 273.938 64.484C270.674 69.8033 257.359 91.3275 256.605 90.6512C255.85 89.9749 247.503 72.7425 246.202 66.3828C246.145 65.9751 245.948 65.6 245.644 65.3222C245.34 65.0445 244.949 64.8814 244.538 64.8611H241.573C241.075 64.8864 240.6 65.0744 240.219 65.3963C239.839 65.7182 239.574 66.1562 239.467 66.6429C237.776 72.5475 232.965 92.0558 237.867 111.031C241.378 125.022 242.971 139.425 242.6 153.845C242.6 153.845 236.099 187.127 239.155 195.893C242.21 204.658 249.921 188.791 250.116 186.607C250.753 179.753 257.918 137.601 254.849 130.891L248.439 105.582C248.348 105.218 248.66 104.892 248.946 105.074C251.117 106.557 257.281 110.901 260.297 115.31Z" fill="#01AC93"/>
<path d="M325.651 66.2396C325.614 65.5484 325.836 64.8683 326.274 64.3321C326.711 63.7958 327.333 63.4419 328.017 63.3394C329.477 63.128 330.967 63.289 332.347 63.8076C334.038 64.822 336.365 69.6341 337.848 82.0154C339.33 94.3967 341.384 118.782 344.18 120.304C346.131 121.383 351.41 121.305 354.283 121.175C354.894 121.178 355.49 121.369 355.988 121.723C356.486 122.077 356.862 122.576 357.066 123.152C358.704 127.054 362.423 135.585 365.674 140.254C365.885 140.533 366.029 140.857 366.095 141.2C366.161 141.544 366.147 141.898 366.054 142.235C365.961 142.572 365.791 142.883 365.559 143.144C365.326 143.405 365.036 143.609 364.712 143.74C359.836 144.91 351.878 149.254 349.446 164.861C346.079 186.502 325.196 85.67 325.651 66.2396Z" fill="#01AC93"/>
<path d="M55.9946 117.43C54.9803 114.673 55.7085 96.6209 47.8807 78.8423C47.54 78.0783 47.2659 77.2864 47.0615 76.4752C46.0213 72.2354 43.2646 59.0347 47.6987 54.0276L42.3154 54.1316C42.3154 54.1316 40.0919 53.3903 37.1142 56.1215C32.4722 60.3223 25.7886 72.8597 21.7967 109.366C21.7596 109.655 21.7075 109.942 21.6407 110.225C20.8995 113.034 16.5435 129.291 13.0587 136.236C10.5231 141.204 5.97206 149.827 3.30645 156.642C2.00615 159.854 4.33369 163.47 7.20735 162.923L12.1095 162.013C12.4238 161.946 12.7181 161.807 12.9688 161.606C13.2194 161.405 13.4195 161.148 13.5528 160.856L25.1645 137.693C27.2189 133.596 31.3799 131.593 35.1508 133.141C37.3949 134.092 39.4647 135.41 41.2752 137.042C41.8345 137.566 42.2555 138.22 42.5005 138.947C42.7455 139.673 42.807 140.448 42.6795 141.204C41.3792 149.229 37.3223 174.381 36.074 178.634C35.0597 182.133 44.812 185.371 51.0404 187.075C53.641 187.764 56.0336 185.488 56.0726 182.341C56.3196 165.72 56.8528 119.732 55.9946 117.43ZM34.3186 107.715L36.8412 95.5675L40.8851 108.053L34.3186 107.715Z" fill="#01AC93"/>
<path d="M343.855 184.59C343.538 181.936 342.95 179.321 342.1 176.787C326.093 129.004 325.352 127.886 325.352 127.886C309.384 91.7564 306.576 69.3608 306.108 64.1586C306.091 63.8506 305.965 63.5587 305.753 63.3347C305.541 63.1108 305.257 62.9695 304.95 62.936H302.35C302.024 62.9774 301.722 63.1267 301.491 63.3601C301.26 63.5934 301.113 63.8974 301.075 64.2236C299.81 71.4839 298.147 78.6695 296.095 85.7479C291.596 102.382 294.665 128.341 296.225 141.503C297.786 154.665 294.925 212.604 294.925 212.604C289.828 240.332 301.427 237.666 301.427 237.666C295.419 228.731 302.805 213.138 303.364 212.149C304.144 210.745 305.73 200.236 305.73 200.236L306.914 151.842L319.124 169.608C321.155 172.643 322.233 176.217 322.218 179.869C322.218 191.067 322.218 215.115 321.542 221.487C321.386 223.476 321.735 225.473 322.556 227.291C323.376 229.11 324.642 230.692 326.236 231.892C326.654 232.25 327.147 232.51 327.679 232.654C328.21 232.798 328.767 232.821 329.309 232.723C329.85 232.625 330.363 232.407 330.81 232.085C331.257 231.764 331.627 231.347 331.892 230.864C336.196 224.504 339.772 217.681 342.555 210.524C345.429 202.603 344.609 190.833 343.855 184.59ZM303.156 119.823L305.757 107.675L309.787 120.161L303.156 119.823Z" fill="#01AC93"/>
<path d="M167.015 64.7312C149.773 69.7384 145.742 85.059 144.91 94.501C144.59 98.5506 145.103 102.623 146.418 106.466C150.036 116.867 152.299 127.689 153.154 138.668L153.791 182.887C157.133 217.755 167.938 183.836 167.938 183.836C167.938 183.836 184.712 124.752 186.142 120.954C187.638 117.417 192.605 57.305 167.015 64.7312ZM165.923 109.262C165.923 109.262 154.909 107.741 156.391 95.5545C157.874 83.3682 164.661 83.1471 164.661 83.1471C164.661 83.1471 172.918 81.8466 174.609 95.3334C176.299 108.82 165.923 109.262 165.923 109.262Z" fill="#01AC93"/>
<path d="M96.9283 94.3839C96.725 94.1521 96.5772 93.8771 96.496 93.5796C96.4149 93.2821 96.4027 92.9701 96.4602 92.6671C97.3834 87.8291 100.803 67.2152 93.2745 61.2326C84.7445 54.4437 70.6883 58.6315 70.6883 58.6315C70.6883 58.6315 66.7094 58.3714 65.279 72.9377C63.9787 86.3074 67.0344 111.525 65.4611 118.535C65.162 119.836 63.3416 148.565 63.3416 148.565C63.348 148.613 63.348 148.661 63.3416 148.708C63.1595 150.165 59.5707 179.128 63.6277 193.408C67.3205 206.414 75.5774 217.157 77.3718 219.42C77.4902 219.586 77.646 219.722 77.8267 219.817C78.0075 219.912 78.208 219.963 78.4121 219.966C80.2585 219.966 85.1476 218.262 85.3687 198.429C85.6417 173.965 86.2919 150.854 93.2875 140.736C100.036 130.956 103.04 101.836 96.9283 94.3839ZM77.4238 74.5634C82.7551 74.7714 84.4845 73.9391 84.6535 79.7656C84.8225 85.5921 77.2548 83.2771 77.2548 83.2771L77.4238 74.5634ZM87.2021 114.53C84.9656 124.596 77.1378 123.92 77.1378 123.92L77.97 107.481L83.2882 105.803C83.2882 105.803 89.4386 104.463 87.2021 114.53Z" fill="#01AC93"/>
<path d="M226.737 113.06C225.106 110.808 224.42 108.008 224.826 105.257C226.243 94.9953 228.492 70.8049 219.429 64.8483C217.452 63.4606 215.219 62.4803 212.859 61.9645C210.499 61.4487 208.061 61.4078 205.685 61.844C200.484 62.8454 196.479 67.5795 195.075 73.549C193.449 80.5591 192.357 92.3942 195.153 110.94C199.834 142.154 206.621 179.974 204.593 206.674C203.97 213.461 205.919 220.233 210.054 225.65C217.856 235.339 228.414 244.729 224.136 217.404C217.635 175.786 215.346 187.816 216.1 161.389C216.751 138.213 210.379 122.437 208.793 118.9C208.752 118.827 208.729 118.746 208.727 118.662C208.724 118.579 208.743 118.496 208.78 118.422C208.817 118.347 208.872 118.283 208.94 118.235C209.008 118.186 209.087 118.156 209.17 118.145C212.733 118.145 215.957 120.616 217.466 124.492C220.066 131.112 223.499 141.672 223.382 150.178C223.2 163.626 224.5 193.201 226.75 202.2C228.999 211.2 235.657 174.655 235.15 171.949C234.643 169.244 243.94 135.742 226.737 113.06ZM205.516 96.5169L205.802 81.9897C205.802 81.9897 216.439 77.7368 215.255 88.7136C215.255 88.7136 217.921 98.988 205.516 96.5169Z" fill="#01AC93"/>
<path d="M55.9975 17.7229C55.9538 17.9765 55.8285 18.2089 55.6408 18.3849C55.4531 18.5609 55.2131 18.6709 54.9573 18.6983C53.2962 18.8288 51.6285 18.8549 49.9641 18.7763C50.3412 29.8181 48.4558 36.3469 46.3883 50.3149C46.3103 50.8221 45.7772 51.1993 44.945 51.0302C42.1364 50.4579 40.602 50.1068 37.7544 49.5085C36.9742 49.3525 36.4541 48.7932 36.6231 48.351C41.6032 36.1128 44.893 32.1591 43.3716 18.4382C41.3172 18.3081 40.3159 18.2171 38.3005 18.2171C37.7934 18.2171 37.3253 17.5928 37.2212 16.9815C36.7271 13.9512 36.233 11.9354 36.025 9.46431C36.0033 9.34316 36.0093 9.2187 36.0423 9.10016C36.0754 8.98163 36.1347 8.87206 36.2159 8.77961C36.2971 8.68715 36.3981 8.61417 36.5114 8.56609C36.6246 8.51801 36.7472 8.49607 36.8701 8.50189C43.6447 9.11316 48.5078 13.5611 54.9703 11.8703C55.5034 11.7403 56.2706 11.9484 56.2706 12.4036C56.2056 14.5105 56.1016 15.616 55.9975 17.7229Z" fill="white"/>
<path d="M87.7767 7.61823C88.1537 7.61823 88.3878 8.17747 88.1277 8.80174C81.4182 25.0067 81.6262 29.7668 81.6262 46.3359C81.6141 46.5574 81.5215 46.7668 81.3659 46.9249C81.2103 47.083 81.0023 47.1787 80.7811 47.1943H76.087C75.8588 47.1881 75.6413 47.0965 75.4776 46.9375C75.3138 46.7785 75.2157 46.5638 75.2028 46.3359V32.9791H65.5416C65.5416 38.3244 64.9564 42.2911 64.7224 48.1567C64.6815 48.4382 64.5676 48.704 64.3919 48.9277C64.2162 49.1513 63.9849 49.3249 63.7211 49.4312C61.5366 50.1985 60.4184 50.6407 58.3119 51.252C58.1999 51.2989 58.0775 51.3154 57.9571 51.2998C57.8366 51.2842 57.7225 51.2371 57.6261 51.1632C57.5298 51.0892 57.4547 50.9912 57.4084 50.8789C57.3622 50.7666 57.3464 50.644 57.3627 50.5237C58.78 38.5976 58.0128 23.0299 61.5496 11.3899C61.6845 11.0578 61.9003 10.7649 62.1774 10.5377C62.4545 10.3105 62.784 10.1563 63.136 10.0893C66.1137 9.32196 67.583 8.97081 70.3397 8.41157C71.0938 8.2555 71.5229 8.64567 71.2759 9.26994C68.4412 16.332 65.6066 20.8059 65.6066 25.9171H75.2678C75.2678 20.8059 79.3377 15.5126 82.7315 8.22949C83.0306 7.56621 83.4727 7.12402 83.9278 7.16303C85.5141 7.24107 86.2553 7.37112 87.7767 7.61823Z" fill="white"/>
<path d="M94.6944 19.1018C93.3941 22.7173 94.3433 23.4847 94.3433 26.2549H104.928C105.041 26.2511 105.154 26.2709 105.259 26.3129C105.364 26.3549 105.459 26.4182 105.538 26.4988C105.618 26.5795 105.68 26.6757 105.72 26.7815C105.76 26.8872 105.778 27.0002 105.773 27.1132V32.4195C105.776 32.5327 105.757 32.6454 105.716 32.751C105.675 32.8566 105.614 32.9529 105.535 33.0342C105.456 33.1154 105.362 33.18 105.257 33.2241C105.153 33.2682 105.041 33.2909 104.928 33.2909H94.3433C94.1486 35.5627 94.1486 37.847 94.3433 40.1188C99.8436 40.2359 103.341 40.509 108.374 40.483C109.182 40.6542 109.915 41.0778 110.467 41.6925C113.848 44.8659 117.515 47.0508 118.945 49.6259C119.205 50.1071 118.867 50.5753 118.217 50.5493C109.492 50.1201 96.1117 47.1939 88.83 47.1939C88.6058 47.1872 88.3927 47.0942 88.2352 46.9343C88.0778 46.7744 87.9881 46.5599 87.9849 46.3355C87.9849 30.7288 87.9849 24.7722 93.6022 9.47765C93.8232 8.87939 94.1873 8.45021 94.6554 8.47622C101.508 8.82737 104.564 9.85481 111.728 10.0629C111.848 10.0581 111.967 10.0836 112.075 10.137C112.182 10.1904 112.275 10.27 112.343 10.3685C112.412 10.4669 112.455 10.5811 112.468 10.7004C112.481 10.8198 112.463 10.9404 112.417 11.0513C111.598 13.6524 110.038 15.4082 108.79 18.1524C108.677 18.4217 108.499 18.6588 108.272 18.8427C108.045 19.0265 107.776 19.1513 107.489 19.2058C102.314 19.2318 99.8176 19.1278 94.6944 19.1018Z" fill="white"/>
<path d="M262.303 56.2199C262.34 56.6522 262.275 57.0872 262.112 57.4895C261.949 57.8917 261.694 58.2499 261.367 58.5349C258.948 60.5247 258.766 60.0565 256.738 60.0565C256.54 60.0189 256.354 59.9359 256.194 59.814C256.033 59.6922 255.904 59.5348 255.815 59.3542C251.423 48.9697 246.327 38.8973 240.562 29.2073C240.562 38.1681 240.471 42.3299 241.082 53.4107C241.096 53.5388 241.075 53.6683 241.02 53.785C240.965 53.9016 240.879 54.001 240.772 54.0722C240.665 54.1434 240.54 54.1836 240.411 54.1885C240.282 54.1934 240.155 54.1628 240.042 54.1C238.319 53.3242 236.485 52.8239 234.607 52.6173C234.352 52.6039 234.111 52.4921 233.937 52.3054C233.762 52.1186 233.667 51.8715 233.671 51.6159V15.3303C233.658 15.2031 233.674 15.0748 233.718 14.9546C233.761 14.8345 233.831 14.7256 233.922 14.6359C234.013 14.5461 234.123 14.4778 234.244 14.436C234.364 14.3941 234.493 14.3797 234.62 14.3939C236.778 14.3939 238.079 14.3939 240.835 14.3159C241.222 14.2869 241.608 14.3777 241.94 14.576C249.586 22.8996 248.325 28.661 253.643 37.986C253.643 28.8821 257.011 22.7435 260.977 13.2754C261.124 12.9742 261.337 12.7101 261.601 12.5029C261.864 12.2957 262.171 12.1508 262.498 12.0789C264.456 11.6529 266.358 11.0027 268.168 10.1411C268.714 9.89397 269.039 10.2451 268.818 10.8824C259.442 26.8923 258.48 37.7259 262.303 56.2199Z" fill="white"/>
<path d="M275.189 21.8332C273.394 25.7348 274.643 26.7623 274.968 29.8706C279.753 29.8706 281.937 29.5975 286.761 29.9747C287.047 30.0095 287.313 30.1383 287.518 30.3407C287.723 30.5431 287.855 30.8078 287.893 31.0931C288.285 33.0149 288.351 34.989 288.088 36.9326C288.034 37.1791 287.889 37.3958 287.681 37.5384C287.473 37.6811 287.219 37.7389 286.97 37.7C282.145 37.2318 279.922 37.6219 275.098 37.5569C274.812 40.4572 273.798 41.8878 274.721 44.762C280.338 44.8921 282.653 43.6695 288.803 45.3863C289.115 45.4839 289.4 45.6519 289.637 45.8774C289.874 46.103 290.056 46.3799 290.168 46.6868C290.987 49.0669 292.327 50.5885 293.419 53.0466C293.614 53.5148 293.354 53.944 292.743 53.9049C285.92 53.5527 279.081 53.6831 272.276 54.2951C271.965 54.3047 271.659 54.2171 271.401 54.0446C271.142 53.8721 270.944 53.6233 270.833 53.3327C264.604 36.4254 268.232 26.8403 274.734 10.7394C274.942 10.0761 275.241 9.63391 275.67 9.75096C282.067 11.4417 281.118 13.9258 299.075 11.1946C300.376 10.9995 300.896 11.3767 300.376 12.0139C298.178 15.0182 295.994 17.2162 293.055 20.7147C292.743 21.0867 292.361 21.3933 291.93 21.6165C291.5 21.8398 291.029 21.9753 290.545 22.0152C282.796 21.5991 280.65 22.1193 275.189 21.8332Z" fill="white"/>
<path d="M327.357 57.5205C327.149 58.4569 326.473 59.3022 326.291 58.821C324.34 51.733 324.782 51.0177 320.049 32.5887C317.618 47.6752 314.094 56.2069 311.922 63.282C311.649 63.9582 310.401 63.373 309.959 62.3846C297.099 48.4035 297.463 27.5296 304.212 12.1439C304.485 11.6692 304.86 11.2608 305.309 10.9482C305.759 10.6356 306.272 10.4266 306.812 10.3362C308.426 10.1223 310.061 10.1223 311.675 10.3362C311.935 10.3362 311.974 10.7393 311.753 11.2075C307.723 20.7927 308.308 36.2953 310.869 44.905C313.574 37.5439 315.68 22.3013 318.671 12.261C318.731 12.0425 318.865 11.8517 319.05 11.7212C319.235 11.5906 319.459 11.5286 319.685 11.5457C321.694 11.5265 323.684 11.9344 325.524 12.7422C325.723 12.8382 325.891 12.9875 326.01 13.1734C326.13 13.3594 326.195 13.5747 326.2 13.7957C326.733 23.4458 327.344 39.3907 328.8 46.5828C330.907 38.5453 334.808 26.3981 335.302 19.0499C335.302 18.7378 335.614 18.6337 335.913 18.7768C337.34 19.5617 338.928 20.0067 340.555 20.0774C341.309 20.0774 341.595 20.7276 341.686 21.534C343.992 31.3489 341.578 39.0915 334.444 44.762C332.276 46.1107 330.487 47.9901 329.247 50.2225C328.007 52.4549 327.357 54.9667 327.357 57.5205Z" fill="white"/>
<path d="M106.423 69.7715L111.169 69.6675C111.357 69.6711 111.538 69.7369 111.684 69.8546C111.829 69.9724 111.932 70.1353 111.975 70.3178C113.133 74.0504 119.14 92.6744 126.058 98.852C126.058 98.852 126.487 79.0705 130.739 71.9695C130.897 71.7112 131.118 71.4979 131.383 71.3498C131.647 71.2018 131.944 71.1241 132.247 71.1241H141.479C141.651 71.1447 141.816 71.2041 141.961 71.2977C142.107 71.3912 142.229 71.5166 142.319 71.6643C142.41 71.812 142.465 71.9783 142.482 72.1505C142.498 72.3228 142.476 72.4965 142.415 72.6588C139.471 83.3406 138.589 94.4857 139.815 105.498C142.168 123.706 137.006 155.869 137.006 155.869C137.006 155.869 133.833 165.766 133.807 220.819C133.811 221.329 133.763 221.839 133.664 222.34C132.91 226.099 129.399 241.849 126.487 221.534C123.249 198.735 125.681 145.672 125.681 145.672C125.681 145.672 124.263 120.962 115.434 110.024C115.434 110.024 111.013 162.384 109.83 176.43C108.881 187.641 109.622 224.421 109.895 236.906C109.895 238.116 107.879 236.178 107.489 235.06C104.889 227.633 100.442 207.852 96.4758 173.608C96.3199 172.222 96.2808 170.826 96.3588 169.433C96.8399 161.552 98.6993 133.72 102.184 121.027C106.267 106.174 100.13 69.2123 106.423 69.7715Z" fill="white"/>
<path d="M257.375 122.496C257.486 122.687 257.653 122.839 257.854 122.931C258.055 123.023 258.28 123.05 258.496 123.008C258.713 122.967 258.912 122.859 259.065 122.7C259.218 122.541 259.318 122.338 259.351 122.119C260.482 118.087 262.589 110.947 263.369 111.507C264.396 112.248 273.641 137.7 276.606 188.318C276.777 191.527 277.572 194.673 278.947 197.578C280.247 200.348 282.366 205.264 285.448 213.913C292.119 232.225 286.319 138.597 281.157 131.366C275.995 124.135 273.875 99.1643 275.553 80.0331L276.398 72.5549C276.447 72.3205 276.446 72.0786 276.395 71.8447C276.345 71.6107 276.246 71.3899 276.105 71.1964C275.964 71.0029 275.784 70.841 275.577 70.7211C275.37 70.6012 275.141 70.5258 274.903 70.5H272.926C272.525 70.5072 272.133 70.6189 271.789 70.8242C271.445 71.0295 271.16 71.3213 270.963 71.6705C267.686 76.9898 254.371 98.5141 253.617 97.8378C252.863 97.1615 244.515 79.9291 243.214 73.5693C243.152 73.1615 242.951 72.7876 242.646 72.5104C242.34 72.2333 241.949 72.0699 241.537 72.0477H238.585C238.087 72.0708 237.61 72.258 237.229 72.5803C236.848 72.9025 236.584 73.3417 236.479 73.8294C234.775 79.734 229.977 99.2424 234.866 118.218C238.385 132.207 239.978 146.612 239.6 161.032C239.6 161.032 233.098 194.313 236.154 203.079C239.209 211.845 246.933 195.978 247.128 193.793C247.752 186.939 254.93 144.788 251.861 138.077L245.555 112.768C245.464 112.404 245.776 112.079 246.049 112.261C248.208 113.718 254.371 118.087 257.375 122.496Z" fill="white"/>
<path d="M322.741 73.4652C322.703 72.7779 322.922 72.101 323.354 71.5654C323.786 71.0297 324.402 70.6733 325.081 70.565C326.541 70.3547 328.03 70.5157 329.411 71.0332C331.102 72.0476 333.429 76.8597 334.898 89.241C336.368 101.622 338.487 125.943 341.231 127.464C343.194 128.544 348.461 128.466 351.334 128.336C351.946 128.335 352.543 128.524 353.042 128.879C353.541 129.233 353.916 129.734 354.117 130.313C355.768 134.214 359.474 142.746 362.738 147.415C362.949 147.694 363.093 148.017 363.159 148.361C363.225 148.704 363.211 149.058 363.118 149.396C363.025 149.733 362.855 150.044 362.622 150.305C362.39 150.566 362.1 150.77 361.776 150.901C356.899 152.071 348.942 156.415 346.51 172.022C343.168 193.689 322.273 92.8566 322.741 73.4652Z" fill="white"/>
<path d="M53.085 124.616C52.0578 121.859 52.7859 103.807 44.9581 86.0285C44.6496 85.2601 44.4018 84.4687 44.217 83.6615C43.1767 79.4217 40.4071 66.221 44.8541 61.2139L39.4579 61.3179C39.4579 61.3179 37.2344 60.5766 34.2567 63.3078C29.6016 67.5086 22.9181 80.046 18.9261 116.553C18.9017 116.843 18.8495 117.131 18.7701 117.411C18.0289 120.22 13.6729 136.477 10.2011 143.422C7.61355 148.39 3.0625 157.013 0.370884 163.88C-0.929415 167.092 1.38512 170.708 4.27178 170.162L9.1609 169.251C9.47601 169.187 9.77122 169.048 10.0222 168.847C10.2731 168.646 10.4726 168.387 10.6042 168.094L22.2289 144.931C24.2834 140.834 28.4443 138.831 32.2152 140.379C34.4567 141.328 36.5226 142.646 38.3266 144.281C38.8888 144.802 39.3117 145.456 39.557 146.183C39.8022 146.91 39.862 147.687 39.7309 148.442C38.4306 156.467 34.3737 181.62 33.1384 185.873C32.1112 189.358 41.8764 192.609 48.1049 194.313C50.7055 195.002 53.085 192.726 53.137 189.579C53.3971 172.906 53.9302 126.905 53.085 124.616ZM31.396 114.901L33.9316 102.754L37.9625 115.239L31.396 114.901Z" fill="white"/>
<path d="M340.945 191.725C340.63 189.069 340.037 186.454 339.176 183.921C323.183 136.139 322.428 135.02 322.428 135.02C306.461 98.8908 303.652 76.4951 303.197 71.2929C303.183 70.9827 303.059 70.6876 302.847 70.461C302.635 70.2344 302.348 70.0912 302.04 70.0574H299.439C299.082 70.0817 298.745 70.2348 298.492 70.4882C298.238 70.7417 298.085 71.0784 298.061 71.436C296.817 78.7123 295.176 85.9151 293.146 93.0123C288.647 109.646 291.702 135.606 293.276 148.767C294.849 161.929 291.975 219.869 291.975 219.869C286.891 247.597 298.477 244.931 298.477 244.931C292.47 235.996 299.855 220.402 300.414 219.414C301.208 218.009 302.794 207.5 302.794 207.5L303.964 159.107L316.239 176.885C318.261 179.924 319.334 183.496 319.321 187.147C319.321 198.345 319.321 222.379 318.645 228.765C318.493 230.753 318.843 232.749 319.663 234.567C320.483 236.385 321.747 237.967 323.339 239.169C323.758 239.527 324.252 239.788 324.784 239.932C325.317 240.076 325.874 240.099 326.417 240.001C326.96 239.902 327.474 239.685 327.922 239.363C328.37 239.042 328.741 238.624 329.008 238.142C333.309 231.775 336.885 224.949 339.67 217.788C342.518 209.789 341.686 198.019 340.945 191.725ZM300.245 126.957L302.781 114.81L306.812 127.295L300.245 126.957Z" fill="white"/>
<path d="M164.105 71.9177C146.863 76.9249 142.832 92.2455 141.999 101.688C141.666 105.737 142.18 109.812 143.508 113.653C147.125 124.053 149.389 134.876 150.243 145.855L150.881 190.074C154.222 224.942 165.015 191.023 165.015 191.023C165.015 191.023 181.828 131.926 183.349 128.128C184.727 124.603 189.681 64.4915 164.105 71.9177ZM163.012 116.449C163.012 116.449 151.999 114.927 153.442 102.754C154.885 90.5808 161.699 90.3207 161.699 90.3207C161.699 90.3207 169.956 89.0201 171.659 102.507C173.363 115.994 163.012 116.449 163.012 116.449Z" fill="white"/>
<path d="M93.9919 101.57C93.7941 101.335 93.6499 101.06 93.569 100.763C93.4882 100.467 93.4728 100.156 93.5238 99.8534C94.447 95.0153 97.8668 74.4015 90.3511 68.4189C81.8081 61.63 67.7649 65.8178 67.7649 65.8178C67.7649 65.8178 63.773 65.5577 62.3556 80.1239C61.0553 93.4937 64.098 118.712 62.5377 125.722C62.2386 127.022 60.4182 155.751 60.4182 155.751C60.4246 155.799 60.4246 155.847 60.4182 155.895C60.2361 157.338 56.6343 186.315 60.6912 200.595C64.3971 213.6 72.654 224.343 74.4484 226.606C74.5668 226.772 74.7226 226.908 74.9033 227.003C75.084 227.098 75.2846 227.149 75.4886 227.152C77.3351 227.152 82.2242 225.448 82.4452 205.615C82.7053 181.151 83.3554 158.04 90.3641 147.922C97.1126 138.142 100.129 109.022 93.9919 101.57ZM74.4874 81.7496C79.8186 81.9577 81.535 81.1254 81.7171 86.9519C81.8991 92.7784 74.3054 90.4634 74.3054 90.4634L74.4874 81.7496ZM84.2657 121.716C82.0291 131.782 74.1883 131.106 74.1883 131.106L75.0335 114.667L80.3518 112.989C80.3518 112.989 86.5282 111.649 84.2917 121.716H84.2657Z" fill="white"/>
<path d="M223.827 120.194C222.191 117.945 221.504 115.142 221.916 112.391C223.32 102.129 225.582 77.9389 216.519 71.9823C214.545 70.5879 212.313 69.6006 209.953 69.0781C207.594 68.5556 205.153 68.5083 202.775 68.939C197.574 69.9404 193.569 74.6745 192.165 80.7091C190.539 87.7191 189.434 99.5542 192.23 118.1C196.924 149.314 203.711 187.134 201.683 213.834C201.047 220.616 202.983 227.388 207.105 232.81C214.907 242.499 225.478 251.889 221.187 224.564C214.686 182.881 212.41 194.976 213.152 168.549C213.815 145.373 207.43 129.597 205.844 126.06C205.701 125.708 205.844 125.305 206.221 125.305C209.797 125.305 213.022 127.776 214.53 131.652C217.131 138.272 220.563 148.832 220.446 157.338C220.251 170.786 221.565 200.361 223.801 209.36C226.038 218.36 232.708 181.815 232.214 179.109C231.72 176.404 241.017 142.928 223.827 120.194ZM202.593 103.703L202.853 89.1757C202.853 89.1757 213.49 84.9229 212.306 95.8996C212.345 95.8996 215.011 106.174 202.593 103.703Z" fill="white"/>
</svg>
