<svg width="83" height="20" fill="none" xmlns="http://www.w3.org/2000/svg"><g clip-path="url(#clip0)"><path d="M13.094 10.6c-.027-1.625.667-2.891 2.08-3.797-.797-1.172-1.972-1.831-3.525-1.979-.552-.052-1.258.08-2.117.4-.925.347-1.445.52-1.56.52-.244 0-.713-.146-1.407-.44-.692-.293-1.283-.44-1.771-.44a4.35 4.35 0 00-2.291.69A4.913 4.913 0 00.809 7.382C.269 8.342 0 9.488 0 10.82c0 1.199.198 2.398.596 3.598.372 1.146.848 2.151 1.425 3.017.513.786.964 1.359 1.348 1.719.552.56 1.117.826 1.695.799.372-.014.86-.154 1.463-.42a4.13 4.13 0 011.695-.38c.526 0 1.07.127 1.636.38.629.266 1.143.4 1.54.4.591-.027 1.143-.287 1.657-.78.179-.16.375-.38.587-.66.244-.325.478-.658.703-.998.187-.294.364-.594.53-.9.177-.33.335-.67.471-1.019.064-.146.121-.296.173-.45.051-.152.103-.309.154-.469a4.283 4.283 0 01-1.29-.9c-.846-.851-1.276-1.904-1.29-3.157zm13.962 3.563h-.093l-3.91-9.047h-3.071v14.597h2.676V10.26h.124l3.268 7.507h1.877l3.258-7.507h.124v9.454h2.707V5.116h-3.05l-3.91 9.047zM10.667 3.206c.68-.866 1.021-1.799 1.021-2.798v-.2c0-.067-.007-.133-.02-.2-.474.027-.978.18-1.511.46-.533.28-.972.633-1.32 1.059-.692.84-1.039 1.739-1.039 2.698v.19c0 .06.007.123.02.19 1.065.106 2.015-.36 2.849-1.4zm54.628 1.91h3.008v14.597h-3.008V5.116zm12.093 2.32c1.784 0 2.727 1.39 2.727 2.888H83v-.31c0-2.824-2.127-5.176-5.633-5.176-3.755 0-5.995 2.502-5.995 6.77v1.647c0 4.266 2.22 6.737 5.984 6.737 3.6 0 5.644-2.386 5.644-5.038v-.32h-2.884c0 1.508-.923 2.76-2.707 2.76-1.826 0-2.988-1.316-2.988-4.13V11.62c0-2.804 1.173-4.183 2.967-4.183zm-31.867 6.898c0 1.957-1.13 3.037-2.79 3.037-1.67 0-2.8-1.07-2.8-3.037V5.116h-2.988v9.646c0 3.112 2.178 5.23 5.787 5.23 3.6 0 5.788-2.118 5.788-5.23V5.116h-2.997v9.218zm12.95-3.123l-2.147-.491c-1.266-.268-1.93-.835-1.93-1.68 0-1.122.903-1.828 2.355-1.828 1.64 0 2.459.951 2.531 1.978h2.8c-.03-2.577-2.157-4.374-5.32-4.374-2.998 0-5.363 1.594-5.363 4.46 0 2.48 1.66 3.635 3.651 4.075l2.126.502c1.432.331 2.158.813 2.158 1.807 0 1.134-.892 1.904-2.562 1.904-1.795 0-2.739-.962-2.821-2.043h-2.884c.042 2.064 1.39 4.47 5.56 4.47 3.506 0 5.674-1.764 5.674-4.63 0-2.653-1.754-3.69-3.828-4.15z" fill="#fff"/></g><defs><clipPath id="clip0"><path fill="#fff" d="M0 0h83v20H0z"/></clipPath></defs></svg>