<svg width="179" height="21" fill="none" xmlns="http://www.w3.org/2000/svg"><path d="M6.54.66c.34 0 .6.11.78.33.2.22.3.53.3.93v17.82c0 .4-.11.71-.33.93-.22.22-.53.33-.93.33-.84 0-1.26-.42-1.26-1.26V4.44L2.49 6.87c-.28.28-.58.42-.9.42-.26 0-.5-.11-.72-.33-.24-.24-.36-.5-.36-.78 0-.32.15-.63.45-.93l4.02-3.96c.22-.22.45-.38.69-.48.24-.1.53-.15.87-.15zm15.68 0c2 0 3.47.48 4.41 1.44.96.94 1.44 2.4 1.44 4.38v8.97c0 1.88-.46 3.28-1.38 4.2-.9.9-2.29 1.35-4.17 1.35H18.8c-3.26 0-5.08-1.4-5.46-4.2-.06-.42.02-.74.24-.96.22-.24.54-.36.96-.36.76 0 1.2.41 1.32 1.23.12.66.4 1.12.84 1.38.44.26 1.14.39 2.1.39h3.72c.8 0 1.41-.09 1.83-.27.44-.18.75-.48.93-.9.18-.44.27-1.06.27-1.86v-2.49c-.78.94-1.89 1.41-3.33 1.41H19.1c-1.98 0-3.45-.48-4.41-1.44s-1.44-2.43-1.44-4.41V6.51c0-2 .48-3.47 1.44-4.41.96-.96 2.43-1.44 4.41-1.44h3.12zM19.1 3.18c-.88 0-1.56.1-2.04.3-.46.2-.79.54-.99 1.02-.2.48-.3 1.15-.3 2.01v2.01c0 .88.1 1.56.3 2.04.2.46.54.79 1.02.99.48.2 1.15.3 2.01.3h3.12c.88 0 1.55-.1 2.01-.3.48-.2.82-.53 1.02-.99.2-.48.3-1.15.3-2.01V6.48c0-.86-.1-1.52-.3-1.98-.2-.48-.54-.82-1.02-1.02-.46-.2-1.13-.3-2.01-.3H19.1zM42.316.66c2 0 3.47.48 4.41 1.44.96.94 1.44 2.4 1.44 4.38v8.97c0 1.88-.46 3.28-1.38 4.2-.9.9-2.29 1.35-4.17 1.35h-3.72c-3.26 0-5.08-1.4-5.46-4.2-.06-.42.02-.74.24-.96.22-.24.54-.36.96-.36.76 0 1.2.41 1.32 1.23.12.66.4 1.12.84 1.38.44.26 1.14.39 2.1.39h3.72c.8 0 1.41-.09 1.83-.27.44-.18.75-.48.93-.9.18-.44.27-1.06.27-1.86v-2.49c-.78.94-1.89 1.41-3.33 1.41h-3.12c-1.98 0-3.45-.48-4.41-1.44s-1.44-2.43-1.44-4.41V6.51c0-2 .48-3.47 1.44-4.41.96-.96 2.43-1.44 4.41-1.44h3.12zm-3.12 2.52c-.88 0-1.56.1-2.04.3-.46.2-.79.54-.99 1.02-.2.48-.3 1.15-.3 2.01v2.01c0 .88.1 1.56.3 2.04.2.46.54.79 1.02.99.48.2 1.15.3 2.01.3h3.12c.88 0 1.55-.1 2.01-.3.48-.2.82-.53 1.02-.99.2-.48.3-1.15.3-2.01V6.48c0-.86-.1-1.52-.3-1.98-.2-.48-.54-.82-1.02-1.02-.46-.2-1.13-.3-2.01-.3h-3.12zm26.848 7.26c1.68.94 2.52 2.52 2.52 4.74 0 1.98-.48 3.45-1.44 4.41-.94.94-2.41 1.41-4.41 1.41h-3.42c-2 0-3.48-.47-4.44-1.41-.94-.96-1.41-2.43-1.41-4.41 0-2.28.87-3.88 2.61-4.8-1.32-1-1.98-2.42-1.98-4.26 0-1.84.45-3.21 1.35-4.11.92-.9 2.32-1.35 4.2-1.35h2.91c1.88 0 3.27.45 4.17 1.35.92.9 1.38 2.27 1.38 4.11 0 1.94-.68 3.38-2.04 4.32zm-6.42-7.26c-.8 0-1.42.09-1.86.27-.42.18-.72.48-.9.9-.18.42-.27 1.01-.27 1.77 0 1.24.19 2.09.57 2.55.38.46 1.04.69 1.98.69l3.42.03c.84 0 1.47-.12 1.89-.36.44-.24.73-.59.87-1.05.16-.48.24-1.1.24-1.86s-.09-1.35-.27-1.77c-.18-.42-.49-.72-.93-.9-.42-.18-1.03-.27-1.83-.27h-2.91zm3.09 15.3c.88 0 1.55-.1 2.01-.3.48-.2.82-.53 1.02-.99.2-.48.3-1.15.3-2.01 0-.86-.1-1.52-.3-1.98-.2-.48-.54-.82-1.02-1.02-.46-.2-1.13-.3-2.01-.3h-3.42c-.88 0-1.56.1-2.04.3-.46.2-.79.54-.99 1.02-.2.46-.3 1.12-.3 1.98 0 .86.1 1.53.3 2.01.2.46.53.79.99.99.48.2 1.16.3 2.04.3h3.42zm21.484-4.53c-.28 0-.53-.1-.75-.3-.2-.22-.3-.47-.3-.75s.1-.52.3-.72c.22-.22.47-.33.75-.33h8.28c.28 0 .52.11.72.33.22.2.33.44.33.72 0 .28-.11.53-.33.75-.2.2-.44.3-.72.3h-8.28zM108.383 21c-.42 0-.74-.1-.96-.3-.22-.22-.33-.54-.33-.96 0-1.64.33-3.01.99-4.11.66-1.12 1.39-1.97 2.19-2.55.8-.58 1.9-1.27 3.3-2.07 1.46-.82 2.48-1.42 3.06-1.8.6-.4 1.07-.83 1.41-1.29.36-.48.54-1.05.54-1.71 0-.8-.09-1.41-.27-1.83-.18-.44-.49-.75-.93-.93-.42-.18-1.03-.27-1.83-.27h-3.21c-.96 0-1.66.13-2.1.39-.44.26-.72.72-.84 1.38-.08.42-.22.73-.42.93-.2.2-.5.3-.9.3-.42 0-.74-.11-.96-.33-.22-.24-.31-.57-.27-.99.22-1.42.78-2.47 1.68-3.15.9-.7 2.17-1.05 3.81-1.05h3.21c1.88 0 3.27.46 4.17 1.38.92.9 1.38 2.29 1.38 4.17 0 1.12-.28 2.09-.84 2.91-.54.8-1.2 1.46-1.98 1.98s-1.94 1.22-3.48 2.1c-1.16.66-2.03 1.19-2.61 1.59-.56.38-1.08.88-1.56 1.5-.48.6-.79 1.33-.93 2.19h9.9c.4 0 .71.11.93.33.22.22.33.53.33.93s-.11.71-.33.93c-.22.22-.53.33-.93.33h-11.22zm23.706-.03c-2.3 0-4-.54-5.1-1.62-1.08-1.1-1.62-2.8-1.62-5.1V7.32c0-2.32.54-4.02 1.62-5.1 1.1-1.08 2.8-1.61 5.1-1.59h1.8c2.3 0 3.99.55 5.07 1.65 1.1 1.08 1.65 2.77 1.65 5.07v6.9c0 2.3-.55 4-1.65 5.1-1.08 1.08-2.77 1.62-5.07 1.62h-1.8zm1.8-2.52c1.08 0 1.92-.13 2.52-.39.6-.26 1.03-.69 1.29-1.29.26-.6.39-1.44.39-2.52v-6.9c0-1.1-.13-1.94-.39-2.52-.26-.6-.69-1.03-1.29-1.29-.58-.26-1.42-.39-2.52-.39h-1.8c-1.08-.02-1.92.1-2.52.36-.6.24-1.03.66-1.29 1.26s-.39 1.45-.39 2.55v6.93c0 1.08.13 1.92.39 2.52.26.6.69 1.03 1.29 1.29.6.26 1.44.39 2.52.39h1.8zm-1.44-6.18c-.38 0-.68-.1-.9-.3-.2-.22-.3-.52-.3-.9v-.75c0-.38.1-.67.3-.87.22-.2.52-.3.9-.3h.72c.76 0 1.14.39 1.14 1.17v.75c0 .38-.1.68-.3.9-.18.2-.46.3-.84.3h-.72zM146.146 21c-.42 0-.74-.1-.96-.3-.22-.22-.33-.54-.33-.96 0-1.64.33-3.01.99-4.11.66-1.12 1.39-1.97 2.19-2.55.8-.58 1.9-1.27 3.3-2.07 1.46-.82 2.48-1.42 3.06-1.8.6-.4 1.07-.83 1.41-1.29.36-.48.54-1.05.54-1.71 0-.8-.09-1.41-.27-1.83-.18-.44-.49-.75-.93-.93-.42-.18-1.03-.27-1.83-.27h-3.21c-.96 0-1.66.13-2.1.39-.44.26-.72.72-.84 1.38-.08.42-.22.73-.42.93-.2.2-.5.3-.9.3-.42 0-.74-.11-.96-.33-.22-.24-.31-.57-.27-.99.22-1.42.78-2.47 1.68-3.15.9-.7 2.17-1.05 3.81-1.05h3.21c1.88 0 3.27.46 4.17 1.38.92.9 1.38 2.29 1.38 4.17 0 1.12-.28 2.09-.84 2.91-.54.8-1.2 1.46-1.98 1.98s-1.94 1.22-3.48 2.1c-1.16.66-2.03 1.19-2.61 1.59-.56.38-1.08.88-1.56 1.5-.48.6-.79 1.33-.93 2.19h9.9c.4 0 .71.11.93.33.22.22.33.53.33.93s-.11.71-.33.93c-.22.22-.53.33-.93.33h-11.22zm23.706-.03c-2.3 0-4-.54-5.1-1.62-1.08-1.1-1.62-2.8-1.62-5.1V7.32c0-2.32.54-4.02 1.62-5.1 1.1-1.08 2.8-1.61 5.1-1.59h1.8c2.3 0 3.99.55 5.07 1.65 1.1 1.08 1.65 2.77 1.65 5.07v6.9c0 2.3-.55 4-1.65 5.1-1.08 1.08-2.77 1.62-5.07 1.62h-1.8zm1.8-2.52c1.08 0 1.92-.13 2.52-.39.6-.26 1.03-.69 1.29-1.29.26-.6.39-1.44.39-2.52v-6.9c0-1.1-.13-1.94-.39-2.52-.26-.6-.69-1.03-1.29-1.29-.58-.26-1.42-.39-2.52-.39h-1.8c-1.08-.02-1.92.1-2.52.36-.6.24-1.03.66-1.29 1.26s-.39 1.45-.39 2.55v6.93c0 1.08.13 1.92.39 2.52.26.6.69 1.03 1.29 1.29.6.26 1.44.39 2.52.39h1.8zm-1.44-6.18c-.38 0-.68-.1-.9-.3-.2-.22-.3-.52-.3-.9v-.75c0-.38.1-.67.3-.87.22-.2.52-.3.9-.3h.72c.76 0 1.14.39 1.14 1.17v.75c0 .38-.1.68-.3.9-.18.2-.46.3-.84.3h-.72z" fill="#FFC045"/></svg>