<svg width="163" height="25" viewBox="0 0 163 25" fill="none" xmlns="http://www.w3.org/2000/svg">
<path d="M10.3486 23V24H11.3486V23H10.3486ZM6.11523 23H5.11523V24H6.11523V23ZM6.11523 6.68164H7.11523V5.3245L5.81902 5.72652L6.11523 6.68164ZM1.06152 8.24902H0.0615234V9.60616L1.35774 9.20414L1.06152 8.24902ZM1.06152 4.80664L0.724304 3.86522L0.0615234 4.10263V4.80664H1.06152ZM9.89453 1.64258V0.642578H9.72083L9.55731 0.701155L9.89453 1.64258ZM10.3486 1.64258H11.3486V0.642578H10.3486V1.64258ZM10.3486 22H6.11523V24H10.3486V22ZM7.11523 23V6.68164H5.11523V23H7.11523ZM5.81902 5.72652L0.765305 7.29391L1.35774 9.20414L6.41145 7.63676L5.81902 5.72652ZM2.06152 8.24902V4.80664H0.0615234V8.24902H2.06152ZM1.39874 5.74806L10.2318 2.584L9.55731 0.701155L0.724304 3.86522L1.39874 5.74806ZM9.89453 2.64258H10.3486V0.642578H9.89453V2.64258ZM9.34863 1.64258V23H11.3486V1.64258H9.34863ZM27.1943 14.4746L28.1901 14.5662L28.4401 11.8492L26.4936 13.7612L27.1943 14.4746ZM18.8008 14.167L18.0471 14.8243L18.0496 14.8271L18.8008 14.167ZM18.0098 5.08496L17.1244 4.62012L17.1229 4.6229L18.0098 5.08496ZM20.5732 2.36035L21.0809 3.22191L21.0866 3.21852L20.5732 2.36035ZM30.5635 5.46582L31.4722 5.04847L30.5635 5.46582ZM31.4863 9.99219H32.4863L32.4863 9.98644L31.4863 9.99219ZM21.3203 23.1904L21.3344 24.1903L21.3484 24.1901L21.3624 24.1895L21.3203 23.1904ZM20.2803 23.2051H19.2803V24.2193L20.2944 24.205L20.2803 23.2051ZM20.2803 19.6748L20.2646 18.6749L19.2803 18.6903V19.6748H20.2803ZM21.2178 19.6602L21.2334 20.66L21.2481 20.6598L21.2628 20.6591L21.2178 19.6602ZM26.125 12.3359L25.5483 11.5189L25.5407 11.5244L26.125 12.3359ZM27.2529 11.0615L28.1438 11.5157L28.2529 11.3017V11.0615H27.2529ZM22.1406 5.96387L22.9565 6.54218L22.9599 6.53733L22.1406 5.96387ZM22.1113 11.75L21.2926 12.3242L21.2969 12.3303L21.3012 12.3363L22.1113 11.75ZM26.4936 13.7612C25.5669 14.6715 24.5257 15.1006 23.3271 15.1006V17.1006C25.0778 17.1006 26.6148 16.4457 27.8951 15.188L26.4936 13.7612ZM23.3271 15.1006C21.6983 15.1006 20.4749 14.5571 19.5519 13.5069L18.0496 14.8271C19.3923 16.355 21.1865 17.1006 23.3271 17.1006V15.1006ZM19.5544 13.5097C18.6202 12.4386 18.1016 10.9468 18.1016 8.92285H16.1016C16.1016 11.2935 16.7157 13.2977 18.0471 14.8243L19.5544 13.5097ZM18.1016 8.92285C18.1016 7.67638 18.3703 6.55712 18.8966 5.54702L17.1229 4.6229C16.4382 5.93702 16.1016 7.37635 16.1016 8.92285H18.1016ZM18.8952 5.5498C19.4277 4.53537 20.1546 3.76779 21.0809 3.22189L20.0656 1.49881C18.8044 2.24198 17.8223 3.2908 17.1244 4.62013L18.8952 5.5498ZM21.0866 3.21852C22.0139 2.6638 23.0646 2.37891 24.2646 2.37891V0.378906C22.7303 0.378906 21.3201 0.748309 20.0599 1.50218L21.0866 3.21852ZM24.2646 2.37891C25.4954 2.37891 26.5546 2.68381 27.4739 3.27477L28.5554 1.59242C27.2872 0.777126 25.8464 0.378906 24.2646 0.378906V2.37891ZM27.4739 3.27477C28.3889 3.86296 29.1194 4.71758 29.6547 5.88317L31.4722 5.04847C30.7966 3.57734 29.8279 2.41047 28.5554 1.59242L27.4739 3.27477ZM29.6547 5.88317C30.1916 7.05212 30.4773 8.41673 30.4863 9.99793L32.4863 9.98644C32.4759 8.16921 32.1463 6.51624 31.4722 5.04847L29.6547 5.88317ZM30.4863 9.99219V11.5596H32.4863V9.99219H30.4863ZM30.4863 11.5596C30.4863 14.9514 29.6449 17.4844 28.0806 19.282L29.5893 20.5949C31.5602 18.3301 32.4863 15.2771 32.4863 11.5596H30.4863ZM28.0806 19.282C26.5296 21.0643 24.3067 22.0636 21.2782 22.1913L21.3624 24.1895C24.8183 24.0438 27.6051 22.8751 29.5893 20.5949L28.0806 19.282ZM21.3062 22.1905L20.2662 22.2052L20.2944 24.205L21.3344 24.1903L21.3062 22.1905ZM21.2803 23.2051V19.6748H19.2803V23.2051H21.2803ZM20.2959 20.6747L21.2334 20.66L21.2021 18.6603L20.2646 18.6749L20.2959 20.6747ZM21.2628 20.6591C23.2408 20.5699 24.9059 20.0553 26.1285 18.9946C27.3656 17.9212 28.0214 16.4004 28.1901 14.5662L26.1985 14.383C26.0645 15.8398 25.5728 16.8288 24.8178 17.4839C24.0482 18.1517 22.8764 18.5843 21.1727 18.6612L21.2628 20.6591ZM24.3672 13.8633C25.2308 13.8633 26.0282 13.6379 26.7093 13.1475L25.5407 11.5244C25.2452 11.7371 24.8708 11.8633 24.3672 11.8633V13.8633ZM26.7017 13.1529C27.3201 12.7164 27.8097 12.1712 28.1438 11.5157L26.362 10.6073C26.1884 10.9479 25.926 11.2524 25.5483 11.519L26.7017 13.1529ZM28.2529 11.0615V9.31836H26.2529V11.0615H28.2529ZM28.2529 9.31836C28.2529 7.77411 27.9617 6.43173 27.2552 5.40983L25.6101 6.5472C25.9973 7.10733 26.2529 7.99152 26.2529 9.31836H28.2529ZM27.2552 5.40983C26.5321 4.36398 25.4998 3.79199 24.2354 3.79199V5.79199C24.8068 5.79199 25.2394 6.01102 25.6101 6.5472L27.2552 5.40983ZM24.2354 3.79199C23.0156 3.79199 22.0288 4.37987 21.3214 5.3904L22.9599 6.53733C23.3462 5.98537 23.7559 5.79199 24.2354 5.79199V3.79199ZM21.3248 5.38556C20.6321 6.36283 20.3203 7.54996 20.3203 8.87891H22.3203C22.3203 7.8641 22.5554 7.10788 22.9565 6.54217L21.3248 5.38556ZM20.3203 8.87891C20.3203 10.1918 20.6194 11.3642 21.2926 12.3242L22.9301 11.1758C22.5486 10.6319 22.3203 9.89023 22.3203 8.87891H20.3203ZM21.3012 12.3363C22.0383 13.3547 23.1005 13.8633 24.3672 13.8633V11.8633C23.7003 11.8633 23.2586 11.6296 22.9214 11.1637L21.3012 12.3363ZM44.4209 14.4746L45.4167 14.5662L45.6666 11.8492L43.7201 13.7612L44.4209 14.4746ZM36.0273 14.167L35.2737 14.8243L35.2762 14.8271L36.0273 14.167ZM35.2363 5.08496L34.3509 4.62012L34.3495 4.6229L35.2363 5.08496ZM37.7998 2.36035L38.3075 3.22191L38.3132 3.21852L37.7998 2.36035ZM47.79 5.46582L48.6988 5.04847L47.79 5.46582ZM48.7129 9.99219H49.7129L49.7129 9.98644L48.7129 9.99219ZM38.5469 23.1904L38.561 24.1903L38.575 24.1901L38.589 24.1895L38.5469 23.1904ZM37.5068 23.2051H36.5068V24.2193L37.5209 24.205L37.5068 23.2051ZM37.5068 19.6748L37.4912 18.6749L36.5068 18.6903V19.6748H37.5068ZM38.4443 19.6602L38.46 20.66L38.4747 20.6598L38.4894 20.6591L38.4443 19.6602ZM43.3516 12.3359L42.7749 11.5189L42.7673 11.5244L43.3516 12.3359ZM44.4795 11.0615L45.3704 11.5157L45.4795 11.3017V11.0615H44.4795ZM39.3672 5.96387L40.183 6.54218L40.1864 6.53733L39.3672 5.96387ZM39.3379 11.75L38.5192 12.3242L38.5234 12.3303L38.5278 12.3363L39.3379 11.75ZM43.7201 13.7612C42.7934 14.6715 41.7523 15.1006 40.5537 15.1006V17.1006C42.3044 17.1006 43.8413 16.4457 45.1217 15.188L43.7201 13.7612ZM40.5537 15.1006C38.9248 15.1006 37.7015 14.5571 36.7785 13.5069L35.2762 14.8271C36.6189 16.355 38.4131 17.1006 40.5537 17.1006V15.1006ZM36.781 13.5097C35.8468 12.4386 35.3281 10.9468 35.3281 8.92285H33.3281C33.3281 11.2935 33.9423 13.2977 35.2737 14.8243L36.781 13.5097ZM35.3281 8.92285C35.3281 7.67638 35.5969 6.55712 36.1232 5.54702L34.3495 4.6229C33.6648 5.93702 33.3281 7.37635 33.3281 8.92285H35.3281ZM36.1217 5.5498C36.6543 4.53537 37.3811 3.76779 38.3075 3.22189L37.2921 1.49881C36.031 2.24198 35.0488 3.2908 34.3509 4.62013L36.1217 5.5498ZM38.3132 3.21852C39.2405 2.6638 40.2912 2.37891 41.4912 2.37891V0.378906C39.9569 0.378906 38.5466 0.748309 37.2864 1.50218L38.3132 3.21852ZM41.4912 2.37891C42.722 2.37891 43.7812 2.68381 44.7005 3.27477L45.782 1.59242C44.5137 0.777126 43.0729 0.378906 41.4912 0.378906V2.37891ZM44.7005 3.27477C45.6154 3.86296 46.346 4.71758 46.8813 5.88317L48.6988 5.04847C48.0232 3.57734 47.0545 2.41047 45.782 1.59242L44.7005 3.27477ZM46.8813 5.88317C47.4181 7.05212 47.7038 8.41673 47.7129 9.99793L49.7129 9.98644C49.7024 8.16921 49.3729 6.51624 48.6988 5.04847L46.8813 5.88317ZM47.7129 9.99219V11.5596H49.7129V9.99219H47.7129ZM47.7129 11.5596C47.7129 14.9514 46.8715 17.4844 45.3072 19.282L46.8159 20.5949C48.7867 18.3301 49.7129 15.2771 49.7129 11.5596H47.7129ZM45.3072 19.282C43.7562 21.0643 41.5332 22.0636 38.5047 22.1913L38.589 24.1895C42.0449 24.0438 44.8317 22.8751 46.8159 20.5949L45.3072 19.282ZM38.5328 22.1905L37.4928 22.2052L37.5209 24.205L38.561 24.1903L38.5328 22.1905ZM38.5068 23.2051V19.6748H36.5068V23.2051H38.5068ZM37.5225 20.6747L38.46 20.66L38.4287 18.6603L37.4912 18.6749L37.5225 20.6747ZM38.4894 20.6591C40.4674 20.5699 42.1325 20.0553 43.3551 18.9946C44.5922 17.9212 45.248 16.4004 45.4167 14.5662L43.4251 14.383C43.2911 15.8398 42.7994 16.8288 42.0444 17.4839C41.2747 18.1517 40.1029 18.5843 38.3993 18.6612L38.4894 20.6591ZM41.5938 13.8633C42.4573 13.8633 43.2548 13.6379 43.9359 13.1475L42.7673 11.5244C42.4718 11.7371 42.0974 11.8633 41.5938 11.8633V13.8633ZM43.9283 13.1529C44.5467 12.7164 45.0362 12.1712 45.3704 11.5157L43.5886 10.6073C43.4149 10.9479 43.1526 11.2524 42.7749 11.519L43.9283 13.1529ZM45.4795 11.0615V9.31836H43.4795V11.0615H45.4795ZM45.4795 9.31836C45.4795 7.77411 45.1882 6.43173 44.4817 5.40983L42.8366 6.5472C43.2239 7.10733 43.4795 7.99152 43.4795 9.31836H45.4795ZM44.4817 5.40983C43.7587 4.36398 42.7264 3.79199 41.4619 3.79199V5.79199C42.0334 5.79199 42.4659 6.01102 42.8366 6.5472L44.4817 5.40983ZM41.4619 3.79199C40.2422 3.79199 39.2553 4.37987 38.548 5.3904L40.1864 6.53733C40.5728 5.98537 40.9825 5.79199 41.4619 5.79199V3.79199ZM38.5514 5.38556C37.8586 6.36283 37.5469 7.54996 37.5469 8.87891H39.5469C39.5469 7.8641 39.782 7.10788 40.183 6.54217L38.5514 5.38556ZM37.5469 8.87891C37.5469 10.1918 37.8459 11.3642 38.5192 12.3242L40.1566 11.1758C39.7752 10.6319 39.5469 9.89023 39.5469 8.87891H37.5469ZM38.5278 12.3363C39.2648 13.3547 40.327 13.8633 41.5938 13.8633V11.8633C40.9269 11.8633 40.4852 11.6296 40.148 11.1637L38.5278 12.3363ZM64.8701 10.0947L65.71 10.6376L64.8701 10.0947ZM62.7314 12.0137L62.2653 11.129L60.5092 12.0542L62.2979 12.9148L62.7314 12.0137ZM65.1924 14.0791L64.3689 14.6464L64.3719 14.6507L65.1924 14.0791ZM64.167 21.6523L64.814 22.4149L64.8173 22.412L64.167 21.6523ZM55.041 12.0137L55.4709 12.9165L57.2721 12.0589L55.5072 11.129L55.041 12.0137ZM52.9023 10.0947L52.0578 10.6303L52.0625 10.6376L52.9023 10.0947ZM53.957 3.00488L54.6207 3.75296L54.624 3.74997L53.957 3.00488ZM63.8154 2.99023L63.1518 3.73834L63.1582 3.74393L63.8154 2.99023ZM56.7256 14.6211L57.4391 15.3218L57.4452 15.3155L56.7256 14.6211ZM61.0615 19.0742L60.3479 18.3736L60.3414 18.3803L61.0615 19.0742ZM60.7539 5.55371L59.9977 6.20812L60.0041 6.21533L60.7539 5.55371ZM60.7539 9.59668L59.9916 8.94941L59.9845 8.95792L60.7539 9.59668ZM64.6465 7.34082C64.6465 8.20058 64.4344 8.92672 64.0303 9.5519L65.71 10.6376C66.341 9.66117 66.6465 8.55138 66.6465 7.34082H64.6465ZM64.0303 9.5519C63.613 10.1976 63.0337 10.7241 62.2653 11.129L63.1976 12.8984C64.2456 12.3462 65.0921 11.5935 65.71 10.6376L64.0303 9.5519ZM62.2979 12.9148C63.1886 13.3433 63.8696 13.9217 64.3689 14.6464L66.0159 13.5118C65.3042 12.4787 64.3446 11.6801 63.165 11.1125L62.2979 12.9148ZM64.3719 14.6507C64.8472 15.333 65.1006 16.1534 65.1006 17.1553H67.1006C67.1006 15.7939 66.7485 14.5635 66.0129 13.5075L64.3719 14.6507ZM65.1006 17.1553C65.1006 18.7959 64.5564 20.0027 63.5167 20.8927L64.8173 22.412C66.3558 21.095 67.1006 19.3038 67.1006 17.1553H65.1006ZM63.52 20.8898C62.4615 21.7879 60.9629 22.293 58.9082 22.293V24.293C61.2871 24.293 63.2943 23.7042 64.814 22.4149L63.52 20.8898ZM58.9082 22.293C56.856 22.293 55.3518 21.7843 54.2822 20.8756L52.9873 22.3998C54.5154 23.6981 56.5268 24.293 58.9082 24.293V22.293ZM54.2822 20.8756C53.2324 19.9837 52.6865 18.7816 52.6865 17.1553H50.6865C50.6865 19.2985 51.4395 21.0847 52.9873 22.3998L54.2822 20.8756ZM52.6865 17.1553C52.6865 16.1536 52.9399 15.3261 53.4182 14.6318L51.7712 13.4971C51.0386 14.5606 50.6865 15.7937 50.6865 17.1553H52.6865ZM53.4182 14.6318C53.9178 13.9066 54.5934 13.3344 55.4709 12.9165L54.6111 11.1108C53.4379 11.6695 52.4826 12.4645 51.7712 13.4971L53.4182 14.6318ZM55.5072 11.129C54.7388 10.7241 54.1595 10.1976 53.7422 9.5519L52.0625 10.6376C52.6803 11.5935 53.5268 12.3462 54.5749 12.8984L55.5072 11.129ZM53.7469 9.55918C53.3499 8.93316 53.1406 8.20438 53.1406 7.34082H51.1406C51.1406 8.54757 51.4392 9.65474 52.0578 10.6303L53.7469 9.55918ZM53.1406 7.34082C53.1406 5.7715 53.6511 4.61302 54.6207 3.75296L53.2934 2.25681C51.8411 3.54519 51.1406 5.27733 51.1406 7.34082H53.1406ZM54.624 3.74997C55.6048 2.87202 56.9886 2.37891 58.8936 2.37891V0.378906C56.6384 0.378906 54.7312 0.969781 53.2901 2.2598L54.624 3.74997ZM58.8936 2.37891C60.7896 2.37891 62.1703 2.86764 63.1518 3.73831L64.479 2.24216C63.0387 0.964396 61.1382 0.378906 58.8936 0.378906V2.37891ZM63.1582 3.74393C64.1307 4.59194 64.6465 5.75085 64.6465 7.34082H66.6465C66.6465 5.25891 65.9416 3.51744 64.4727 2.23654L63.1582 3.74393ZM62.8525 16.8477C62.8525 15.7159 62.5183 14.7059 61.7665 13.9267L60.3273 15.3155C60.6496 15.6496 60.8525 16.124 60.8525 16.8477H62.8525ZM61.7665 13.9267C61.0081 13.1408 60.0073 12.7861 58.8789 12.7861V14.7861C59.5669 14.7861 60.0114 14.9882 60.3273 15.3155L61.7665 13.9267ZM58.8789 12.7861C57.7567 12.7861 56.7622 13.1429 56.006 13.9267L57.4452 15.3155C57.7632 14.986 58.2042 14.7861 58.8789 14.7861V12.7861ZM56.0121 13.9204C55.2521 14.6943 54.9199 15.7101 54.9199 16.8477H56.9199C56.9199 16.1102 57.1249 15.6417 57.439 15.3218L56.0121 13.9204ZM54.9199 16.8477C54.9199 17.9614 55.2499 18.9567 55.985 19.7327L57.4369 18.3572C57.1173 18.0198 56.9199 17.5503 56.9199 16.8477H54.9199ZM55.985 19.7327C56.742 20.5317 57.7617 20.8799 58.9082 20.8799V18.8799C58.1797 18.8799 57.7346 18.6714 57.4369 18.3572L55.985 19.7327ZM58.9082 20.8799C60.0309 20.8799 61.0337 20.5443 61.7816 19.7681L60.3414 18.3803C60.0542 18.6784 59.6214 18.8799 58.9082 18.8799V20.8799ZM61.7751 19.7748C62.5305 19.0054 62.8525 17.9858 62.8525 16.8477H60.8525C60.8525 17.6041 60.6472 18.0688 60.348 18.3736L61.7751 19.7748ZM62.4131 7.5459C62.4131 6.53526 62.1418 5.61517 61.5037 4.89209L60.0041 6.21533C60.245 6.48834 60.4131 6.89638 60.4131 7.5459H62.4131ZM61.5101 4.89933C60.8439 4.12954 59.9233 3.79199 58.8936 3.79199V5.79199C59.4654 5.79199 59.785 5.96226 59.9977 6.20809L61.5101 4.89933ZM58.8936 3.79199C57.882 3.79199 56.972 4.11381 56.3046 4.85545L57.7912 6.19338C58.0026 5.95845 58.3231 5.79199 58.8936 5.79199V3.79199ZM56.3046 4.85545C55.6542 5.57805 55.3887 6.51744 55.3887 7.5459H57.3887C57.3887 6.85561 57.5626 6.44734 57.7912 6.19338L56.3046 4.85545ZM55.3887 7.5459C55.3887 8.57118 55.6571 9.50371 56.2856 10.2439L57.8102 8.94945C57.5597 8.65449 57.3887 8.21984 57.3887 7.5459H55.3887ZM56.2856 10.2439C56.9497 11.0261 57.8721 11.373 58.9082 11.373V9.37305C58.3428 9.37305 58.0249 9.20237 57.8102 8.94945L56.2856 10.2439ZM58.9082 11.373C59.9437 11.373 60.8669 11.0261 61.5233 10.2354L59.9845 8.95792C59.7815 9.20245 59.4742 9.37305 58.9082 9.37305V11.373ZM61.5162 10.2439C62.1447 9.50371 62.4131 8.57118 62.4131 7.5459H60.4131C60.4131 8.21984 60.2421 8.65449 59.9916 8.94945L61.5162 10.2439ZM84.8506 15.5732V16.5732H85.8506V15.5732H84.8506ZM76.6035 15.5732H75.6035V16.5732H76.6035V15.5732ZM76.6035 12.1602V11.1602H75.6035V12.1602H76.6035ZM84.8506 12.1602H85.8506V11.1602H84.8506V12.1602ZM84.8506 14.5732H76.6035V16.5732H84.8506V14.5732ZM77.6035 15.5732V12.1602H75.6035V15.5732H77.6035ZM76.6035 13.1602H84.8506V11.1602H76.6035V13.1602ZM83.8506 12.1602V15.5732H85.8506V12.1602H83.8506ZM110.163 23V24H111.163V23H110.163ZM95.5439 23H94.5439V24H95.5439V23ZM95.5439 20.0996L94.8147 19.4154L94.5439 19.7039V20.0996H95.5439ZM102.443 12.7461L103.173 13.4304L103.181 13.4212L102.443 12.7461ZM104.538 10.0361L103.679 9.52482L103.674 9.53294L104.538 10.0361ZM104.509 5.6123L103.756 6.27084L103.762 6.27751L104.509 5.6123ZM100.188 5.78809L99.4211 5.14569L99.4202 5.14678L100.188 5.78809ZM99.3672 8.38086V9.38086H100.367V8.38086H99.3672ZM95.1191 8.38086H94.1191V9.38086H95.1191V8.38086ZM96.042 4.82129L95.1776 4.31838L95.1742 4.3243L96.042 4.82129ZM98.6787 2.30176L99.1501 3.18371L99.156 3.18052L98.6787 2.30176ZM107.644 2.96094L106.987 3.71502L106.99 3.71762L107.644 2.96094ZM108.654 10.6514L109.549 11.0986L108.654 10.6514ZM105.842 14.4746L106.567 15.1628L106.574 15.1558L106.58 15.1488L105.842 14.4746ZM100.993 19.5869L100.268 18.8988L98.6665 20.5869H100.993V19.5869ZM110.163 19.5869H111.163V18.5869H110.163V19.5869ZM110.163 22H95.5439V24H110.163V22ZM96.5439 23V20.0996H94.5439V23H96.5439ZM96.2732 20.7838L103.173 13.4303L101.714 12.0619L94.8147 19.4154L96.2732 20.7838ZM103.181 13.4212C104.153 12.3596 104.903 11.397 105.402 10.5393L103.674 9.53294C103.275 10.2182 102.629 11.0623 101.706 12.071L103.181 13.4212ZM105.397 10.5474C105.922 9.6659 106.227 8.75787 106.227 7.83887H104.227C104.227 8.30658 104.072 8.8634 103.679 9.52484L105.397 10.5474ZM106.227 7.83887C106.227 6.72558 105.943 5.71899 105.255 4.9471L103.762 6.27751C104.031 6.57984 104.227 7.05763 104.227 7.83887H106.227ZM105.261 4.9538C104.551 4.14233 103.565 3.79199 102.458 3.79199V5.79199C103.128 5.79199 103.509 5.98853 103.756 6.27081L105.261 4.9538ZM102.458 3.79199C101.24 3.79199 100.189 4.22949 99.4211 5.14569L100.954 6.43048C101.299 6.01856 101.762 5.79199 102.458 5.79199V3.79199ZM99.4202 5.14678C98.6873 6.0237 98.3672 7.1347 98.3672 8.38086H100.367C100.367 7.47858 100.594 6.86106 100.955 6.4294L99.4202 5.14678ZM99.3672 7.38086H95.1191V9.38086H99.3672V7.38086ZM96.1191 8.38086C96.1191 7.24747 96.3855 6.23364 96.9097 5.31828L95.1742 4.3243C94.468 5.55738 94.1191 6.91659 94.1191 8.38086H96.1191ZM96.9063 5.32418C97.4348 4.41587 98.1751 3.70479 99.1501 3.18369L98.2073 1.41983C96.9167 2.10966 95.8992 3.07827 95.1776 4.3184L96.9063 5.32418ZM99.156 3.18052C100.126 2.65357 101.243 2.37891 102.531 2.37891V0.378906C100.948 0.378906 99.4968 0.719477 98.2014 1.423L99.156 3.18052ZM102.531 2.37891C104.576 2.37891 106.015 2.86903 106.987 3.71502L108.3 2.20686C106.85 0.943466 104.881 0.378906 102.531 0.378906V2.37891ZM106.99 3.71762C107.948 4.54556 108.475 5.73398 108.475 7.42871H110.475C110.475 5.27578 109.78 3.48569 108.297 2.20425L106.99 3.71762ZM108.475 7.42871C108.475 8.30516 108.248 9.22712 107.76 10.2042L109.549 11.0986C110.154 9.88812 110.475 8.66164 110.475 7.42871H108.475ZM107.76 10.2042C107.272 11.1809 106.402 12.3774 105.103 13.8005L106.58 15.1488C107.938 13.6617 108.943 12.3094 109.549 11.0986L107.76 10.2042ZM105.116 13.7865L100.268 18.8988L101.719 20.2751L106.567 15.1628L105.116 13.7865ZM100.993 20.5869H110.163V18.5869H100.993V20.5869ZM109.163 19.5869V23H111.163V19.5869H109.163ZM125.295 20.9492L126.083 21.5649L125.295 20.9492ZM112.712 14.4014H111.712L111.712 14.4116L112.712 14.4014ZM114.558 3.69336L113.778 3.06686L113.776 3.06987L114.558 3.69336ZM125.236 3.67871L124.456 4.30462L124.458 4.30705L125.236 3.67871ZM127.126 10.2559H128.126L128.126 10.2456L127.126 10.2559ZM122.16 6.02246L121.299 6.53084L121.303 6.53698L121.306 6.54307L122.16 6.02246ZM117.692 5.96387L116.843 5.43677L116.841 5.43977L117.692 5.96387ZM116.945 9.55273L115.945 9.53477L115.945 9.54375V9.55273H116.945ZM117.648 18.6201L116.773 19.1032L116.78 19.1152L117.648 18.6201ZM122.893 14.9434L123.893 14.9551V14.9434H122.893ZM126.126 14.1816C126.126 17.012 125.538 19.0144 124.507 20.3336L126.083 21.5649C127.494 19.7591 128.126 17.2498 128.126 14.1816H126.126ZM124.507 20.3336C123.512 21.6069 122.044 22.293 119.934 22.293V24.293C122.53 24.293 124.636 23.4166 126.083 21.5649L124.507 20.3336ZM119.934 22.293C117.851 22.293 116.387 21.6197 115.381 20.3673L113.822 21.6191C115.277 23.433 117.368 24.293 119.934 24.293V22.293ZM115.381 20.3673C114.343 19.0728 113.74 17.1271 113.712 14.3911L111.712 14.4116C111.743 17.3983 112.4 19.8472 113.822 21.6191L115.381 20.3673ZM113.712 14.4014V10.4756H111.712V14.4014H113.712ZM113.712 10.4756C113.712 7.61341 114.306 5.6124 115.339 4.31685L113.776 3.06987C112.348 4.86026 111.712 7.38073 111.712 10.4756H113.712ZM115.337 4.31986C116.353 3.05545 117.824 2.37891 119.904 2.37891V0.378906C117.336 0.378906 115.242 1.24533 113.778 3.06686L115.337 4.31986ZM119.904 2.37891C121.987 2.37891 123.451 3.05215 124.456 4.30462L126.016 3.0528C124.56 1.23887 122.47 0.378906 119.904 0.378906V2.37891ZM124.458 4.30705C125.495 5.59061 126.098 7.52957 126.126 10.2661L128.126 10.2456C128.095 7.2595 127.438 4.81368 126.014 3.05037L124.458 4.30705ZM126.126 10.2559V14.1816H128.126V10.2559H126.126ZM123.893 9.875C123.893 8.06077 123.65 6.54538 123.014 5.50185L121.306 6.54307C121.647 7.1011 121.893 8.15407 121.893 9.875H123.893ZM123.021 5.51408C122.344 4.36727 121.245 3.80664 119.904 3.80664V5.80664C120.614 5.80664 121.019 6.05655 121.299 6.53084L123.021 5.51408ZM119.904 3.80664C118.602 3.80664 117.524 4.33858 116.843 5.43677L118.542 6.49096C118.818 6.04618 119.214 5.80664 119.904 5.80664V3.80664ZM116.841 5.43977C116.229 6.43385 115.976 7.85084 115.945 9.53477L117.945 9.5707C117.973 7.99291 118.218 7.01732 118.544 6.48796L116.841 5.43977ZM115.945 9.55273V14.7383H117.945V9.55273H115.945ZM115.945 14.7383C115.945 16.531 116.181 18.0303 116.773 19.1032L118.524 18.137C118.178 17.5107 117.945 16.4221 117.945 14.7383H115.945ZM116.78 19.1152C117.453 20.2969 118.565 20.8799 119.934 20.8799V18.8799C119.212 18.8799 118.801 18.623 118.517 18.1251L116.78 19.1152ZM119.934 20.8799C121.28 20.8799 122.386 20.321 123.045 19.1568L121.305 18.1713C121.046 18.6282 120.657 18.8799 119.934 18.8799V20.8799ZM123.045 19.1568C123.63 18.1245 123.872 16.6792 123.893 14.9551L121.893 14.9317C121.874 16.5473 121.638 17.5825 121.305 18.1713L123.045 19.1568ZM123.893 14.9434V9.875H121.893V14.9434H123.893ZM144.616 23V24H145.616V23H144.616ZM129.997 23H128.997V24H129.997V23ZM129.997 20.0996L129.268 19.4154L128.997 19.7039V20.0996H129.997ZM136.896 12.7461L137.626 13.4304L137.634 13.4212L136.896 12.7461ZM138.991 10.0361L138.132 9.52482L138.127 9.53294L138.991 10.0361ZM138.962 5.6123L138.209 6.27084L138.215 6.27751L138.962 5.6123ZM134.641 5.78809L133.874 5.14569L133.873 5.14678L134.641 5.78809ZM133.82 8.38086V9.38086H134.82V8.38086H133.82ZM129.572 8.38086H128.572V9.38086H129.572V8.38086ZM130.495 4.82129L129.631 4.31838L129.627 4.3243L130.495 4.82129ZM133.132 2.30176L133.603 3.18371L133.609 3.18052L133.132 2.30176ZM142.097 2.96094L141.44 3.71502L141.443 3.71762L142.097 2.96094ZM143.107 10.6514L144.002 11.0986L143.107 10.6514ZM140.295 14.4746L141.02 15.1628L141.027 15.1558L141.034 15.1488L140.295 14.4746ZM135.446 19.5869L134.721 18.8988L133.12 20.5869H135.446V19.5869ZM144.616 19.5869H145.616V18.5869H144.616V19.5869ZM144.616 22H129.997V24H144.616V22ZM130.997 23V20.0996H128.997V23H130.997ZM130.726 20.7838L137.626 13.4303L136.167 12.0619L129.268 19.4154L130.726 20.7838ZM137.634 13.4212C138.606 12.3596 139.356 11.397 139.855 10.5393L138.127 9.53294C137.728 10.2182 137.082 11.0623 136.159 12.071L137.634 13.4212ZM139.851 10.5474C140.375 9.6659 140.68 8.75787 140.68 7.83887H138.68C138.68 8.30658 138.525 8.8634 138.132 9.52484L139.851 10.5474ZM140.68 7.83887C140.68 6.72558 140.396 5.71899 139.709 4.9471L138.215 6.27751C138.485 6.57984 138.68 7.05763 138.68 7.83887H140.68ZM139.714 4.9538C139.004 4.14233 138.018 3.79199 136.911 3.79199V5.79199C137.581 5.79199 137.962 5.98853 138.209 6.27081L139.714 4.9538ZM136.911 3.79199C135.693 3.79199 134.642 4.22949 133.874 5.14569L135.407 6.43048C135.752 6.01856 136.215 5.79199 136.911 5.79199V3.79199ZM133.873 5.14678C133.14 6.0237 132.82 7.1347 132.82 8.38086H134.82C134.82 7.47858 135.047 6.86106 135.408 6.4294L133.873 5.14678ZM133.82 7.38086H129.572V9.38086H133.82V7.38086ZM130.572 8.38086C130.572 7.24747 130.839 6.23364 131.363 5.31828L129.627 4.3243C128.921 5.55738 128.572 6.91659 128.572 8.38086H130.572ZM131.359 5.32418C131.888 4.41587 132.628 3.70479 133.603 3.18369L132.66 1.41983C131.37 2.10966 130.352 3.07827 129.631 4.3184L131.359 5.32418ZM133.609 3.18052C134.579 2.65357 135.696 2.37891 136.984 2.37891V0.378906C135.401 0.378906 133.95 0.719477 132.655 1.423L133.609 3.18052ZM136.984 2.37891C139.029 2.37891 140.469 2.86903 141.44 3.71502L142.753 2.20686C141.303 0.943466 139.334 0.378906 136.984 0.378906V2.37891ZM141.443 3.71762C142.401 4.54556 142.928 5.73398 142.928 7.42871H144.928C144.928 5.27578 144.234 3.48569 142.75 2.20425L141.443 3.71762ZM142.928 7.42871C142.928 8.30516 142.702 9.22712 142.213 10.2042L144.002 11.0986C144.607 9.88812 144.928 8.66164 144.928 7.42871H142.928ZM142.213 10.2042C141.725 11.1809 140.855 12.3774 139.556 13.8005L141.034 15.1488C142.391 13.6617 143.396 12.3094 144.002 11.0986L142.213 10.2042ZM139.569 13.7865L134.721 18.8988L136.172 20.2751L141.02 15.1628L139.569 13.7865ZM135.446 20.5869H144.616V18.5869H135.446V20.5869ZM143.616 19.5869V23H145.616V19.5869H143.616ZM159.748 20.9492L160.536 21.5649L159.748 20.9492ZM147.165 14.4014H146.165L146.165 14.4116L147.165 14.4014ZM149.011 3.69336L148.231 3.06686L148.229 3.06987L149.011 3.69336ZM159.689 3.67871L158.91 4.30462L158.911 4.30705L159.689 3.67871ZM161.579 10.2559H162.579L162.579 10.2456L161.579 10.2559ZM156.613 6.02246L155.752 6.53084L155.756 6.53698L155.759 6.54307L156.613 6.02246ZM152.146 5.96387L151.296 5.43677L151.294 5.43977L152.146 5.96387ZM151.398 9.55273L150.399 9.53477L150.398 9.54375V9.55273H151.398ZM152.102 18.6201L151.226 19.1032L151.233 19.1152L152.102 18.6201ZM157.346 14.9434L158.346 14.9551V14.9434H157.346ZM160.579 14.1816C160.579 17.012 159.991 19.0144 158.96 20.3336L160.536 21.5649C161.947 19.7591 162.579 17.2498 162.579 14.1816H160.579ZM158.96 20.3336C157.965 21.6069 156.497 22.293 154.387 22.293V24.293C156.984 24.293 159.089 23.4166 160.536 21.5649L158.96 20.3336ZM154.387 22.293C152.304 22.293 150.84 21.6197 149.835 20.3673L148.275 21.6191C149.731 23.433 151.821 24.293 154.387 24.293V22.293ZM149.835 20.3673C148.796 19.0728 148.193 17.1271 148.165 14.3911L146.165 14.4116C146.196 17.3983 146.853 19.8472 148.275 21.6191L149.835 20.3673ZM148.165 14.4014V10.4756H146.165V14.4014H148.165ZM148.165 10.4756C148.165 7.61341 148.759 5.6124 149.793 4.31685L148.229 3.06987C146.801 4.86026 146.165 7.38073 146.165 10.4756H148.165ZM149.79 4.31986C150.806 3.05545 152.277 2.37891 154.357 2.37891V0.378906C151.789 0.378906 149.695 1.24533 148.231 3.06686L149.79 4.31986ZM154.357 2.37891C156.44 2.37891 157.904 3.05215 158.91 4.30462L160.469 3.0528C159.014 1.23887 156.923 0.378906 154.357 0.378906V2.37891ZM158.911 4.30705C159.948 5.59061 160.551 7.52957 160.579 10.2661L162.579 10.2456C162.548 7.2595 161.892 4.81368 160.467 3.05037L158.911 4.30705ZM160.579 10.2559V14.1816H162.579V10.2559H160.579ZM158.346 9.875C158.346 8.06077 158.103 6.54538 157.467 5.50185L155.759 6.54307C156.1 7.1011 156.346 8.15407 156.346 9.875H158.346ZM157.474 5.51408C156.797 4.36727 155.698 3.80664 154.357 3.80664V5.80664C155.067 5.80664 155.472 6.05655 155.752 6.53084L157.474 5.51408ZM154.357 3.80664C153.056 3.80664 151.977 4.33858 151.296 5.43677L152.995 6.49096C153.271 6.04618 153.667 5.80664 154.357 5.80664V3.80664ZM151.294 5.43977C150.682 6.43385 150.429 7.85084 150.399 9.53477L152.398 9.5707C152.427 7.99291 152.671 7.01732 152.997 6.48796L151.294 5.43977ZM150.398 9.55273V14.7383H152.398V9.55273H150.398ZM150.398 14.7383C150.398 16.531 150.634 18.0303 151.226 19.1032L152.977 18.137C152.632 17.5107 152.398 16.4221 152.398 14.7383H150.398ZM151.233 19.1152C151.906 20.2969 153.018 20.8799 154.387 20.8799V18.8799C153.666 18.8799 153.254 18.623 152.97 18.1251L151.233 19.1152ZM154.387 20.8799C155.733 20.8799 156.839 20.321 157.498 19.1568L155.758 18.1713C155.499 18.6282 155.11 18.8799 154.387 18.8799V20.8799ZM157.498 19.1568C158.083 18.1245 158.325 16.6792 158.346 14.9551L156.346 14.9317C156.327 16.5473 156.091 17.5825 155.758 18.1713L157.498 19.1568ZM158.346 14.9434V9.875H156.346V14.9434H158.346Z" fill="#FFC045" fill-opacity="0.5"/>
</svg>
