<svg width="163" height="25" fill="none" xmlns="http://www.w3.org/2000/svg"><path d="M10.349 23v1h1v-1h-1zm-4.234 0h-1v1h1v-1zm0-16.318h1V5.324l-1.296.403.296.955zM1.062 8.249h-1v1.357l1.296-.402-.296-.955zm0-3.442l-.338-.942-.662.238v.704h1zm8.833-3.164v-1H9.72L9.557.7l.338.942zm.454 0h1v-1h-1v1zm0 20.357H6.115v2h4.234v-2zm-3.234 1V6.682h-2V23h2zM5.82 5.727L.765 7.294l.593 1.91L6.41 7.637l-.592-1.91zM2.062 8.249V4.807h-2v3.442h2zm-.663-2.5l8.833-3.165L9.557.701.724 3.865 1.4 5.748zm8.496-3.106h.454v-2h-.454v2zm-.546-1V23h2V1.643h-2zm17.845 12.832l.996.091.25-2.717-1.946 1.912.7.714zm-8.393-.308l-.754.657.003.003.75-.66zm-.791-9.082l-.886-.465-.001.003.887.462zm2.563-2.725l.508.862.006-.003-.514-.859zm9.99 3.106l.91-.418-.91.418zm.923 4.526h1v-.006l-1 .006zM21.32 23.19l.014 1h.028l-.042-1zm-1.04.015h-1v1.014l1.014-.014-.014-1zm0-3.53l-.015-1-.985.015v.985h1zm.938-.015l.015 1h.03l-.045-1zm4.907-7.324l-.577-.817-.007.005.584.812zm1.128-1.274l.89.454.11-.214v-.24h-1zM22.14 5.964l.816.578.003-.005-.82-.573zm-.03 5.786l-.818.574.004.006.004.006.81-.586zm4.383 2.011c-.927.91-1.968 1.34-3.167 1.34v2c1.75 0 3.288-.655 4.568-1.913l-1.401-1.427zm-3.167 1.34c-1.629 0-2.852-.544-3.775-1.594l-1.502 1.32c1.342 1.528 3.136 2.274 5.277 2.274v-2zm-3.773-1.591c-.934-1.071-1.452-2.563-1.452-4.587h-2c0 2.37.614 4.375 1.945 5.901l1.507-1.314zm-1.452-4.587c0-1.247.268-2.366.795-3.376l-1.774-.924c-.685 1.314-1.021 2.753-1.021 4.3h2zm.793-3.373c.533-1.015 1.26-1.782 2.186-2.328l-1.015-1.723c-1.262.743-2.244 1.792-2.942 3.121l1.771.93zm2.192-2.331c.927-.555 1.978-.84 3.178-.84v-2c-1.535 0-2.945.37-4.205 1.123l1.027 1.717zm3.178-.84c1.23 0 2.29.305 3.209.896l1.081-1.683C27.287.777 25.846.38 24.265.38v2zm3.209.896c.915.588 1.645 1.443 2.18 2.608l1.818-.835c-.675-1.47-1.644-2.638-2.917-3.456l-1.081 1.683zm2.18 2.608c.538 1.17.823 2.534.832 4.115l2-.012c-.01-1.817-.34-3.47-1.014-4.938l-1.817.835zm.832 4.11v1.567h2V9.992h-2zm0 1.567c0 3.391-.841 5.924-2.405 7.722l1.508 1.313c1.971-2.265 2.897-5.318 2.897-9.035h-2zm-2.405 7.722c-1.551 1.782-3.774 2.782-6.803 2.91l.084 1.997c3.456-.145 6.243-1.314 8.227-3.594l-1.508-1.313zm-6.775 2.909l-1.04.014.028 2 1.04-.015-.028-2zm-.026 1.014v-3.53h-2v3.53h2zm-.984-2.53l.937-.015-.03-2-.938.015.03 2zm.967-.016c1.978-.09 3.643-.604 4.865-1.664 1.238-1.074 1.893-2.595 2.062-4.429l-1.992-.183c-.134 1.457-.625 2.446-1.38 3.1-.77.669-1.942 1.101-3.645 1.178l.09 1.998zm3.104-6.796c.864 0 1.661-.225 2.342-.715l-1.168-1.624c-.296.213-.67.34-1.174.34v2zm2.335-.71a4.498 4.498 0 001.442-1.637l-1.782-.909c-.174.34-.436.645-.814.912l1.154 1.634zm1.55-2.091V9.318h-2v1.744h2zm0-1.744c0-1.544-.29-2.886-.997-3.908L25.61 6.547c.387.56.643 1.445.643 2.771h2zm-.997-3.908c-.723-1.046-1.755-1.618-3.02-1.618v2c.572 0 1.004.219 1.375.755l1.645-1.137zm-3.02-1.618c-1.22 0-2.206.588-2.914 1.598l1.639 1.147c.386-.552.796-.745 1.275-.745v-2zm-2.91 1.594c-.693.977-1.005 2.164-1.005 3.493h2c0-1.015.235-1.771.636-2.337l-1.631-1.156zM20.32 8.879c0 1.313.3 2.485.973 3.445l1.637-1.148c-.381-.544-.61-1.286-.61-2.297h-2zm.981 3.457c.737 1.019 1.8 1.527 3.066 1.527v-2c-.667 0-1.108-.233-1.446-.7l-1.62 1.173zm23.12 2.139l.996.091.25-2.717-1.947 1.912.7.714zm-8.394-.308l-.753.657.002.003.751-.66zm-.79-9.082l-.886-.465-.002.003.887.462zM37.8 2.36l.508.862.005-.003-.513-.859zm9.99 3.106l.909-.418-.909.418zm.923 4.526h1v-.006l-1 .006zM38.547 23.19l.014 1h.028l-.042-1zm-1.04.015h-1v1.014l1.014-.014-.014-1zm0-3.53l-.016-1-.984.015v.985h1zm.937-.015l.016 1H38.489l-.045-1zm4.908-7.324l-.577-.817-.008.005.585.812zm1.128-1.274l.89.454.11-.214v-.24h-1zm-5.113-5.098l.816.578.003-.005-.819-.573zm-.03 5.786l-.818.574.004.006.005.006.81-.586zm4.383 2.011c-.927.91-1.968 1.34-3.166 1.34v2c1.75 0 3.287-.655 4.568-1.913l-1.402-1.427zm-3.166 1.34c-1.63 0-2.852-.544-3.776-1.594l-1.502 1.32c1.343 1.528 3.137 2.274 5.278 2.274v-2zM36.78 13.51c-.934-1.071-1.453-2.563-1.453-4.587h-2c0 2.37.614 4.375 1.946 5.901l1.507-1.314zm-1.453-4.587c0-1.247.269-2.366.795-3.376l-1.773-.924c-.685 1.314-1.022 2.753-1.022 4.3h2zm.794-3.373c.532-1.015 1.26-1.782 2.185-2.328l-1.015-1.723c-1.261.743-2.243 1.792-2.941 3.121l1.77.93zm2.191-2.331c.927-.555 1.978-.84 3.178-.84v-2c-1.534 0-2.944.37-4.205 1.123l1.027 1.717zm3.178-.84c1.231 0 2.29.305 3.21.896l1.081-1.683C44.514.777 43.072.38 41.492.38v2zm3.21.896c.914.588 1.645 1.443 2.18 2.608l1.818-.835c-.676-1.47-1.645-2.638-2.917-3.456l-1.081 1.683zm2.18 2.608c.537 1.17.823 2.534.832 4.115l2-.012c-.01-1.817-.34-3.47-1.014-4.938l-1.818.835zm.832 4.11v1.567h2V9.992h-2zm0 1.567c0 3.391-.842 5.924-2.406 7.722l1.509 1.313c1.97-2.265 2.897-5.318 2.897-9.035h-2zm-2.406 7.722c-1.55 1.782-3.774 2.782-6.802 2.91l.084 1.997c3.456-.145 6.243-1.314 8.227-3.594l-1.509-1.313zm-6.774 2.909l-1.04.014.028 2 1.04-.015-.028-2zm-.026 1.014v-3.53h-2v3.53h2zm-.984-2.53l.937-.015-.031-2-.938.015.032 2zm.966-.016c1.978-.09 3.644-.604 4.866-1.664 1.237-1.074 1.893-2.595 2.062-4.429l-1.992-.183c-.134 1.457-.626 2.446-1.38 3.1-.77.669-1.942 1.101-3.646 1.178l.09 1.998zm3.105-6.796c.863 0 1.66-.225 2.342-.715l-1.169-1.624c-.295.213-.67.34-1.173.34v2zm2.334-.71a4.499 4.499 0 001.442-1.637l-1.781-.909c-.174.34-.436.645-.814.912l1.153 1.634zm1.552-2.091V9.318h-2v1.744h2zm0-1.744c0-1.544-.292-2.886-.998-3.908l-1.645 1.137c.387.56.642 1.445.642 2.771h2zm-.998-3.908c-.723-1.046-1.756-1.618-3.02-1.618v2c.571 0 1.004.219 1.375.755l1.645-1.137zm-3.02-1.618c-1.22 0-2.207.588-2.914 1.598l1.638 1.147c.387-.552.797-.745 1.276-.745v-2zm-2.91 1.594c-.693.977-1.005 2.164-1.005 3.493h2c0-1.015.235-1.771.636-2.337l-1.632-1.156zm-1.005 3.493c0 1.313.299 2.485.972 3.445l1.638-1.148c-.382-.544-.61-1.286-.61-2.297h-2zm.98 3.457c.738 1.019 1.8 1.527 3.067 1.527v-2c-.667 0-1.109-.233-1.446-.7l-1.62 1.173zm26.343-2.241l.84.543-.84-.543zm-2.139 1.919l-.466-.885-1.756.925 1.789.86.433-.9zm2.461 2.065l-.823.567.003.005.82-.572zm-1.025 7.573l.647.763.003-.003-.65-.76zm-9.126-9.638l.43.902 1.801-.857-1.765-.93-.466.885zm-2.139-1.92l-.844.536.005.008.84-.543zm1.055-7.09l.664.749.003-.003-.667-.745zm9.858-.014l-.663.748.006.006.657-.754zm-7.09 11.631l.714.7.006-.005-.72-.695zm4.337 4.453l-.714-.7-.007.006.72.694zm-.308-13.52l-.756.654.006.007.75-.661zm0 4.043l-.762-.648-.008.009.77.639zm3.893-2.256c0 .86-.213 1.586-.617 2.21l1.68 1.087c.631-.977.937-2.087.937-3.297h-2zm-.617 2.21c-.417.647-.996 1.173-1.765 1.578l.933 1.77c1.048-.553 1.894-1.305 2.512-2.261l-1.68-1.086zm-1.732 3.364c.89.428 1.572 1.007 2.07 1.731l1.648-1.134c-.712-1.033-1.671-1.832-2.851-2.4l-.867 1.803zm2.074 1.736c.475.682.729 1.502.729 2.504h2c0-1.361-.352-2.592-1.088-3.648l-1.641 1.144zm.729 2.504c0 1.64-.545 2.848-1.584 3.738l1.3 1.519c1.539-1.317 2.284-3.108 2.284-5.257h-2zM63.52 20.89c-1.059.898-2.557 1.403-4.612 1.403v2c2.38 0 4.386-.589 5.906-1.878L63.52 20.89zm-4.612 1.403c-2.052 0-3.556-.509-4.626-1.417L52.987 22.4c1.528 1.298 3.54 1.893 5.921 1.893v-2zm-4.626-1.417c-1.05-.892-1.595-2.094-1.595-3.72h-2c0 2.143.753 3.929 2.3 5.244l1.295-1.524zm-1.595-3.72c0-1.002.253-1.83.731-2.524l-1.647-1.135c-.732 1.064-1.084 2.297-1.084 3.658h2zm.731-2.524c.5-.725 1.175-1.298 2.053-1.716l-.86-1.805c-1.173.558-2.128 1.353-2.84 2.386l1.647 1.135zm2.09-3.503c-.77-.405-1.349-.931-1.766-1.577l-1.68 1.086c.618.956 1.465 1.708 2.513 2.26l.932-1.769zm-1.761-1.57c-.397-.626-.606-1.355-.606-2.218h-2c0 1.207.298 2.314.917 3.29l1.689-1.072zm-.606-2.218c0-1.57.51-2.728 1.48-3.588l-1.328-1.496c-1.452 1.288-2.152 3.02-2.152 5.084h2zm1.483-3.591c.98-.878 2.365-1.371 4.27-1.371v-2c-2.256 0-4.163.59-5.604 1.88l1.334 1.491zm4.27-1.371c1.896 0 3.276.489 4.258 1.36l1.327-1.497C63.039.964 61.139.38 58.894.38v2zm4.264 1.365c.973.848 1.489 2.007 1.489 3.597h2c0-2.082-.705-3.824-2.174-5.104l-1.315 1.507zm-.306 13.104c0-1.132-.334-2.142-1.085-2.921l-1.44 1.389c.323.334.526.808.526 1.532h2zm-1.085-2.921c-.759-.786-1.76-1.14-2.888-1.14v2c.688 0 1.132.201 1.448.528l1.44-1.388zm-2.888-1.14c-1.122 0-2.117.356-2.873 1.14l1.44 1.389c.317-.33.758-.53 1.433-.53v-2zm-2.867 1.133c-.76.774-1.092 1.79-1.092 2.928h2c0-.738.205-1.206.519-1.526l-1.427-1.402zm-1.092 2.928c0 1.113.33 2.109 1.065 2.885l1.452-1.376c-.32-.337-.517-.807-.517-1.51h-2zm1.065 2.885c.757.799 1.777 1.147 2.923 1.147v-2c-.728 0-1.173-.209-1.471-.523l-1.452 1.376zm2.923 1.147c1.123 0 2.126-.336 2.874-1.112l-1.44-1.388c-.288.298-.72.5-1.434.5v2zm2.867-1.105c.756-.77 1.078-1.79 1.078-2.927h-2c0 .756-.206 1.22-.505 1.526l1.427 1.4zm.638-12.23c0-1.01-.271-1.93-.91-2.653l-1.499 1.323c.241.273.41.681.41 1.33h2zM61.51 4.9c-.666-.77-1.587-1.107-2.616-1.107v2c.571 0 .891.17 1.104.416L61.51 4.9zm-2.616-1.107c-1.012 0-1.922.322-2.59 1.063l1.487 1.338c.212-.235.532-.401 1.103-.401v-2zm-2.59 1.063c-.65.723-.915 1.662-.915 2.69h2c0-.69.174-1.098.402-1.352l-1.486-1.338zm-.915 2.69c0 1.026.268 1.959.897 2.699l1.524-1.295c-.25-.295-.421-.73-.421-1.403h-2zm.897 2.699c.664.782 1.586 1.129 2.622 1.129v-2c-.565 0-.883-.17-1.098-.424l-1.524 1.295zm2.622 1.129c1.036 0 1.959-.347 2.615-1.138l-1.539-1.277c-.203.244-.51.415-1.076.415v2zm2.608-1.13c.629-.74.897-1.672.897-2.697h-2c0 .674-.17 1.108-.421 1.403l1.524 1.295zm23.335 5.33v1h1v-1h-1zm-8.248 0h-1v1h1v-1zm0-3.413v-1h-1v1h1zm8.248 0h1v-1h-1v1zm0 2.413h-8.248v2h8.248v-2zm-7.248 1V12.16h-2v3.413h2zm-1-2.413h8.248v-2h-8.248v2zm7.248-1v3.413h2V12.16h-2zM110.163 23v1h1v-1h-1zm-14.62 0h-1v1h1v-1zm0-2.9l-.728-.685-.271.289v.396h1zm6.9-7.354l.73.684.008-.009-.738-.675zm2.095-2.71l-.859-.511-.005.008.864.503zm-.029-4.424l-.753.659.006.007.747-.666zm-4.321.176l-.767-.642.767.642zm-.82 2.593v1h.999v-1h-1zm-4.249 0h-1v1h1v-1zm.923-3.56l-.864-.503-.004.006.868.497zm2.637-2.52l.471.883.006-.003-.477-.88zm8.965.66l-.657.754.003.003.654-.757zm1.01 7.69l.895.448-.895-.448zm-2.812 3.824l.725.688.007-.007.006-.007-.738-.674zm-4.849 5.112l-.725-.688-1.602 1.688h2.327v-1zm9.17 0h1v-1h-1v1zm0 2.413h-14.62v2h14.62v-2zm-13.62 1v-2.9h-2V23h2zm-.27-2.216l6.9-7.354-1.459-1.368-6.9 7.353 1.46 1.369zm6.908-7.363c.972-1.061 1.722-2.024 2.221-2.882l-1.728-1.006c-.399.685-1.045 1.53-1.968 2.538l1.475 1.35zm2.216-2.874c.525-.881.83-1.79.83-2.708h-2c0 .468-.155 1.024-.548 1.686l1.718 1.022zm.83-2.708c0-1.113-.284-2.12-.972-2.892l-1.493 1.33c.269.303.465.78.465 1.562h2zm-.966-2.885c-.71-.812-1.696-1.162-2.803-1.162v2c.67 0 1.051.197 1.298.479l1.505-1.317zm-2.803-1.162c-1.218 0-2.269.437-3.037 1.354l1.533 1.284c.345-.411.808-.638 1.504-.638v-2zM99.42 5.147c-.733.877-1.053 1.988-1.053 3.234h2c0-.902.227-1.52.588-1.952L99.42 5.147zm-.053 2.234H95.12v2h4.248v-2zm-3.248 1c0-1.134.266-2.147.79-3.063l-1.735-.994c-.706 1.233-1.055 2.593-1.055 4.057h2zm.787-3.057c.529-.908 1.27-1.62 2.244-2.14l-.943-1.764c-1.29.69-2.308 1.658-3.03 2.898l1.73 1.006zm2.25-2.143c.97-.527 2.087-.802 3.375-.802v-2c-1.583 0-3.034.34-4.33 1.044l.955 1.758zm3.375-.802c2.045 0 3.484.49 4.456 1.336l1.313-1.508C106.85.943 104.881.379 102.531.379v2zm4.459 1.339c.958.828 1.485 2.016 1.485 3.71h2c0-2.152-.695-3.942-2.178-5.224l-1.307 1.514zm1.485 3.71c0 .877-.227 1.8-.715 2.776l1.789.895c.605-1.21.926-2.437.926-3.67h-2zm-.715 2.776c-.488.977-1.358 2.173-2.657 3.596l1.477 1.349c1.358-1.487 2.363-2.84 2.969-4.05l-1.789-.895zm-2.644 3.582l-4.848 5.113 1.451 1.376 4.848-5.112-1.451-1.377zm-4.123 6.8h9.17v-2h-9.17v2zm8.17-1V23h2v-3.413h-2zm16.132 1.363l.788.616-.788-.616zm-12.583-6.548h-1v.01l1-.01zm1.846-10.708l-.78-.626-.002.003.782.623zm10.678-.014l-.78.626.002.002.778-.628zm1.89 6.577h1v-.01l-1 .01zm-4.966-4.234l-.861.509.004.006.003.006.854-.52zm-4.468-.058l-.849-.527-.002.003.851.524zm-.747 3.589l-1-.018v.018h1zm.703 9.067l-.875.483.007.012.868-.495zm5.245-3.677l1 .012v-.012h-1zm3.233-.761c0 2.83-.588 4.832-1.619 6.152l1.576 1.23c1.411-1.805 2.043-4.314 2.043-7.382h-2zm-1.619 6.152c-.995 1.273-2.463 1.959-4.573 1.959v2c2.596 0 4.702-.876 6.149-2.728l-1.576-1.231zm-4.573 1.959c-2.083 0-3.547-.673-4.553-1.926l-1.559 1.252c1.455 1.814 3.546 2.674 6.112 2.674v-2zm-4.553-1.926c-1.038-1.294-1.641-3.24-1.669-5.976l-2 .02c.031 2.987.688 5.436 2.11 7.208l1.559-1.252zm-1.669-5.966v-3.925h-2V14.4h2zm0-3.925c0-2.863.594-4.864 1.627-6.16l-1.563-1.246c-1.428 1.79-2.064 4.31-2.064 7.406h2zm1.625-6.156c1.016-1.265 2.487-1.941 4.567-1.941v-2c-2.568 0-4.662.866-6.126 2.688l1.559 1.253zm4.567-1.941c2.083 0 3.547.673 4.552 1.926l1.56-1.252C124.56 1.239 122.47.379 119.904.379v2zm4.554 1.928c1.037 1.284 1.64 3.223 1.668 5.96l2-.021c-.031-2.987-.688-5.432-2.112-7.196l-1.556 1.257zm1.668 5.949v3.926h2v-3.926h-2zm-2.233-.381c0-1.814-.243-3.33-.879-4.373l-1.708 1.041c.341.558.587 1.611.587 3.332h2zm-.872-4.36c-.677-1.148-1.776-1.708-3.117-1.708v2c.71 0 1.115.25 1.395.724l1.722-1.017zm-3.117-1.708c-1.302 0-2.38.532-3.061 1.63l1.699 1.054c.276-.445.672-.684 1.362-.684v-2zm-3.063 1.633c-.612.994-.865 2.41-.896 4.095l2 .036c.028-1.578.273-2.554.599-3.083l-1.703-1.048zm-.896 4.113v5.185h2V9.553h-2zm0 5.185c0 1.793.236 3.292.828 4.365l1.751-.966c-.346-.626-.579-1.715-.579-3.399h-2zm.835 4.377c.673 1.182 1.785 1.765 3.154 1.765v-2c-.722 0-1.133-.257-1.417-.755l-1.737.99zm3.154 1.765c1.346 0 2.452-.559 3.111-1.723l-1.74-.986c-.259.457-.648.709-1.371.709v2zm3.111-1.723c.585-1.032.827-2.478.848-4.202l-2-.023c-.019 1.615-.255 2.65-.588 3.24l1.74.985zm.848-4.214V9.875h-2v5.068h2zM144.616 23v1h1v-1h-1zm-14.619 0h-1v1h1v-1zm0-2.9l-.729-.685-.271.289v.396h1zm6.899-7.354l.73.684.008-.009-.738-.675zm2.095-2.71l-.859-.511-.005.008.864.503zm-.029-4.424l-.753.659.006.007.747-.666zm-4.321.176l-.767-.642h-.001l.768.642zm-.821 2.593v1h1v-1h-1zm-4.248 0h-1v1h1v-1zm.923-3.56l-.864-.503-.004.006.868.497zm2.637-2.52l.471.883.006-.003-.477-.88zm8.965.66l-.657.754.003.003.654-.757zm1.01 7.69l.895.448-.895-.448zm-2.812 3.824l.725.688.007-.007.007-.007-.739-.674zm-4.849 5.112l-.725-.688-1.601 1.688h2.326v-1zm9.17 0h1v-1h-1v1zm0 2.413h-14.619v2h14.619v-2zm-13.619 1v-2.9h-2V23h2zm-.271-2.216l6.9-7.354-1.459-1.368-6.899 7.353 1.458 1.369zm6.908-7.363c.972-1.061 1.722-2.024 2.221-2.882l-1.728-1.006c-.399.685-1.045 1.53-1.968 2.538l1.475 1.35zm2.217-2.874c.524-.881.829-1.79.829-2.708h-2c0 .468-.155 1.024-.548 1.686l1.719 1.022zm.829-2.708c0-1.113-.284-2.12-.971-2.892l-1.494 1.33c.27.303.465.78.465 1.562h2zm-.966-2.885c-.71-.812-1.696-1.162-2.803-1.162v2c.67 0 1.051.197 1.298.479l1.505-1.317zm-2.803-1.162c-1.218 0-2.269.437-3.037 1.354l1.533 1.284c.345-.411.808-.638 1.504-.638v-2zm-3.038 1.355c-.733.877-1.053 1.988-1.053 3.234h2c0-.902.227-1.52.588-1.952l-1.535-1.282zm-.053 2.234h-4.248v2h4.248v-2zm-3.248 1c0-1.134.267-2.147.791-3.063l-1.736-.994c-.706 1.233-1.055 2.593-1.055 4.057h2zm.787-3.057c.529-.908 1.269-1.62 2.244-2.14l-.943-1.764c-1.29.69-2.308 1.658-3.029 2.898l1.728 1.006zm2.25-2.143c.97-.527 2.087-.802 3.375-.802v-2c-1.583 0-3.034.34-4.329 1.044l.954 1.758zm3.375-.802c2.045 0 3.485.49 4.456 1.336l1.313-1.508c-1.45-1.264-3.419-1.828-5.769-1.828v2zm4.459 1.339c.958.828 1.485 2.016 1.485 3.71h2c0-2.152-.694-3.942-2.178-5.224l-1.307 1.514zm1.485 3.71c0 .877-.226 1.8-.715 2.776l1.789.895c.605-1.21.926-2.437.926-3.67h-2zm-.715 2.776c-.488.977-1.358 2.173-2.657 3.596l1.478 1.349c1.357-1.487 2.362-2.84 2.968-4.05l-1.789-.895zm-2.644 3.582l-4.848 5.113 1.451 1.376 4.848-5.112-1.451-1.377zm-4.123 6.8h9.17v-2h-9.17v2zm8.17-1V23h2v-3.413h-2zm16.132 1.363l.788.616-.788-.616zm-12.583-6.548h-1v.01l1-.01zm1.846-10.708l-.78-.626-.002.003.782.623zm10.678-.014l-.779.626.001.002.778-.628zm1.89 6.577h1v-.01l-1 .01zm-4.966-4.234l-.861.509.004.006.003.006.854-.52zm-4.467-.058l-.85-.527-.002.003.852.524zm-.748 3.589l-.999-.018-.001.009v.009h1zm.704 9.067l-.876.483.007.012.869-.495zm5.244-3.677l1 .012v-.012h-1zm3.233-.761c0 2.83-.588 4.832-1.619 6.152l1.576 1.23c1.411-1.805 2.043-4.314 2.043-7.382h-2zm-1.619 6.152c-.995 1.273-2.463 1.959-4.573 1.959v2c2.597 0 4.702-.876 6.149-2.728l-1.576-1.231zm-4.573 1.959c-2.083 0-3.547-.673-4.552-1.926l-1.56 1.252c1.456 1.814 3.546 2.674 6.112 2.674v-2zm-4.552-1.926c-1.039-1.294-1.642-3.24-1.67-5.976l-2 .02c.031 2.987.688 5.436 2.11 7.208l1.56-1.252zm-1.67-5.966v-3.925h-2V14.4h2zm0-3.925c0-2.863.594-4.864 1.628-6.16l-1.564-1.246c-1.428 1.79-2.064 4.31-2.064 7.406h2zm1.625-6.156c1.016-1.265 2.487-1.941 4.567-1.941v-2c-2.568 0-4.662.866-6.126 2.688l1.559 1.253zm4.567-1.941c2.083 0 3.547.673 4.553 1.926l1.559-1.252c-1.455-1.814-3.546-2.674-6.112-2.674v2zm4.554 1.928c1.037 1.284 1.64 3.223 1.668 5.96l2-.021c-.031-2.987-.687-5.432-2.112-7.196l-1.556 1.257zm1.668 5.949v3.926h2v-3.926h-2zm-2.233-.381c0-1.814-.243-3.33-.879-4.373l-1.708 1.041c.341.558.587 1.611.587 3.332h2zm-.872-4.36c-.677-1.148-1.776-1.708-3.117-1.708v2c.71 0 1.115.25 1.395.724l1.722-1.017zm-3.117-1.708c-1.301 0-2.38.532-3.061 1.63l1.699 1.054c.276-.445.672-.684 1.362-.684v-2zm-3.063 1.633c-.612.994-.865 2.41-.895 4.095l1.999.036c.029-1.578.273-2.554.599-3.083l-1.703-1.048zm-.896 4.113v5.185h2V9.553h-2zm0 5.185c0 1.793.236 3.292.828 4.365l1.751-.966c-.345-.626-.579-1.715-.579-3.399h-2zm.835 4.377c.673 1.182 1.785 1.765 3.154 1.765v-2c-.721 0-1.133-.257-1.417-.755l-1.737.99zm3.154 1.765c1.346 0 2.452-.559 3.111-1.723l-1.74-.986c-.259.457-.648.709-1.371.709v2zm3.111-1.723c.585-1.032.827-2.478.848-4.202l-2-.023c-.019 1.615-.255 2.65-.588 3.24l1.74.985zm.848-4.214V9.875h-2v5.068h2z" fill="#FFC045" fill-opacity=".5"/></svg>