<svg width="95" height="19" fill="none" xmlns="http://www.w3.org/2000/svg"><path d="M54.946 15.973c-1.764 0-3.215-1.091-3.241-3.008h8.353c.11-.507.164-1.024.164-1.543 0-3.462-2.308-5.672-5.705-5.672-3.631 0-6.121 2.902-6.121 6.495 0 3.994 2.698 6.657 6.51 6.657 2.879 0 4.875-1.491 5.732-3.941l-2.839-1.138c-.39 1.432-1.35 2.15-2.853 2.15zm-.44-7.48c1.474 0 2.49.825 2.49 2.103l-.027.106h-5.264c.31-1.384 1.453-2.21 2.8-2.21zM71.697 8.812V6.016h-10.71v2.93h6.535l-6.743 6.762v2.927h11.1v-3.062h-6.951l6.77-6.76zM91.701 10.09c.001.212-.012.424-.04.634h3.146c.076-.41.113-.828.11-1.246 0-2.157-1.322-3.728-3.527-3.728-1.427 0-2.437.72-2.956 1.89V6.018h-3.319v12.61h3.319v-8.113c0-1.277.675-1.995 1.711-1.995.934 0 1.556.638 1.556 1.57zM31.94 7.908c-.754-1.305-2.155-2.158-3.89-2.158-3.373 0-5.837 2.664-5.837 6.63 0 3.913 2.44 6.522 5.913 6.522 1.738 0 3.139-.773 3.943-2.076v1.81h3.189V0h-3.319v7.908zm-3.14 8.1c-1.841 0-3.276-1.383-3.276-3.62 0-2.262 1.426-3.698 3.275-3.698 1.79 0 3.268 1.437 3.268 3.699 0 2.228-1.479 3.62-3.268 3.62zM78.59 15.973c-1.764 0-3.216-1.091-3.242-3.008h8.354c.11-.507.164-1.024.163-1.543 0-3.462-2.307-5.672-5.704-5.672-3.632 0-6.121 2.902-6.121 6.495 0 3.994 2.697 6.657 6.509 6.657 2.88 0 4.876-1.491 5.732-3.941l-2.84-1.138c-.388 1.432-1.346 2.15-2.851 2.15zm-.441-7.48c1.474 0 2.49.825 2.49 2.103l-.026.106h-5.268c.314-1.384 1.454-2.21 2.804-2.21zM42.69 15.973c-1.764 0-3.216-1.091-3.242-3.008h8.354c.107-.507.16-1.024.155-1.543 0-3.462-2.308-5.672-5.705-5.672-3.631 0-6.12 2.902-6.12 6.495 0 3.994 2.697 6.657 6.509 6.657 2.879 0 4.876-1.491 5.732-3.941l-2.83-1.138c-.39 1.432-1.35 2.15-2.853 2.15zm-.441-7.48c1.474 0 2.49.825 2.49 2.103l-.026.106h-5.265c.311-1.384 1.453-2.21 2.801-2.21z" fill="#fff"/><path d="M18.893 6.008h-4.067v2.436h4.067V6.008z" fill="#29AB70"/><path d="M18.893 9.4h-4.067v2.437h4.067V9.401z" fill="url(#paint0_linear)"/><path d="M18.893 12.792h-4.067v2.436h4.067v-2.436z" fill="url(#paint1_linear)"/><path d="M4.15 16.185H.083v2.437H4.15v-2.437z" fill="url(#paint2_linear)"/><path d="M9.065 16.185H4.998v2.437h4.067v-2.437z" fill="url(#paint3_linear)"/><path d="M13.98 16.185H9.913v2.437h4.067v-2.437z" fill="url(#paint4_linear)"/><path d="M18.893 16.185h-4.067v2.437h4.067v-2.437z" fill="url(#paint5_linear)"/><path d="M13.98 12.792H9.913v2.436h4.067v-2.436z" fill="url(#paint6_linear)"/><path d="M9.065 12.792H4.998v2.436h4.067v-2.436z" fill="url(#paint7_linear)"/><path d="M9.065 9.4H4.998v2.437h4.067V9.401z" fill="url(#paint8_linear)"/><path d="M54.946 15.973c-1.764 0-3.215-1.091-3.241-3.008h8.353c.11-.507.164-1.024.164-1.543 0-3.462-2.308-5.672-5.705-5.672-3.631 0-6.121 2.902-6.121 6.495 0 3.994 2.698 6.657 6.51 6.657 2.879 0 4.875-1.491 5.732-3.941l-2.839-1.138c-.39 1.432-1.35 2.15-2.853 2.15zm-.44-7.48c1.474 0 2.49.825 2.49 2.103l-.027.106h-5.264c.31-1.384 1.453-2.21 2.8-2.21zM71.697 8.812V6.016h-10.71v2.93h6.535l-6.743 6.762v2.927h11.1v-3.062h-6.951l6.77-6.76zM91.701 10.09c.001.212-.012.424-.04.634h3.146c.076-.41.113-.828.11-1.246 0-2.157-1.322-3.728-3.527-3.728-1.427 0-2.437.72-2.956 1.89V6.018h-3.319v12.61h3.319v-8.113c0-1.277.675-1.995 1.711-1.995.934 0 1.556.638 1.556 1.57zM31.94 7.908c-.754-1.305-2.155-2.158-3.89-2.158-3.373 0-5.837 2.664-5.837 6.63 0 3.913 2.44 6.522 5.913 6.522 1.738 0 3.139-.773 3.943-2.076v1.81h3.189V0h-3.319v7.908zm-3.14 8.1c-1.841 0-3.276-1.383-3.276-3.62 0-2.262 1.426-3.698 3.275-3.698 1.79 0 3.268 1.437 3.268 3.699 0 2.228-1.479 3.62-3.268 3.62zM78.59 15.973c-1.764 0-3.216-1.091-3.242-3.008h8.354c.11-.507.164-1.024.163-1.543 0-3.462-2.307-5.672-5.704-5.672-3.632 0-6.121 2.902-6.121 6.495 0 3.994 2.697 6.657 6.509 6.657 2.88 0 4.876-1.491 5.732-3.941l-2.84-1.138c-.388 1.432-1.346 2.15-2.851 2.15zm-.441-7.48c1.474 0 2.49.825 2.49 2.103l-.026.106h-5.268c.314-1.384 1.454-2.21 2.804-2.21zM42.69 15.973c-1.764 0-3.216-1.091-3.242-3.008h8.354c.107-.507.16-1.024.155-1.543 0-3.462-2.308-5.672-5.705-5.672-3.631 0-6.12 2.902-6.12 6.495 0 3.994 2.697 6.657 6.509 6.657 2.879 0 4.876-1.491 5.732-3.941l-2.83-1.138c-.39 1.432-1.35 2.15-2.853 2.15zm-.441-7.48c1.474 0 2.49.825 2.49 2.103l-.026.106h-5.265c.311-1.384 1.453-2.21 2.801-2.21z" fill="#fff"/><defs><linearGradient id="paint0_linear" x1="17.124" y1="12.157" x2="16.568" y2="9.085" gradientUnits="userSpaceOnUse"><stop stop-color="#2C8C9D"/><stop offset=".04" stop-color="#298E9A"/><stop offset=".39" stop-color="#129C83"/><stop offset=".72" stop-color="#05A475"/><stop offset="1" stop-color="#00A770"/></linearGradient><linearGradient id="paint1_linear" x1="14.766" y1="15.106" x2="18.998" y2="13.005" gradientUnits="userSpaceOnUse"><stop stop-color="#2839BA"/><stop offset="1" stop-color="#148CB3"/></linearGradient><linearGradient id="paint2_linear" x1=".083" y1="17.403" x2="4.15" y2="17.403" gradientUnits="userSpaceOnUse"><stop stop-color="#F6A500"/><stop offset="1" stop-color="#F29100"/></linearGradient><linearGradient id="paint3_linear" x1="4.998" y1="17.403" x2="9.065" y2="17.403" gradientUnits="userSpaceOnUse"><stop stop-color="#F29100"/><stop offset="1" stop-color="#D12F5F"/></linearGradient><linearGradient id="paint4_linear" x1="9.913" y1="17.403" x2="13.98" y2="17.403" gradientUnits="userSpaceOnUse"><stop stop-color="#B4197C"/><stop offset="1" stop-color="#472EAD"/></linearGradient><linearGradient id="paint5_linear" x1="14.826" y1="17.403" x2="18.893" y2="17.403" gradientUnits="userSpaceOnUse"><stop stop-color="#2839BA"/><stop offset="1" stop-color="#3072B7"/></linearGradient><linearGradient id="paint6_linear" x1="9.752" y1="14.668" x2="14.156" y2="13.414" gradientUnits="userSpaceOnUse"><stop stop-color="#B4197C"/><stop offset="1" stop-color="#373AAC"/></linearGradient><linearGradient id="paint7_linear" x1="4.855" y1="13.197" x2="9.235" y2="14.749" gradientUnits="userSpaceOnUse"><stop stop-color="#FFCB00"/><stop offset="1" stop-color="#D12F5F"/></linearGradient><linearGradient id="paint8_linear" x1="5.342" y1="9.018" x2="8.802" y2="12.129" gradientUnits="userSpaceOnUse"><stop stop-color="#FFCF00"/><stop offset="1" stop-color="#ED743B"/></linearGradient></defs></svg>