<svg width="511.98685" height="511" xmlns="http://www.w3.org/2000/svg" xmlns:svg="http://www.w3.org/2000/svg">
 <g class="layer">
  <title>Layer 1</title>
  <path fill="#cc9c22" id="svg_1" d="m114.59375,491.14063c-5.60937,0 -11.17969,-1.75 -15.93359,-5.1875c-8.85547,-6.41797 -12.99219,-17.44922 -10.58203,-28.09375l32.9375,-145.08985l-111.70313,-97.96094c-8.21094,-7.16796 -11.34766,-18.51953 -7.97656,-28.90625c3.37109,-10.36718 12.54297,-17.70703 23.40234,-18.71093l147.79688,-13.41797l58.43359,-136.7461c4.30859,-10.04687 14.12109,-16.53515 25.02344,-16.53515c10.90234,0 20.71484,6.48828 25.02344,16.51172l58.43359,136.76953l147.77344,13.41797c10.88281,0.98047 20.05468,8.34375 23.42578,18.71093c3.37109,10.36719 0.2539,21.73829 -7.95703,28.90625l-111.70313,97.94141l32.9375,145.08594c2.41406,10.66797 -1.72656,21.69922 -10.57812,28.09765c-8.83203,6.39844 -20.60938,6.89063 -29.91016,1.30078l-127.44531,-76.16015l-127.44531,76.20312c-4.3086,2.5586 -9.10938,3.86328 -13.95313,3.86328l0,0.00001zm141.39844,-112.875c4.84375,0 9.64062,1.30078 13.95312,3.85937l120.27735,71.9375l-31.08594,-136.94141c-2.21875,-9.74609 1.08984,-19.92187 8.62109,-26.51562l105.47266,-92.5l-139.54297,-12.67188c-10.04687,-0.91797 -18.6875,-7.23437 -22.61328,-16.49218l-55.08203,-129.04688l-55.14844,129.06641c-3.88281,9.19531 -12.52344,15.51172 -22.54688,16.42968l-139.5625,12.67188l105.46875,92.5c7.55469,6.61328 10.85938,16.76953 8.6211,26.53906l-31.0625,136.9375l120.27734,-71.91406c4.3086,-2.55859 9.10938,-3.85937 13.95313,-3.85937zm-84.58594,-221.84766s0,0.02344 -0.02344,0.04297l0.02344,-0.04297zm169.12891,-0.0625l0.02343,0.04297c0,-0.02344 0,-0.02344 -0.02343,-0.04297zm0,0"/>
 </g>
</svg>