<svg width="344" height="186" viewBox="0 0 344 186" fill="none" xmlns="http://www.w3.org/2000/svg">
<path d="M101.103 8.06138L105.574 7.96338C105.751 7.96463 105.922 8.02586 106.06 8.13709C106.198 8.24833 106.294 8.40301 106.333 8.57591C107.423 12.0919 113.082 29.6349 119.598 35.4539C119.598 35.4539 120.014 16.8329 124.02 10.1318C124.165 9.88781 124.371 9.686 124.618 9.54633C124.865 9.40666 125.144 9.33397 125.428 9.33546H134.124C134.286 9.35545 134.442 9.41151 134.579 9.49951C134.716 9.58751 134.832 9.70521 134.918 9.84393C135.004 9.98265 135.057 10.1389 135.075 10.301C135.092 10.4632 135.073 10.6273 135.019 10.781C132.239 20.8417 131.407 31.3411 132.569 41.7141C134.774 58.865 129.911 89.161 129.911 89.161C129.911 89.161 126.935 98.4838 126.898 150.341C126.902 150.822 126.857 151.302 126.763 151.774C126.065 155.315 122.746 170.089 120.002 151.015C116.916 129.539 119.206 79.5809 119.206 79.5809C119.206 79.5809 117.871 56.3659 109.542 46.0018C109.542 46.0018 105.39 95.3231 104.263 108.566C103.369 119.114 104.079 153.759 104.263 165.52C104.263 166.659 102.377 164.834 101.997 163.78C99.5476 156.785 95.3587 138.152 91.623 105.895C91.4762 104.59 91.4393 103.275 91.5128 101.963C91.966 94.539 93.7297 68.3226 97 56.3659C100.956 42.3633 95.1627 7.5346 101.103 8.06138Z" fill="#FFC045"/>
<path d="M243.305 57.7254C243.409 57.9053 243.567 58.0484 243.756 58.1348C243.946 58.2212 244.157 58.2466 244.361 58.2076C244.566 58.1686 244.753 58.0671 244.897 57.9171C245.042 57.767 245.136 57.5759 245.166 57.3701C246.22 53.5724 248.204 46.8467 248.939 47.3735C249.919 48.0841 258.615 72.0464 261.42 119.726C261.57 122.75 262.315 125.714 263.612 128.449C264.837 131.058 266.846 135.689 269.81 143.836C276.093 161.085 270.618 72.8917 265.756 66.0803C260.893 59.269 258.909 35.7476 260.489 17.7268L261.285 10.6827C261.329 10.4621 261.327 10.2349 261.278 10.0152C261.23 9.79561 261.137 9.58837 261.004 9.40655C260.872 9.22473 260.704 9.07228 260.51 8.95878C260.315 8.84528 260.1 8.7732 259.877 8.74707H258.015C257.636 8.75411 257.265 8.8594 256.939 9.05265C256.612 9.2459 256.342 9.52051 256.153 9.84964C253.079 14.8602 240.537 35.1351 239.826 34.498C239.116 33.861 231.252 17.6288 230.028 11.6382C229.974 11.2542 229.788 10.9009 229.502 10.6392C229.216 10.3776 228.847 10.224 228.46 10.2049H225.667C225.198 10.2287 224.75 10.4058 224.392 10.709C224.033 11.0122 223.784 11.4248 223.683 11.8833C222.091 17.4451 217.559 35.8211 222.177 53.6949C225.484 66.8736 226.984 80.4411 226.635 94.0242C226.635 94.0242 220.511 125.374 223.389 133.631C226.267 141.888 233.531 126.942 233.714 124.884C234.315 118.428 241.063 78.7231 238.173 72.4017L232.134 48.5618C232.049 48.2188 232.343 47.9126 232.612 48.0841C234.657 49.4806 240.463 53.5724 243.305 57.7254Z" fill="#FFC045"/>
<path d="M304.865 11.5035C304.83 10.8524 305.039 10.2118 305.452 9.7067C305.864 9.20157 306.449 8.86819 307.094 8.77162C308.469 8.57249 309.872 8.72419 311.173 9.21264C312.765 10.1682 314.957 14.701 316.354 26.3636C317.75 38.0263 319.685 60.9963 322.319 62.4297C324.156 63.4465 329.129 63.373 331.835 63.2504C332.411 63.2529 332.972 63.4331 333.441 63.7664C333.91 64.0997 334.265 64.5699 334.457 65.1126C336 68.7878 339.503 76.8242 342.565 81.2222C342.764 81.4848 342.9 81.7897 342.962 82.1132C343.024 82.4367 343.01 82.7702 342.923 83.0878C342.835 83.4054 342.675 83.6985 342.456 83.9443C342.237 84.1902 341.964 84.3822 341.659 84.5054C337.065 85.608 329.57 89.6997 327.279 104.401C324.107 124.786 304.436 29.8061 304.865 11.5035Z" fill="#FFC045"/>
<path d="M50.8604 59.7222C49.9051 57.125 50.591 40.121 43.2175 23.3743C42.8966 22.6547 42.6384 21.9087 42.4459 21.1447C41.466 17.151 38.8694 4.71652 43.046 0L37.9753 0.0980032C37.9753 0.0980032 35.8808 -0.600283 33.076 1.97236C28.7034 5.92934 22.4078 17.739 18.6475 52.1267C18.6126 52.3986 18.5636 52.6685 18.5006 52.9353C17.8024 55.5814 13.6993 70.8948 10.4167 77.4367C8.02832 82.1164 3.74144 90.2386 1.23055 96.658C0.00572407 99.6839 2.19816 103.09 4.90502 102.575L9.52261 101.718C9.81868 101.655 10.0959 101.523 10.332 101.334C10.5681 101.145 10.7566 100.903 10.8822 100.627L21.8198 78.8087C23.7551 74.9498 27.6745 73.0632 31.2265 74.521C33.3403 75.4168 35.2901 76.6589 36.9954 78.1962C37.5223 78.6897 37.9188 79.3059 38.1496 79.99C38.3804 80.674 38.4384 81.4046 38.3182 82.1164C37.0934 89.6751 33.2719 113.368 32.0961 117.374C31.1408 120.669 40.3269 123.72 46.1938 125.325C48.6435 125.974 50.8972 123.83 50.9339 120.865C51.1666 105.209 51.6688 61.8905 50.8604 59.7222ZM30.4426 50.5709L32.8188 39.1287L36.628 50.8894L30.4426 50.5709Z" fill="#FFC045"/>
<path d="M322.012 122.985C321.714 120.484 321.159 118.021 320.359 115.634C305.281 70.6251 304.583 69.5716 304.583 69.5716C289.542 35.5391 286.897 14.4434 286.456 9.54317C286.44 9.25312 286.322 8.97809 286.122 8.76716C285.922 8.55624 285.654 8.42313 285.366 8.3916H282.916C282.609 8.43057 282.324 8.57119 282.107 8.79101C281.889 9.01083 281.751 9.2972 281.716 9.60442C280.523 16.4434 278.957 23.2118 277.024 29.8793C272.787 45.548 275.677 70.0004 277.147 82.3981C278.617 94.7958 275.922 149.373 275.922 149.373C271.121 175.491 282.046 172.98 282.046 172.98C276.388 164.563 283.345 149.875 283.871 148.944C284.606 147.621 286.1 137.722 286.1 137.722L287.215 92.1374L298.716 108.872C300.63 111.731 301.645 115.097 301.631 118.538C301.631 129.085 301.631 151.737 300.994 157.74C300.848 159.614 301.176 161.494 301.949 163.207C302.722 164.92 303.914 166.411 305.416 167.54C305.81 167.878 306.274 168.123 306.775 168.259C307.275 168.394 307.8 168.416 308.31 168.323C308.82 168.231 309.303 168.026 309.724 167.723C310.145 167.42 310.494 167.027 310.744 166.573C314.797 160.581 318.166 154.155 320.787 147.413C323.494 139.952 322.723 128.865 322.012 122.985ZM283.675 61.9761L286.125 50.534L289.922 62.2947L283.675 61.9761Z" fill="#FFC045"/>
<path d="M155.436 10.0823C139.195 14.7988 135.398 29.2302 134.614 38.1242C134.313 41.9387 134.796 45.7745 136.035 49.3948C139.443 59.1915 141.575 69.3862 142.38 79.7275L142.98 121.38C146.128 154.224 156.306 122.274 156.306 122.274C156.306 122.274 172.106 66.6193 173.454 63.0421C174.862 59.7099 179.541 3.08716 155.436 10.0823ZM154.408 52.0287C154.408 52.0287 144.033 50.5954 145.43 39.1165C146.826 27.6376 153.219 27.4293 153.219 27.4293C153.219 27.4293 160.997 26.2042 162.589 38.9082C164.182 51.6122 154.408 52.0287 154.408 52.0287Z" fill="#FFC045"/>
<path d="M89.4179 38.0138C89.2264 37.7955 89.0871 37.5364 89.0107 37.2562C88.9343 36.976 88.9228 36.6821 88.9769 36.3967C89.8466 31.8395 93.0679 12.4221 85.9761 6.78679C77.9413 0.391925 64.7009 4.33665 64.7009 4.33665C64.7009 4.33665 60.953 4.09164 59.6057 17.8124C58.3808 30.4061 61.2592 54.1602 59.7771 60.7634C59.4954 61.9884 57.7807 89.0502 57.7807 89.0502C57.7867 89.0949 57.7867 89.1403 57.7807 89.185C57.6092 90.5571 54.2287 117.839 58.0501 131.291C61.5286 143.541 69.3063 153.66 70.9965 155.792C71.108 155.949 71.2548 156.077 71.425 156.166C71.5953 156.256 71.7841 156.304 71.9764 156.307C73.7156 156.307 78.321 154.702 78.5292 136.019C78.7864 112.976 79.3988 91.2063 85.9884 81.6753C92.3452 72.4628 95.1745 45.0335 89.4179 38.0138ZM71.0455 19.3438C76.0673 19.5398 77.6963 18.7557 77.8555 24.244C78.0148 29.7323 70.8863 27.5517 70.8863 27.5517L71.0455 19.3438ZM80.2562 56.9901C78.1495 66.4722 70.7761 65.8351 70.7761 65.8351L71.5599 50.3503L76.5695 48.7699C76.5695 48.7699 82.3629 47.5081 80.2562 56.9901Z" fill="#FFC045"/>
<path d="M211.693 55.6058C210.156 53.4846 209.51 50.8466 209.892 48.2554C211.227 38.5896 213.346 15.8033 204.809 10.1924C202.947 8.88528 200.843 7.96188 198.62 7.47603C196.398 6.99018 194.1 6.95159 191.863 7.36252C186.963 8.30583 183.191 12.7651 181.868 18.3881C180.337 24.9913 179.308 36.1394 181.942 53.6089C186.351 83.0106 192.745 118.636 190.834 143.786C190.247 150.179 192.083 156.558 195.978 161.66C203.327 170.787 213.273 179.632 209.243 153.893C203.119 114.691 200.963 126.023 201.674 101.129C202.286 79.2986 196.284 64.4385 194.79 61.1063C194.751 61.0381 194.73 60.9613 194.728 60.8828C194.725 60.8042 194.743 60.7264 194.778 60.6561C194.813 60.5859 194.865 60.5254 194.929 60.48C194.993 60.4345 195.067 60.4056 195.145 60.3958C198.501 60.3958 201.539 62.7234 202.96 66.3741C205.409 72.6097 208.643 82.5573 208.533 90.5693C208.361 103.236 209.586 131.095 211.705 139.572C213.824 148.05 220.095 113.625 219.617 111.077C219.14 108.529 227.897 76.971 211.693 55.6058ZM191.703 40.0229L191.973 26.3389C191.973 26.3389 201.992 22.3329 200.877 32.6725C200.877 32.6725 203.388 42.3505 191.703 40.0229Z" fill="#FFC045"/>
<path d="M100.517 15.098L104.987 15C105.164 15.0034 105.334 15.0654 105.472 15.1763C105.609 15.2872 105.706 15.4407 105.747 15.6125C106.837 19.1285 112.496 36.6715 119.012 42.4906C119.012 42.4906 119.416 23.8573 123.421 17.1684C123.57 16.9251 123.779 16.7241 124.028 16.5847C124.276 16.4453 124.557 16.3721 124.842 16.3721H133.538C133.7 16.3915 133.855 16.4474 133.992 16.5355C134.129 16.6237 134.245 16.7418 134.33 16.8809C134.414 17.0201 134.467 17.1767 134.482 17.3389C134.498 17.5012 134.477 17.6648 134.42 17.8177C131.647 27.8795 130.815 38.3776 131.97 48.7507C134.187 65.9017 129.325 96.1976 129.325 96.1976C129.325 96.1976 126.336 105.52 126.312 157.378C126.315 157.859 126.27 158.339 126.177 158.811C125.466 162.351 122.159 177.187 119.416 158.051C116.366 136.576 118.656 86.5931 118.656 86.5931C118.656 86.5931 117.321 63.3167 109.005 53.0139C109.005 53.0139 104.84 102.335 103.726 115.566C102.832 126.126 103.53 160.771 103.787 172.532C103.787 173.671 101.889 171.846 101.521 170.792C99.0715 163.797 94.8826 145.164 91.1469 112.908C91.0001 111.602 90.9632 110.287 91.0367 108.975C91.4899 101.551 93.2414 75.3347 96.5239 63.378C100.37 49.3877 94.5887 14.5712 100.517 15.098Z" fill="white"/>
<path d="M243.214 68.9783C243.319 69.1583 243.476 69.3013 243.666 69.3877C243.855 69.4741 244.067 69.4996 244.271 69.4606C244.475 69.4216 244.663 69.32 244.807 69.17C244.951 69.02 245.045 68.8288 245.076 68.623C246.141 64.8253 248.126 58.0997 248.861 58.6265C249.828 59.3248 258.537 83.2994 261.329 130.979C261.49 134.002 262.239 136.965 263.534 139.702C264.759 142.311 266.755 146.942 269.658 155.088C275.941 172.337 270.479 84.1447 265.616 77.3333C260.754 70.5219 258.757 47.0005 260.337 28.9798L261.133 21.9356C261.179 21.7149 261.178 21.487 261.131 21.2666C261.083 21.0463 260.99 20.8383 260.857 20.656C260.725 20.4737 260.555 20.3212 260.36 20.2083C260.165 20.0953 259.949 20.0243 259.725 20H257.863C257.485 20.0067 257.116 20.112 256.792 20.3054C256.467 20.4988 256.199 20.7736 256.014 21.1026C252.927 26.1131 240.385 46.388 239.674 45.751C238.964 45.1139 231.101 28.8818 229.876 22.8912C229.817 22.507 229.628 22.1548 229.34 21.8937C229.053 21.6327 228.684 21.4787 228.296 21.4578H225.515C225.046 21.4796 224.597 21.656 224.238 21.9595C223.879 22.2631 223.631 22.6767 223.531 23.1362C221.927 28.698 217.407 47.074 222.012 64.9478C225.327 78.1253 226.827 91.6937 226.471 105.277C226.471 105.277 220.347 136.627 223.225 144.884C226.103 153.141 233.379 138.195 233.563 136.137C234.15 129.681 240.912 89.976 238.021 83.6546L232.081 59.8148C231.995 59.4717 232.289 59.1655 232.546 59.337C234.579 60.7091 240.385 64.8253 243.214 68.9783Z" fill="white"/>
<path d="M305.007 19.8164C304.972 19.1689 305.178 18.5313 305.585 18.0268C305.992 17.5222 306.572 17.1865 307.212 17.0844C308.587 16.8864 309.99 17.0381 311.291 17.5255C312.883 18.481 315.075 23.0138 316.459 34.6765C317.843 46.3391 319.84 69.2479 322.424 70.6813C324.274 71.6981 329.234 71.6246 331.941 71.5021C332.517 71.5009 333.08 71.6797 333.55 72.0135C334.02 72.3473 334.374 72.8195 334.562 73.3642C336.118 77.0394 339.609 85.0758 342.683 89.4738C342.882 89.7364 343.018 90.0413 343.08 90.3648C343.142 90.6884 343.128 91.0219 343.041 91.3394C342.953 91.657 342.793 91.9501 342.574 92.1959C342.355 92.4418 342.082 92.6338 341.776 92.757C337.183 93.8596 329.687 97.9513 327.397 112.652C324.249 133.062 304.566 38.0821 305.007 19.8164Z" fill="white"/>
<path d="M51.0037 65.7221C50.0361 63.125 50.722 46.121 43.3486 29.3743C43.058 28.6505 42.8245 27.905 42.6504 27.1447C41.6706 23.151 39.0617 10.7165 43.2506 6L38.1676 6.098C38.1676 6.098 36.0731 5.39971 33.2683 7.97236C28.8834 11.9293 22.5878 23.739 18.8276 58.1267C18.8046 58.4003 18.7554 58.6711 18.6806 58.9353C17.9825 61.5814 13.8793 76.8948 10.609 83.4366C8.17163 88.1164 3.88474 96.2386 1.34936 102.707C0.124532 105.733 2.30472 109.139 5.02383 108.624L9.62917 107.767C9.92598 107.706 10.2041 107.575 10.4405 107.385C10.6768 107.196 10.8648 106.953 10.9887 106.676L21.9387 84.8577C23.8739 80.9988 27.7933 79.1122 31.3453 80.57C33.4567 81.4635 35.4027 82.7059 37.102 84.2452C37.6315 84.7367 38.0299 85.3527 38.2609 86.0374C38.4919 86.722 38.5483 87.4535 38.4248 88.1654C37.2 95.7241 33.3785 119.417 32.2149 123.423C31.2473 126.706 40.4457 129.769 46.3127 131.374C48.7623 132.023 51.0037 129.879 51.0527 126.914C51.2977 111.209 51.7999 67.8783 51.0037 65.7221ZM30.5737 56.5709L32.9621 45.1287L36.759 56.8894L30.5737 56.5709Z" fill="white"/>
<path d="M322.342 135.605C322.045 133.104 321.487 130.64 320.676 128.255C305.611 83.2458 304.9 82.1922 304.9 82.1922C289.86 48.1598 287.214 27.0641 286.785 22.1638C286.772 21.8716 286.655 21.5937 286.455 21.3802C286.256 21.1668 285.986 21.0319 285.695 21H283.246C282.909 21.0229 282.592 21.1671 282.353 21.4058C282.114 21.6446 281.97 21.9617 281.947 22.2986C280.776 29.1526 279.23 35.9373 277.317 42.6225C273.08 58.2911 275.958 82.7435 277.44 95.1412C278.922 107.539 276.215 162.116 276.215 162.116C271.426 188.234 282.339 185.723 282.339 185.723C276.68 177.307 283.637 162.618 284.164 161.687C284.911 160.364 286.406 150.465 286.406 150.465L287.508 104.881L299.07 121.627C300.975 124.49 301.985 127.854 301.973 131.293C301.973 141.841 301.973 164.48 301.336 170.495C301.193 172.369 301.523 174.248 302.295 175.96C303.068 177.673 304.259 179.164 305.758 180.296C306.153 180.633 306.618 180.879 307.119 181.014C307.621 181.15 308.146 181.172 308.658 181.079C309.169 180.987 309.653 180.781 310.075 180.479C310.497 180.176 310.847 179.783 311.098 179.328C315.149 173.331 318.518 166.901 321.142 160.156C323.824 152.621 323.04 141.535 322.342 135.605ZM284.005 74.5968L286.393 63.1546L290.19 74.9153L284.005 74.5968Z" fill="white"/>
<path d="M154.915 17.5979C138.674 22.3145 134.877 36.7458 134.093 45.6398C133.779 49.4546 134.263 53.2929 135.514 56.9104C138.921 66.7071 141.053 76.9018 141.858 87.2431L142.458 128.895C145.606 161.74 155.772 129.79 155.772 129.79C155.772 129.79 171.609 74.1226 173.042 70.5454C174.341 67.2255 179.007 10.6028 154.915 17.5979ZM153.886 59.5443C153.886 59.5443 143.512 58.111 144.871 46.6443C146.231 35.1777 152.649 34.9327 152.649 34.9327C152.649 34.9327 160.427 33.7076 162.031 46.4116C163.636 59.1155 153.886 59.5443 153.886 59.5443Z" fill="white"/>
<path d="M88.177 43.8805C87.9907 43.659 87.8548 43.3997 87.7787 43.1205C87.7025 42.8413 87.688 42.5488 87.736 42.2634C88.6057 37.7062 91.827 18.2888 84.7475 12.6535C76.7004 6.25862 63.4723 10.2033 63.4723 10.2033C63.4723 10.2033 59.7121 9.95833 58.377 23.6791C57.1522 36.2728 60.0183 60.0269 58.5485 66.6301C58.2668 67.8551 56.552 94.9169 56.552 94.9169C56.5581 94.9616 56.5581 95.007 56.552 95.0517C56.3806 96.4115 52.9878 123.706 56.8092 137.157C60.3 149.408 68.0776 159.527 69.7679 161.659C69.8794 161.815 70.0262 161.944 70.1964 162.033C70.3666 162.122 70.5555 162.17 70.7477 162.173C72.487 162.173 77.0923 160.568 77.3006 141.886C77.5455 118.843 78.1579 97.073 84.7597 87.542C91.1166 78.3295 93.9582 50.9002 88.177 43.8805ZM69.8046 25.2104C74.8264 25.4065 76.4432 24.6224 76.6147 30.1107C76.7861 35.599 69.6332 33.4184 69.6332 33.4184L69.8046 25.2104ZM79.0153 62.8568C76.9086 72.3389 69.5229 71.7018 69.5229 71.7018L70.3191 56.217L75.3286 54.6366C75.3286 54.6366 81.1465 53.3748 79.0398 62.8568H79.0153Z" fill="white"/>
<path d="M211.377 61.5544C209.835 59.4355 209.189 56.7955 209.576 54.204C210.899 44.5382 213.03 21.7519 204.493 16.1411C202.633 14.8276 200.531 13.8976 198.308 13.4054C196.085 12.9133 193.787 12.8687 191.547 13.2744C186.647 14.2177 182.875 18.677 181.552 24.3613C180.021 30.9644 178.98 42.1125 181.613 59.582C186.035 88.9837 192.428 124.609 190.518 149.759C189.919 156.147 191.742 162.527 195.625 167.633C202.974 176.76 212.932 185.605 208.89 159.866C202.766 120.603 200.623 131.996 201.321 107.102C201.945 85.2717 195.931 70.4116 194.437 67.0795C194.302 66.7487 194.437 66.3689 194.792 66.3689C198.161 66.3689 201.198 68.6966 202.619 72.3473C205.069 78.5829 208.302 88.5304 208.192 96.5424C208.008 109.21 209.245 137.068 211.352 145.545C213.459 154.023 219.742 119.598 219.277 117.05C218.811 114.502 227.569 82.9686 211.377 61.5544ZM191.375 46.0205L191.62 32.3365C191.62 32.3365 201.639 28.3305 200.525 38.6701C200.561 38.6701 203.072 48.3481 191.375 46.0205Z" fill="white"/>
</svg>
