<svg width="344" height="186" fill="none" xmlns="http://www.w3.org/2000/svg"><path d="M101.103 8.061l4.471-.098a.783.783 0 01.759.613c1.09 3.516 6.749 21.059 13.265 26.878 0 0 .416-18.621 4.422-25.322a1.627 1.627 0 011.408-.797h8.696a1.09 1.09 0 01.895 1.446 81.906 81.906 0 00-2.45 30.933c2.205 17.151-2.658 47.447-2.658 47.447s-2.976 9.323-3.013 61.18c.004.481-.041.961-.135 1.433-.698 3.541-4.017 18.315-6.761-.759-3.086-21.476-.796-71.434-.796-71.434s-1.335-23.215-9.664-33.58c0 0-4.152 49.322-5.279 62.565-.894 10.548-.184 45.193 0 56.954 0 1.139-1.886-.686-2.266-1.74-2.45-6.995-6.638-25.628-10.374-57.885a23.441 23.441 0 01-.11-3.932c.453-7.424 2.217-33.64 5.487-45.597 3.956-14.003-1.837-48.831 4.103-48.305zM243.305 57.725a1.002 1.002 0 001.861-.355c1.054-3.798 3.038-10.523 3.773-9.996.98.71 9.676 24.672 12.481 72.352.15 3.024.895 5.988 2.192 8.723 1.225 2.609 3.234 7.24 6.198 15.387 6.283 17.249.808-70.944-4.054-77.756-4.863-6.811-6.847-30.332-5.267-48.353l.796-7.044c.044-.22.042-.448-.007-.668a1.623 1.623 0 00-1.401-1.268h-1.862a2.19 2.19 0 00-1.862 1.103c-3.074 5.01-15.616 25.285-16.327 24.648-.71-.637-8.574-16.87-9.798-22.86a1.67 1.67 0 00-1.568-1.433h-2.793a2.14 2.14 0 00-1.984 1.678c-1.592 5.562-6.124 23.938-1.506 41.812a149.882 149.882 0 014.458 40.33s-6.124 31.349-3.246 39.606c2.878 8.257 10.142-6.689 10.325-8.747.601-6.456 7.349-46.16 4.459-52.482l-6.039-23.84c-.085-.343.209-.65.478-.478 2.045 1.397 7.851 5.488 10.693 9.641zM304.865 11.504a2.619 2.619 0 012.229-2.732 8.243 8.243 0 014.079.44c1.592.956 3.784 5.489 5.181 17.152 1.396 11.662 3.331 34.632 5.965 36.066 1.837 1.017 6.81.943 9.516.82a2.793 2.793 0 012.622 1.863c1.543 3.675 5.046 11.711 8.108 16.11a2.144 2.144 0 01-.906 3.282c-4.594 1.103-12.089 5.195-14.38 19.896-3.172 20.385-22.843-74.595-22.414-92.897zM50.86 59.722c-.955-2.597-.269-19.601-7.642-36.348-.321-.72-.58-1.465-.772-2.23-.98-3.993-3.577-16.427.6-21.144l-5.07.098s-2.095-.698-4.9 1.874C28.703 5.93 22.408 17.74 18.648 52.127a7.889 7.889 0 01-.147.808c-.699 2.646-4.802 17.96-8.084 24.502-2.389 4.68-6.676 12.802-9.186 19.221-1.225 3.026.967 6.432 3.674 5.917l4.618-.857a1.943 1.943 0 001.36-1.091L21.82 78.809c1.935-3.86 5.854-5.746 9.407-4.288a20.65 20.65 0 015.768 3.675 4.373 4.373 0 011.323 3.92c-1.225 7.56-5.046 31.252-6.222 35.258-.955 3.295 8.23 6.346 14.098 7.951 2.45.649 4.703-1.495 4.74-4.46.233-15.656.735-58.974-.074-61.143zm-20.417-9.151l2.376-11.442 3.809 11.76-6.185-.318zM322.012 122.985a36.856 36.856 0 00-1.653-7.351c-15.078-45.009-15.776-46.062-15.776-46.062-15.041-34.033-17.686-55.129-18.127-60.029a1.225 1.225 0 00-1.09-1.151h-2.45a1.381 1.381 0 00-1.2 1.212 190.19 190.19 0 01-4.692 20.275c-4.237 15.669-1.347 40.121.123 52.52 1.47 12.397-1.225 66.974-1.225 66.974-4.801 26.118 6.124 23.607 6.124 23.607-5.658-8.417 1.299-23.105 1.825-24.036.735-1.323 2.229-11.222 2.229-11.222l1.115-45.585 11.501 16.735a17.248 17.248 0 012.915 9.666c0 10.547 0 33.199-.637 39.202a11.179 11.179 0 004.422 9.8 3.49 3.49 0 005.328-.967 96.8 96.8 0 0010.043-19.16c2.707-7.461 1.936-18.548 1.225-24.428zm-38.337-61.009l2.45-11.442 3.797 11.76-6.247-.318zM155.436 10.082c-16.241 4.717-20.038 19.148-20.822 28.042a28.004 28.004 0 001.421 11.27 120.87 120.87 0 016.345 30.334l.6 41.652c3.148 32.844 13.326.894 13.326.894s15.8-55.655 17.148-59.232c1.408-3.332 6.087-59.955-18.018-52.96zm-1.028 41.947s-10.375-1.434-8.978-12.913c1.396-11.478 7.789-11.687 7.789-11.687s7.778-1.225 9.37 11.48c1.593 12.703-8.181 13.12-8.181 13.12zM89.418 38.014a1.911 1.911 0 01-.441-1.617c.87-4.557 4.09-23.975-3-29.61C77.94.392 64.7 4.337 64.7 4.337s-3.748-.245-5.095 13.475c-1.225 12.594 1.653 36.348.171 42.951-.282 1.225-1.996 28.287-1.996 28.287a.507.507 0 010 .135c-.172 1.372-3.552 28.654.27 42.106 3.478 12.25 11.255 22.369 12.945 24.501a1.22 1.22 0 00.98.515c1.74 0 6.345-1.605 6.553-20.288.257-23.043.87-44.813 7.46-54.344 6.356-9.212 9.185-36.642 3.429-43.661zm-18.373-18.67c5.022.196 6.651-.588 6.81 4.9.16 5.488-6.969 3.308-6.969 3.308l.16-8.208zm9.211 37.646c-2.106 9.482-9.48 8.845-9.48 8.845l.784-15.485 5.01-1.58s5.793-1.262 3.686 8.22z" fill="#FFC045"/><path d="M211.693 55.606a10.033 10.033 0 01-1.801-7.35c1.335-9.666 3.454-32.453-5.083-38.064a17.142 17.142 0 00-12.946-2.83c-4.9.944-8.672 5.403-9.995 11.026-1.531 6.603-2.56 17.751.074 35.22 4.409 29.403 10.803 65.028 8.892 90.178a25.598 25.598 0 005.144 17.874c7.349 9.127 17.295 17.972 13.265-7.767-6.124-39.202-8.28-27.87-7.569-52.764.612-21.83-5.39-36.69-6.884-40.023a.474.474 0 01-.012-.45.477.477 0 01.367-.26c3.356 0 6.394 2.327 7.815 5.978 2.449 6.236 5.683 16.183 5.573 24.195-.172 12.667 1.053 40.526 3.172 49.003 2.119 8.478 8.39-25.947 7.912-28.495-.477-2.548 8.28-34.106-7.924-55.471zm-19.99-15.583l.27-13.684s10.019-4.006 8.904 6.334c0 0 2.511 9.677-9.174 7.35z" fill="#FFC045"/><path d="M100.517 15.098l4.47-.098a.798.798 0 01.76.613c1.09 3.515 6.749 21.059 13.265 26.878 0 0 .404-18.634 4.409-25.323a1.666 1.666 0 011.421-.796h8.696a1.075 1.075 0 01.944.967 1.07 1.07 0 01-.062.479 82.192 82.192 0 00-2.45 30.933c2.217 17.15-2.645 47.447-2.645 47.447s-2.989 9.322-3.013 61.18a7.18 7.18 0 01-.135 1.433c-.711 3.54-4.018 18.376-6.761-.76-3.05-21.475-.76-71.458-.76-71.458s-1.335-23.276-9.651-33.58c0 0-4.165 49.322-5.279 62.553-.894 10.56-.196 45.205.061 56.966 0 1.139-1.898-.686-2.266-1.74-2.45-6.995-6.638-25.628-10.374-57.884a23.456 23.456 0 01-.11-3.933c.453-7.424 2.204-33.64 5.487-45.597 3.846-13.99-1.935-48.807 3.993-48.28zM243.214 68.978a1.004 1.004 0 001.862-.355c1.065-3.798 3.05-10.523 3.785-9.997.967.699 9.676 24.673 12.468 72.353.161 3.023.91 5.986 2.205 8.723 1.225 2.609 3.221 7.24 6.124 15.386 6.283 17.249.821-70.943-4.042-77.755-4.862-6.811-6.859-30.332-5.279-48.353l.796-7.044a1.622 1.622 0 00-.276-1.28 1.609 1.609 0 00-1.132-.656h-1.862a2.164 2.164 0 00-1.849 1.103c-3.087 5.01-15.629 25.285-16.34 24.648-.71-.637-8.573-16.87-9.798-22.86a1.693 1.693 0 00-1.58-1.433h-2.781a2.132 2.132 0 00-1.984 1.678c-1.604 5.562-6.124 23.938-1.519 41.812a149.277 149.277 0 014.459 40.329s-6.124 31.35-3.246 39.607c2.878 8.257 10.154-6.689 10.338-8.747.587-6.456 7.349-46.161 4.458-52.482l-5.94-23.84c-.086-.343.208-.65.465-.478 2.033 1.372 7.839 5.488 10.668 9.641zM305.007 19.816a2.625 2.625 0 012.205-2.732 8.268 8.268 0 014.079.442c1.592.955 3.784 5.488 5.168 17.15 1.384 11.663 3.381 34.572 5.965 36.005 1.85 1.017 6.81.944 9.517.821a2.77 2.77 0 012.621 1.862c1.556 3.675 5.047 11.712 8.121 16.11a2.144 2.144 0 01-.907 3.283c-4.593 1.103-12.089 5.194-14.379 19.895-3.148 20.41-22.831-74.57-22.39-92.836zM51.004 65.722c-.968-2.597-.282-19.601-7.655-36.348-.291-.723-.524-1.469-.699-2.23-.98-3.993-3.588-16.427.6-21.144l-5.082.098s-2.095-.698-4.9 1.874c-4.385 3.957-10.68 15.767-14.44 50.155a4.287 4.287 0 01-.147.808c-.698 2.646-4.802 17.96-8.072 24.502-2.437 4.68-6.724 12.802-9.26 19.27-1.224 3.026.956 6.432 3.675 5.917l4.605-.857a1.909 1.909 0 001.36-1.091l10.95-21.818c1.935-3.86 5.854-5.746 9.406-4.288a20.44 20.44 0 015.757 3.675 4.337 4.337 0 011.323 3.92c-1.225 7.56-5.046 31.252-6.21 35.258-.968 3.283 8.23 6.346 14.098 7.951 2.45.649 4.69-1.495 4.74-4.46.245-15.705.747-59.036-.05-61.192zm-20.43-9.151l2.388-11.442 3.797 11.76-6.185-.318zM322.342 135.605a36.03 36.03 0 00-1.666-7.35C305.611 83.245 304.9 82.192 304.9 82.192c-15.04-34.032-17.686-55.128-18.115-60.028a1.226 1.226 0 00-1.09-1.164h-2.449a1.398 1.398 0 00-1.299 1.299 190.472 190.472 0 01-4.63 20.324c-4.237 15.668-1.359 40.12.123 52.518 1.482 12.398-1.225 66.975-1.225 66.975-4.789 26.118 6.124 23.607 6.124 23.607-5.659-8.416 1.298-23.105 1.825-24.036.747-1.323 2.242-11.222 2.242-11.222l1.102-45.584 11.562 16.746a17.338 17.338 0 012.903 9.666c0 10.548 0 33.187-.637 39.202a11.218 11.218 0 004.422 9.801 3.503 3.503 0 005.34-.968 97.22 97.22 0 0010.044-19.172c2.682-7.535 1.898-18.621 1.2-24.551zm-38.337-61.008l2.388-11.442 3.797 11.76-6.185-.318zM154.915 17.598c-16.241 4.716-20.038 19.148-20.822 28.042a27.566 27.566 0 001.421 11.27 120.912 120.912 0 016.344 30.333l.6 41.652c3.148 32.845 13.314.895 13.314.895s15.837-55.667 17.27-59.245c1.299-3.32 5.965-59.942-18.127-52.947zm-1.029 41.946s-10.374-1.433-9.015-12.9c1.36-11.466 7.778-11.711 7.778-11.711s7.778-1.225 9.382 11.479c1.605 12.703-8.145 13.132-8.145 13.132zM88.177 43.88a1.996 1.996 0 01-.441-1.617c.87-4.557 4.091-23.974-2.989-29.61-8.047-6.394-21.275-2.45-21.275-2.45s-3.76-.245-5.095 13.476c-1.225 12.594 1.641 36.348.171 42.951-.281 1.225-1.996 28.287-1.996 28.287a.499.499 0 010 .135c-.171 1.36-3.564 28.654.257 42.105 3.491 12.251 11.269 22.37 12.959 24.502a1.227 1.227 0 00.98.514c1.739 0 6.344-1.605 6.553-20.287.245-23.043.857-44.813 7.459-54.344 6.357-9.213 9.198-36.642 3.417-43.662zM69.805 25.21c5.021.197 6.638-.588 6.81 4.9.171 5.489-6.982 3.308-6.982 3.308l.172-8.208zm9.21 37.647c-2.106 9.482-9.492 8.845-9.492 8.845l.796-15.485 5.01-1.58s5.818-1.262 3.71 8.22h-.024z" fill="#fff"/><path d="M211.377 61.554a9.985 9.985 0 01-1.801-7.35c1.323-9.666 3.454-32.452-5.083-38.063a17.147 17.147 0 00-12.946-2.867c-4.9.944-8.672 5.403-9.995 11.087-1.531 6.603-2.572 17.751.061 35.221 4.422 29.402 10.815 65.027 8.905 90.177a25.583 25.583 0 005.107 17.874c7.349 9.127 17.307 17.972 13.265-7.767-6.124-39.263-8.267-27.87-7.569-52.764.624-21.83-5.39-36.69-6.884-40.023-.135-.33 0-.71.355-.71 3.369 0 6.406 2.328 7.827 5.978 2.45 6.236 5.683 16.183 5.573 24.195-.184 12.668 1.053 40.526 3.16 49.003 2.107 8.478 8.39-25.947 7.925-28.495-.466-2.548 8.292-34.081-7.9-55.496zM191.375 46.02l.245-13.684s10.019-4.005 8.905 6.334c.036 0 2.547 9.678-9.15 7.35z" fill="#fff"/></svg>