<svg width="83" height="25" fill="none" xmlns="http://www.w3.org/2000/svg"><path d="M12.447 0C5.573 0 0 5.596 0 12.5S5.573 25 12.447 25c6.874 0 12.447-5.596 12.447-12.5 0-6.903-5.572-12.5-12.447-12.5zm5.708 18.028a.774.774 0 01-1.067.26c-2.923-1.794-6.602-2.2-10.934-1.206a.775.775 0 01-.929-.586.778.778 0 01.584-.932c4.74-1.089 8.808-.62 12.089 1.393a.78.78 0 01.257 1.071zm1.523-3.403a.968.968 0 01-1.334.321c-3.345-2.065-8.446-2.663-12.403-1.457a.971.971 0 01-1.211-.649.977.977 0 01.647-1.215c4.52-1.378 10.14-.71 13.982 1.66.456.283.6.883.32 1.34zm.131-3.544C15.797 8.688 9.18 8.468 5.35 9.636a1.163 1.163 0 01-1.452-.78 1.17 1.17 0 01.776-1.458C9.07 6.058 16.38 6.317 20.997 9.07c.554.33.735 1.047.407 1.602a1.16 1.16 0 01-1.595.409zm14.055.459c-2.15-.515-2.532-.876-2.532-1.635 0-.717.672-1.2 1.672-1.2.97 0 1.93.366 2.938 1.12a.14.14 0 00.106.027.139.139 0 00.093-.058l1.05-1.485a.142.142 0 00-.028-.193c-1.199-.966-2.549-1.435-4.127-1.435-2.32 0-3.941 1.398-3.941 3.399 0 2.146 1.398 2.905 3.814 3.492 2.056.476 2.404.874 2.404 1.587 0 .789-.702 1.28-1.832 1.28-1.254 0-2.277-.425-3.422-1.42a.147.147 0 00-.103-.034.14.14 0 00-.097.05l-1.176 1.406a.14.14 0 00.014.196c1.331 1.194 2.97 1.825 4.737 1.825 2.5 0 4.116-1.372 4.116-3.496.004-1.792-1.064-2.785-3.682-3.425l-.004-.001zm9.343-2.129c-1.084 0-1.973.429-2.706 1.307V9.73a.141.141 0 00-.14-.141h-1.925a.141.141 0 00-.14.141v10.987c0 .078.062.141.14.141h1.924c.078 0 .141-.063.141-.141v-3.468c.733.826 1.622 1.23 2.706 1.23 2.014 0 4.052-1.557 4.052-4.533.003-2.977-2.036-4.534-4.05-4.534h-.002zm1.815 4.534c0 1.515-.93 2.573-2.26 2.573-1.317 0-2.31-1.106-2.31-2.573 0-1.467.993-2.573 2.31-2.573 1.309 0 2.26 1.082 2.26 2.573zm7.462-4.534c-2.593 0-4.625 2.006-4.625 4.566 0 2.533 2.018 4.518 4.594 4.518 2.602 0 4.64-2 4.64-4.55 0-2.542-2.024-4.534-4.609-4.534zm0 7.122c-1.379 0-2.419-1.113-2.419-2.589 0-1.482 1.004-2.557 2.388-2.557 1.388 0 2.435 1.113 2.435 2.59 0 1.481-1.01 2.556-2.404 2.556zm10.148-6.945h-2.118V7.414a.141.141 0 00-.14-.142h-1.925a.141.141 0 00-.14.142v2.174h-.926a.141.141 0 00-.14.141v1.661c0 .078.063.142.14.142h.925v4.297c0 1.737.861 2.618 2.559 2.618.69 0 1.263-.143 1.802-.45a.141.141 0 00.071-.123v-1.582a.142.142 0 00-.204-.127c-.37.188-.729.274-1.13.274-.617 0-.892-.282-.892-.913v-3.993h2.118c.077 0 .14-.064.14-.142v-1.66a.137.137 0 00-.138-.142l-.002-.001zm7.378.008V9.33c0-.785.3-1.136.972-1.136.401 0 .724.08 1.085.201a.14.14 0 00.185-.134V6.63a.141.141 0 00-.1-.136 5.261 5.261 0 00-1.6-.23c-1.777 0-2.716 1.005-2.716 2.905v.41h-.925a.142.142 0 00-.14.14v1.67c0 .078.063.142.14.142h.925v6.629c0 .078.063.141.14.141H69.9a.142.142 0 00.141-.141v-6.629h1.797l2.752 6.628c-.312.696-.62.834-1.039.834-.339 0-.696-.101-1.06-.302a.144.144 0 00-.113-.01.142.142 0 00-.083.076l-.652 1.437a.141.141 0 00.06.183c.681.37 1.296.528 2.055.528 1.421 0 2.207-.665 2.9-2.453l3.338-8.663a.142.142 0 00-.131-.193h-2.003a.141.141 0 00-.134.095l-2.052 5.886-2.248-5.89a.14.14 0 00-.131-.091H70.01zm-4.278-.008h-1.924a.142.142 0 00-.141.141v8.432c0 .078.063.141.14.141h1.925a.142.142 0 00.141-.141V9.73a.14.14 0 00-.087-.131.14.14 0 00-.054-.011zm-.951-3.84c-.763 0-1.381.62-1.381 1.386 0 .766.619 1.387 1.38 1.387.763 0 1.38-.62 1.38-1.387 0-.765-.617-1.385-1.378-1.385h-.001zm16.858 6.55a1.352 1.352 0 01-1.355-1.36c0-.745.6-1.367 1.362-1.367.761 0 1.354.614 1.354 1.36 0 .746-.6 1.368-1.361 1.368zm.007-2.591c-.694 0-1.218.553-1.218 1.231s.52 1.225 1.211 1.225c.694 0 1.22-.554 1.22-1.232 0-.678-.523-1.224-1.213-1.224zm.3 1.363l.383.54h-.323l-.344-.495h-.297v.494h-.27v-1.428h.634c.33 0 .547.17.547.456.002.234-.134.377-.328.434h-.002zm-.228-.643h-.353v.451h.353c.175 0 .28-.086.28-.226 0-.147-.105-.225-.28-.225z" fill="#fff"/></svg>