<svg width="123" height="38" fill="none" xmlns="http://www.w3.org/2000/svg"><path d="M55.007 12.192v1.68h1.263V11.53c-.437.189-.859.41-1.263.662z" fill="#000"/><path d="M55.86 8.037h-1.61v3.771a8.805 8.805 0 00-1.873 1.49l.105-5.226H50.74V6.2h5.138l-.017 1.837z" fill="#fff"/><path d="M60.512 10.772v1.115h1.306v-.984c-.432-.07-.869-.114-1.306-.131zm-2.613 1.106h1.298v-1.063c-.44.039-.877.109-1.307.21l.009.853z" fill="#000"/><path d="M62.053 10.441v.41c-.59-.12-1.191-.188-1.794-.201V8.037H58.43v2.717a9.647 9.647 0 00-1.812.436V3.439l1.742.574.087 2.178h1.838V4.815h1.742l.026 5.626z" fill="#fff"/><path d="M62.149 10.964v1.01h2.77a9.762 9.762 0 00-2.77-1.01z" fill="#000"/><path d="M67.54 10.824l-.13 2.23h-.793a12.61 12.61 0 00-3.72-2.038v-4.86h4.478v1.611H64.63v.706h2.613v1.593h-2.613v.758h2.91zM37.336 16.241l-1.385-5.704H20.736v5.704h5.495l-.157 21.504h5.61l.2-21.503h5.452z" fill="#fff"/><path d="M48.492 22.817a5.095 5.095 0 001.986-2.22 8.11 8.11 0 00.618-3.363c0-2.177-.121-6.75-7.324-6.75h-8.23v19.693h5.225v-6.01h2.674l2.874 6.01h5.957l-3.78-7.36zm-3.222-4.024a2.883 2.883 0 01-1.82.436h-2.7v-3.797h2.743a2.814 2.814 0 011.742.426 1.743 1.743 0 01.523 1.446 1.863 1.863 0 01-.488 1.49z" fill="#FDFDFB"/><path d="M80.604 18.123l3.667-7.107-5.356-2.064-3.867 8.317V7.445l-5.574-2.16v32.382h5.608v-12.96l1.82-2.064 4.068 7.577h6.35l-6.716-12.097z" fill="#fff"/><path d="M101.219 25.317h-9.72v-2.404h6.158l-1.742-5.008h-4.407v-2.212h8.562V10.65H86.022v19.675h21.538l-1.054-5.017-5.287.009z" fill="#FDFDFD"/><path fill-rule="evenodd" clip-rule="evenodd" d="M68.825 25.743a9.981 9.981 0 00-3.941-13.778 9.761 9.761 0 00-2.77-1.01l-.33-.061c-.433-.07-.87-.114-1.307-.13h-.357c-.326 0-.652.017-.976.052a9.29 9.29 0 00-1.306.208 10.63 10.63 0 00-1.568.506 9.57 9.57 0 00-1.263.662 9.998 9.998 0 1013.818 13.55zm-6.337-5.251a2.256 2.256 0 11-4.51 0 2.256 2.256 0 014.51 0z" fill="#000"/><path d="M70.153 20.762h.25-.25zm-1.328 4.98l.216.125-.216-.124zm-.09-10.107l.214-.128-.215.128zm-3.851-3.67l-.12.22h.002l.118-.22zm-2.77-1.01l.05-.245-.005-.001-.045.246zm-.33-.061l.044-.246h-.005l-.04.246zm-1.307-.13l.01-.25h-.01v.25zm-.357 0v.25-.25zm-.976.052l.022.249h.005l-.027-.25zm-1.306.208l-.057-.243h-.001l.058.243zm-1.568.506l-.095-.232-.004.002.099.23zm-1.263.662l.129.214.003-.002-.132-.212zm-3.586 3.703l.219.122-.219-.122zm-1.264 4.998l-.25.003.25-.003zm1.393 4.963l-.215.127.215-.127zm8.67 4.905l-.002-.25.002.25zm4.972-1.361l.126.216-.126-.216zm4.71-8.638a9.747 9.747 0 01-1.294 4.856l.433.25a10.248 10.248 0 001.362-5.106h-.5zm-1.382-4.998a9.732 9.732 0 011.383 4.998h.5c0-1.851-.503-3.668-1.454-5.255l-.43.257zm-3.754-3.579a9.731 9.731 0 013.754 3.579l.429-.257a10.231 10.231 0 00-3.947-3.762l-.236.44zm-2.701-.985a9.51 9.51 0 012.698.984l.24-.438a10.012 10.012 0 00-2.84-1.036l-.098.49zm-.327-.06l.33.06.091-.491-.33-.061-.091.492zm-1.27-.127c.427.016.853.06 1.275.128l.08-.494a10.957 10.957 0 00-1.337-.134l-.019.5zm-.348 0h.357v-.5h-.357v.5zm-.949.051c.315-.034.632-.05.948-.05v-.5c-.334 0-.669.017-1.002.053l.054.497zm-1.276.204a9.03 9.03 0 011.27-.203l-.043-.498c-.451.039-.9.11-1.341.214l.114.487zm-1.53.493a10.363 10.363 0 011.53-.493l-.115-.487a10.87 10.87 0 00-1.605.517l.19.463zm-1.226.643c.394-.245.805-.46 1.23-.645l-.198-.459a9.83 9.83 0 00-1.296.68l.264.424zm-3.5 3.613a9.748 9.748 0 013.497-3.611l-.258-.429a10.247 10.247 0 00-3.675 3.796l.437.244zm-1.232 4.872a9.748 9.748 0 011.233-4.872l-.437-.244a10.248 10.248 0 00-1.296 5.123l.5-.007zm1.358 4.84a9.749 9.749 0 01-1.358-4.84l-.5.007a10.248 10.248 0 001.428 5.087l.43-.255zm3.589 3.519a9.748 9.748 0 01-3.589-3.52l-.43.255a10.248 10.248 0 003.772 3.7l.247-.435zm4.864 1.264a9.748 9.748 0 01-4.864-1.264l-.247.435c1.56.882 3.323 1.34 5.114 1.329l-.003-.5zm4.848-1.328a9.748 9.748 0 01-4.848 1.328l.003.5a10.248 10.248 0 005.097-1.396l-.252-.432zm3.542-3.566a9.748 9.748 0 01-3.542 3.566l.252.432a10.248 10.248 0 003.724-3.749l-.434-.249zm-8.375-2.62a2.506 2.506 0 002.506-2.506h-.5a2.006 2.006 0 01-2.006 2.005v.5zm-2.506-2.506a2.506 2.506 0 002.506 2.505v-.5a2.006 2.006 0 01-2.006-2.005h-.5zm2.506-2.506a2.506 2.506 0 00-2.506 2.506h.5c0-1.108.898-2.006 2.006-2.006v-.5zm2.506 2.506a2.506 2.506 0 00-2.506-2.506v.5c1.108 0 2.006.898 2.006 2.006h.5z" fill="#020202"/><path d="M16.154 10.711a3.71 3.71 0 00-1.236-2.125 3.885 3.885 0 00-2.395-.636 5.13 5.13 0 00-2.413.453 1.446 1.446 0 00-.87 1.324 1.14 1.14 0 00.382.95c.429.281.913.468 1.42.548l4.947 1.071c2.955.627 5.069 1.635 6.34 3.022 1.272 1.388 1.91 3.353 1.916 5.897 0 6.27-3.86 9.403-11.583 9.397C5.358 30.612 1.47 27.204 1 20.387h7.734c.337 2.19 1.666 3.284 3.989 3.284 2.508 0 3.762-.706 3.762-2.1a1.229 1.229 0 00-.505-1.045 4.232 4.232 0 00-1.602-.61l-3.946-.792c-3.013-.58-5.246-1.625-6.697-3.135a8.221 8.221 0 01-2.16-5.984 8.013 8.013 0 012.978-6.619C6.551 1.801 9.31 1.006 12.827 1c3.275 0 5.836.74 7.656 2.23 1.82 1.489 2.874 3.71 3.162 6.654l-7.49.827z" fill="#fff" stroke="#000" stroke-miterlimit="10"/><path d="M113.909 10.763a3.752 3.752 0 00-1.237-2.134 3.912 3.912 0 00-2.404-.635 5.226 5.226 0 00-2.395.453 1.437 1.437 0 00-.871 1.323 1.166 1.166 0 00.384.95c.43.28.913.47 1.419.557l4.947 1.063c2.956.627 5.069 1.634 6.341 3.022 1.271 1.388 1.907 3.353 1.907 5.896 0 6.27-3.861 9.406-11.584 9.406-7.333 0-11.235-3.41-11.705-10.233h7.734c.331 2.189 1.666 3.283 4.006 3.283 2.509 0 3.763-.7 3.763-2.099a1.245 1.245 0 00-.462-1.019 4.355 4.355 0 00-1.611-.61l-3.937-.792c-3.019-.58-5.252-1.626-6.697-3.135a8.219 8.219 0 01-2.169-5.984 8.02 8.02 0 012.979-6.619c1.98-1.602 4.732-2.407 8.256-2.412 3.284 0 5.835.749 7.664 2.23 1.829 1.48 2.875 3.71 3.162 6.653l-7.49.836z" fill="#fff" stroke="#020202" stroke-miterlimit="10"/></svg>