<svg width="141" height="49" viewBox="0 0 141 49" fill="none" xmlns="http://www.w3.org/2000/svg">
<path d="M63.01 13.85V15.78H64.46V13.09C63.9603 13.3109 63.4759 13.5647 63.01 13.85Z" fill="black"/>
<path d="M63.99 9.07002H62.14V13.4C61.3533 13.876 60.6308 14.4507 59.99 15.11L60.11 9.11002H58.11V6.96002H64L63.99 9.07002Z" fill="white"/>
<path d="M66.31 12.5V13.5H67.81V12.27C67.3052 12.311 66.8039 12.3878 66.31 12.5ZM69.31 12.21V13.5H70.81V12.37C70.3201 12.2902 69.8259 12.2401 69.33 12.22L69.31 12.21Z" fill="black"/>
<path d="M71.1 11.84V12.3C70.4208 12.1669 69.7318 12.09 69.04 12.07V9.06999H66.94V12.2C66.2334 12.3006 65.5372 12.4646 64.86 12.69V11.9V3.79999L66.86 4.45999L66.96 6.94999H69.07V5.37999H71.07L71.1 11.84Z" fill="white"/>
<path d="M71.21 12.44V13.6H74.39C73.3955 13.053 72.3231 12.6618 71.21 12.44Z" fill="black"/>
<path d="M77.4 12.27L77.25 14.84H76.34C75.0604 13.8224 73.6162 13.031 72.07 12.5V6.90997H77.21V8.76997H74.06V9.57997H77.06V11.41H74.06V12.27H77.4Z" fill="white"/>
<path d="M41.14 11.96H23.67V18.5H29.98L29.8 43.2L36.25 38.57L36.46 18.5H42.77L41.14 11.96Z" fill="white"/>
<path d="M55.53 26.05C56.3063 25.5761 56.9659 24.9336 57.46 24.17C57.5994 23.9612 57.7199 23.7403 57.82 23.51C58.3283 22.2884 58.5703 20.9725 58.53 19.65C58.53 19.42 58.53 19.16 58.53 18.88C58.44 16.21 57.62 11.88 50.13 11.88H40.66V34.5H46.66V27.6H49.73L53.03 34.5H59.87L55.53 26.05ZM51.83 21.43C51.2083 21.8245 50.4729 22.0004 49.74 21.93H46.64V17.57H49.79C50.4923 17.5108 51.1946 17.6829 51.79 18.06C52.0103 18.2724 52.179 18.5324 52.283 18.8202C52.3871 19.108 52.4237 19.4158 52.39 19.72C52.4264 20.0286 52.3952 20.3414 52.2985 20.6367C52.2018 20.932 52.0419 21.2027 51.83 21.43Z" fill="white"/>
<path d="M98.63 31.9L92.46 20.65L96.62 12.5L90.46 10.13L86.01 19.67V8.39998L79.61 5.91998V45.92L86.04 48.39V28.21L88.14 25.84L92.81 34.5H100.09L98.63 31.9Z" fill="white"/>
<path d="M122.17 28.94H116.07H114.6H104.92V26.16H111.99L109.99 20.41H104.93V17.87H114.76V12.08H98.63V34.67H120.63H123.35L122.17 28.94Z" fill="white"/>
<path d="M80.4 23.69C80.4003 25.6969 79.8745 27.6688 78.8751 29.4091C77.8756 31.1494 76.4374 32.5973 74.7039 33.6084C72.9703 34.6195 71.002 35.1585 68.9951 35.1716C66.9883 35.1848 65.0131 34.6716 63.2665 33.6833C61.5198 32.6949 60.0628 31.266 59.0406 29.5389C58.0185 27.8119 57.4669 25.847 57.441 23.8403C57.415 21.8336 57.9156 19.8552 58.8927 18.1022C59.8699 16.3493 61.2895 14.8832 63.01 13.85C63.4738 13.561 63.9585 13.307 64.46 13.09C65.0441 12.8504 65.6459 12.6565 66.26 12.51C66.7537 12.3945 67.2549 12.3143 67.76 12.27C68.132 12.2298 68.5059 12.2098 68.88 12.21H69.29C69.7926 12.2293 70.2935 12.2794 70.79 12.36L71.17 12.43C72.2826 12.6535 73.3548 13.0446 74.35 13.59C76.1778 14.5688 77.7057 16.0251 78.7712 17.8037C79.8366 19.5823 80.3995 21.6167 80.4 23.69Z" fill="black" stroke="black" stroke-width="0.5" stroke-miterlimit="10"/>
<path d="M69.01 25.97C70.4404 25.97 71.6 24.8104 71.6 23.38C71.6 21.9496 70.4404 20.79 69.01 20.79C67.5796 20.79 66.42 21.9496 66.42 23.38C66.42 24.8104 67.5796 25.97 69.01 25.97Z" fill="#FCBD10"/>
<path d="M70.46 16.5C71.8897 16.8184 73.1897 17.5619 74.1892 18.6327C75.1886 19.7036 75.8408 21.0517 76.06 22.5" fill="black"/>
<path d="M70.46 16.5C71.2258 16.4773 71.9862 16.6349 72.68 16.96C73.393 17.2814 74.0379 17.7362 74.58 18.3C75.1212 18.8728 75.5338 19.5547 75.79 20.3C76.0528 21.0019 76.1586 21.7528 76.1 22.5C75.76 21.81 75.49 21.16 75.1 20.57C74.7561 19.9798 74.3432 19.4326 73.87 18.94C72.8775 17.9421 71.7249 17.1173 70.46 16.5Z" fill="white"/>
<path d="M60.81 24.72C61.1266 26.1516 61.8693 27.4537 62.9403 28.4551C64.0113 29.4565 65.3604 30.1101 66.81 30.33" fill="black"/>
<path d="M60.81 24.72C61.4443 25.9814 62.2861 27.1273 63.3 28.11C63.788 28.5885 64.3359 29.0019 64.93 29.34C65.52 29.72 66.17 29.98 66.85 30.34C66.0884 30.4202 65.3187 30.3244 64.6 30.06C63.8547 29.8038 63.1728 29.3912 62.6 28.85C62.0282 28.3187 61.5721 27.6753 61.26 26.96C60.937 26.2587 60.7829 25.4915 60.81 24.72Z" fill="white"/>
<path d="M26.35 18.5C26.1246 18.1112 25.8563 17.7489 25.55 17.42C24.9999 16.8338 24.3664 16.3317 23.67 15.93C21.9927 14.9699 20.168 14.2941 18.27 13.93L12.58 12.71C11.9961 12.6197 11.4394 12.4011 10.95 12.07C10.7988 11.9357 10.6806 11.7685 10.6043 11.5812C10.528 11.394 10.4957 11.1917 10.51 10.99C10.5096 10.6769 10.5988 10.3701 10.7672 10.1061C10.9355 9.84207 11.1759 9.63175 11.46 9.5C12.321 9.10633 13.2647 8.92787 14.21 8.98C15.1833 8.91868 16.1507 9.17103 16.97 9.7C17.7263 10.3274 18.2508 11.1899 18.46 12.15L27.06 11.15C26.68 7.81 25.46 5.27 23.38 3.56C21.3 1.85 18.35 1 14.58 1C10.54 1 7.37667 1.91333 5.09 3.74C3.96341 4.64721 3.06661 5.80728 2.47239 7.12604C1.87816 8.4448 1.60326 9.88509 1.67 11.33C1.60598 12.5833 1.79329 13.8367 2.22091 15.0166C2.64853 16.1964 3.30783 17.2788 4.16 18.2C5.82 19.9133 8.38333 21.1167 11.85 21.81L16.37 22.71C17.0273 22.8229 17.6559 23.0642 18.22 23.42C18.407 23.5572 18.5569 23.7386 18.6564 23.9481C18.7559 24.1575 18.8018 24.3884 18.79 24.62C18.79 26.22 17.36 27.02 14.48 27.02C11.79 27.02 10.25 25.77 9.88 23.26H1C1.54 31.0867 6.02667 35 14.46 35C23.3333 35 27.7667 31.4033 27.76 24.21C27.8402 22.2115 27.3513 20.2314 26.35 18.5Z" fill="white" stroke="black" stroke-miterlimit="10"/>
<path d="M137.79 17.5C136.32 15.92 133.9 14.76 130.51 14.03L124.82 12.81C124.238 12.7187 123.682 12.5038 123.19 12.18C123.039 12.0437 122.92 11.8747 122.844 11.6858C122.768 11.4969 122.736 11.2932 122.75 11.09C122.749 10.7665 122.844 10.4499 123.022 10.1797C123.199 9.90945 123.453 9.69742 123.75 9.56999C124.598 9.17873 125.527 8.99369 126.46 9.02999C127.43 8.9687 128.394 9.22114 129.21 9.74999C129.947 10.3824 130.448 11.2461 130.63 12.2L139.23 11.25C138.91 7.85999 137.7 5.31999 135.6 3.60999C133.5 1.89999 130.6 1.04999 126.81 1.04999C122.757 1.04999 119.593 1.96332 117.32 3.78999C116.191 4.69772 115.292 5.85904 114.696 7.1796C114.1 8.50015 113.824 9.94269 113.89 11.39C113.89 11.6167 113.89 11.8467 113.89 12.08C113.92 13.3549 114.199 14.6118 114.71 15.78C115.1 16.6999 115.659 17.5379 116.36 18.25C118.02 19.9633 120.58 21.1667 124.04 21.86L128.57 22.77C129.245 22.8758 129.889 23.1247 130.46 23.5C130.648 23.6367 130.8 23.8178 130.901 24.0271C131.002 24.2365 131.05 24.4677 131.04 24.7C131.04 26.3 129.603 27.1 126.73 27.1C124.063 27.1 122.53 25.8467 122.13 23.34H113.25C113.342 25.2763 113.804 27.177 114.61 28.94C116.097 32.0533 118.763 33.98 122.61 34.72C123.929 34.9675 125.268 35.0881 126.61 35.08C135.483 35.08 139.917 31.4833 139.91 24.29C139.957 21.3367 139.25 19.0733 137.79 17.5Z" fill="white" stroke="black" stroke-miterlimit="10"/>
</svg>
